<?xml version="1.0" encoding="UTF-8" standalone="no"?>
<svg
   width="85.463287mm"
   height="98.684502mm"
   viewBox="0 0 85.463287 98.684502"
   version="1.1"
   id="svg8"
   inkscape:version="1.2.1 (9c6d41e410, 2022-07-14)"
   sodipodi:docname="icon-HAFSWW.svg"
   inkscape:export-filename="icon-HAFSWW.png"
   inkscape:export-xdpi="300"
   inkscape:export-ydpi="300"
   xmlns:inkscape="http://www.inkscape.org/namespaces/inkscape"
   xmlns:sodipodi="http://sodipodi.sourceforge.net/DTD/sodipodi-0.dtd"
   xmlns:xlink="http://www.w3.org/1999/xlink"
   xmlns="http://www.w3.org/2000/svg"
   xmlns:svg="http://www.w3.org/2000/svg"
   xmlns:rdf="http://www.w3.org/1999/02/22-rdf-syntax-ns#"
   xmlns:cc="http://creativecommons.org/ns#"
   xmlns:dc="http://purl.org/dc/elements/1.1/">
  <defs
     id="defs2">
    <linearGradient
       inkscape:collect="always"
       id="linearGradient862">
      <stop
         style="stop-color:#030303;stop-opacity:1;"
         offset="0"
         id="stop858" />
      <stop
         style="stop-color:#ec01ff;stop-opacity:0;"
         offset="1"
         id="stop860" />
    </linearGradient>
    <linearGradient
       inkscape:collect="always"
       xlink:href="#linearGradient862"
       id="linearGradient866"
       gradientUnits="userSpaceOnUse"
       x1="34.019547"
       y1="109.10686"
       x2="118.68283"
       y2="60.226486" />
    <clipPath
       clipPathUnits="userSpaceOnUse"
       id="clipPath1498">
      <g
         id="g1502">
        <path
           d="M 40.81,21.11 H 601.27 V 536.77 H 40.81 Z"
           id="path1500" />
      </g>
    </clipPath>
    <clipPath
       clipPathUnits="userSpaceOnUse"
       id="clipPath1492">
      <g
         id="g1496">
        <path
           d="M 40.81,21.11 H 601.27 V 536.77 H 40.81 Z"
           id="path1494" />
      </g>
    </clipPath>
    <clipPath
       clipPathUnits="userSpaceOnUse"
       id="clipPath1486">
      <g
         id="g1490">
        <path
           d="M 40.81,21.11 H 601.27 V 536.77 H 40.81 Z"
           id="path1488" />
      </g>
    </clipPath>
    <clipPath
       clipPathUnits="userSpaceOnUse"
       id="clipPath1480">
      <g
         id="g1484">
        <path
           d="M 40.81,21.11 H 601.27 V 536.77 H 40.81 Z"
           id="path1482" />
      </g>
    </clipPath>
    <clipPath
       clipPathUnits="userSpaceOnUse"
       id="clipPath1594">
      <g
         id="g1598">
        <path
           d="M 40.81,21.11 H 601.27 V 536.77 H 40.81 Z"
           id="path1596" />
      </g>
    </clipPath>
    <clipPath
       clipPathUnits="userSpaceOnUse"
       id="clipPath1588">
      <g
         id="g1592">
        <path
           d="M 40.81,21.11 H 601.27 V 536.77 H 40.81 Z"
           id="path1590" />
      </g>
    </clipPath>
    <clipPath
       clipPathUnits="userSpaceOnUse"
       id="clipPath1582">
      <g
         id="g1586">
        <path
           d="M 40.81,21.11 H 601.27 V 536.77 H 40.81 Z"
           id="path1584" />
      </g>
    </clipPath>
    <clipPath
       clipPathUnits="userSpaceOnUse"
       id="clipPath1576">
      <g
         id="g1580">
        <path
           d="M 40.81,21.11 H 601.27 V 536.77 H 40.81 Z"
           id="path1578" />
      </g>
    </clipPath>
    <clipPath
       clipPathUnits="userSpaceOnUse"
       id="clipPath1738">
      <g
         id="g1742">
        <path
           d="M 40.81,21.11 H 601.27 V 536.77 H 40.81 Z"
           id="path1740" />
      </g>
    </clipPath>
    <clipPath
       clipPathUnits="userSpaceOnUse"
       id="clipPath1732">
      <g
         id="g1736">
        <path
           d="M 40.81,21.11 H 601.27 V 536.77 H 40.81 Z"
           id="path1734" />
      </g>
    </clipPath>
    <clipPath
       clipPathUnits="userSpaceOnUse"
       id="clipPath1726">
      <g
         id="g1730">
        <path
           d="M 40.81,21.11 H 601.27 V 536.77 H 40.81 Z"
           id="path1728" />
      </g>
    </clipPath>
    <clipPath
       clipPathUnits="userSpaceOnUse"
       id="clipPath1720">
      <g
         id="g1724">
        <path
           d="M 40.81,21.11 H 601.27 V 536.77 H 40.81 Z"
           id="path1722" />
      </g>
    </clipPath>
    <clipPath
       clipPathUnits="userSpaceOnUse"
       id="clipPath1858">
      <g
         id="g1862">
        <path
           d="M 40.81,21.11 H 601.27 V 536.77 H 40.81 Z"
           id="path1860" />
      </g>
    </clipPath>
    <clipPath
       clipPathUnits="userSpaceOnUse"
       id="clipPath1852">
      <g
         id="g1856">
        <path
           d="M 40.81,21.11 H 601.27 V 536.77 H 40.81 Z"
           id="path1854" />
      </g>
    </clipPath>
    <clipPath
       clipPathUnits="userSpaceOnUse"
       id="clipPath1846">
      <g
         id="g1850">
        <path
           d="M 40.81,21.11 H 601.27 V 536.77 H 40.81 Z"
           id="path1848" />
      </g>
    </clipPath>
    <clipPath
       clipPathUnits="userSpaceOnUse"
       id="clipPath1840">
      <g
         id="g1844">
        <path
           d="M 40.81,21.11 H 601.27 V 536.77 H 40.81 Z"
           id="path1842" />
      </g>
    </clipPath>
    <clipPath
       clipPathUnits="userSpaceOnUse"
       id="clipPath1978">
      <g
         id="g1982">
        <path
           d="M 40.81,21.11 H 601.27 V 536.77 H 40.81 Z"
           id="path1980" />
      </g>
    </clipPath>
    <clipPath
       clipPathUnits="userSpaceOnUse"
       id="clipPath1972">
      <g
         id="g1976">
        <path
           d="M 40.81,21.11 H 601.27 V 536.77 H 40.81 Z"
           id="path1974" />
      </g>
    </clipPath>
    <clipPath
       clipPathUnits="userSpaceOnUse"
       id="clipPath1966">
      <g
         id="g1970">
        <path
           d="M 40.81,21.11 H 601.27 V 536.77 H 40.81 Z"
           id="path1968" />
      </g>
    </clipPath>
    <clipPath
       clipPathUnits="userSpaceOnUse"
       id="clipPath1960">
      <g
         id="g1964">
        <path
           d="M 40.81,21.11 H 601.27 V 536.77 H 40.81 Z"
           id="path1962" />
      </g>
    </clipPath>
    <clipPath
       clipPathUnits="userSpaceOnUse"
       id="clipPath2074">
      <g
         id="g2078">
        <path
           d="M 40.81,21.11 H 601.27 V 536.77 H 40.81 Z"
           id="path2076" />
      </g>
    </clipPath>
    <clipPath
       clipPathUnits="userSpaceOnUse"
       id="clipPath2068">
      <g
         id="g2072">
        <path
           d="M 40.81,21.11 H 601.27 V 536.77 H 40.81 Z"
           id="path2070" />
      </g>
    </clipPath>
    <clipPath
       clipPathUnits="userSpaceOnUse"
       id="clipPath2062">
      <g
         id="g2066">
        <path
           d="M 40.81,21.11 H 601.27 V 536.77 H 40.81 Z"
           id="path2064" />
      </g>
    </clipPath>
    <clipPath
       clipPathUnits="userSpaceOnUse"
       id="clipPath2056">
      <g
         id="g2060">
        <path
           d="M 40.81,21.11 H 601.27 V 536.77 H 40.81 Z"
           id="path2058" />
      </g>
    </clipPath>
    <clipPath
       clipPathUnits="userSpaceOnUse"
       id="clipPath2170">
      <g
         id="g2174">
        <path
           d="M 40.81,21.11 H 601.27 V 536.77 H 40.81 Z"
           id="path2172" />
      </g>
    </clipPath>
    <clipPath
       clipPathUnits="userSpaceOnUse"
       id="clipPath2164">
      <g
         id="g2168">
        <path
           d="M 40.81,21.11 H 601.27 V 536.77 H 40.81 Z"
           id="path2166" />
      </g>
    </clipPath>
    <clipPath
       clipPathUnits="userSpaceOnUse"
       id="clipPath2158">
      <g
         id="g2162">
        <path
           d="M 40.81,21.11 H 601.27 V 536.77 H 40.81 Z"
           id="path2160" />
      </g>
    </clipPath>
    <clipPath
       clipPathUnits="userSpaceOnUse"
       id="clipPath2152">
      <g
         id="g2156">
        <path
           d="M 40.81,21.11 H 601.27 V 536.77 H 40.81 Z"
           id="path2154" />
      </g>
    </clipPath>
    <clipPath
       clipPathUnits="userSpaceOnUse"
       id="clipPath2200">
      <g
         id="g2204">
        <path
           d="M 40.81,21.11 H 601.27 V 536.77 H 40.81 Z"
           id="path2202" />
      </g>
    </clipPath>
    <linearGradient
       inkscape:collect="always"
       xlink:href="#linearGradient862"
       id="linearGradient6123"
       gradientUnits="userSpaceOnUse"
       x1="34.019547"
       y1="109.10686"
       x2="118.68283"
       y2="60.226486" />
    <linearGradient
       inkscape:collect="always"
       xlink:href="#linearGradient862"
       id="linearGradient6125"
       gradientUnits="userSpaceOnUse"
       x1="34.019547"
       y1="109.10686"
       x2="118.68283"
       y2="60.226486" />
  </defs>
  <sodipodi:namedview
     id="base"
     pagecolor="#ffffff"
     bordercolor="#666666"
     borderopacity="1.0"
     inkscape:pageopacity="0.0"
     inkscape:pageshadow="2"
     inkscape:zoom="1.4"
     inkscape:cx="232.14286"
     inkscape:cy="150"
     inkscape:document-units="mm"
     inkscape:current-layer="layer1"
     inkscape:document-rotation="0"
     showgrid="false"
     inkscape:window-width="1080"
     inkscape:window-height="1857"
     inkscape:window-x="1912"
     inkscape:window-y="-8"
     inkscape:window-maximized="1"
     inkscape:showpageshadow="2"
     inkscape:pagecheckerboard="0"
     inkscape:deskcolor="#d1d1d1" />
  <metadata
     id="metadata5">
    <rdf:RDF>
      <cc:Work
         rdf:about="">
        <dc:format>image/svg+xml</dc:format>
        <dc:type
           rdf:resource="http://purl.org/dc/dcmitype/StillImage" />
        <dc:title />
      </cc:Work>
    </rdf:RDF>
  </metadata>
  <g
     inkscape:label="Layer 1"
     inkscape:groupmode="layer"
     id="layer1"
     transform="translate(-33.619545,-35.32442)">
    <g
       id="g856"
       style="fill:url(#linearGradient866);fill-opacity:1;stroke:#000000;stroke-width:0.8;stroke-miterlimit:4;stroke-dasharray:none;stroke-opacity:1"
       inkscape:export-xdpi="600"
       inkscape:export-ydpi="600">
      <g
         id="g852"
         style="fill:url(#linearGradient6125);fill-opacity:1;stroke:#000000;stroke-width:0.8;stroke-miterlimit:4;stroke-dasharray:none;stroke-opacity:1">
        <path
           sodipodi:type="star"
           style="opacity:1;fill:url(#linearGradient6123);fill-opacity:1;stroke:#000000;stroke-width:0.8;stroke-miterlimit:4;stroke-dasharray:none;stroke-opacity:1"
           id="path833"
           sodipodi:sides="6"
           sodipodi:cx="76.351189"
           sodipodi:cy="84.666672"
           sodipodi:r1="48.880371"
           sodipodi:r2="42.331646"
           sodipodi:arg1="0.52359878"
           sodipodi:arg2="1.0471976"
           inkscape:flatsided="true"
           inkscape:rounded="0"
           inkscape:randomized="0"
           d="m 118.68283,109.10686 -42.331642,24.44018 -42.331643,-24.44018 10e-7,-48.880374 42.331643,-24.440185 42.331641,24.440185 z" />
      </g>
    </g>
    <text
       xml:space="preserve"
       style="font-style:italic;font-variant:normal;font-weight:normal;font-stretch:normal;font-size:20.7459px;line-height:1.25;font-family:sans-serif;-inkscape-font-specification:'sans-serif, Italic';font-variant-ligatures:normal;font-variant-caps:normal;font-variant-numeric:normal;font-variant-east-asian:normal;fill:#ffffff;fill-opacity:1;stroke:#000000;stroke-width:0.52186;stroke-miterlimit:4;stroke-dasharray:none;stroke-opacity:1"
       x="37.09803"
       y="78.475777"
       id="text12-0-5-9"
       inkscape:export-xdpi="600"
       inkscape:export-ydpi="600"><tspan
         sodipodi:role="line"
         x="37.09803"
         y="78.475777"
         style="font-style:italic;font-variant:normal;font-weight:normal;font-stretch:normal;font-size:20.7459px;font-family:sans-serif;-inkscape-font-specification:'sans-serif, Italic';font-variant-ligatures:normal;font-variant-caps:normal;font-variant-numeric:normal;font-variant-east-asian:normal;fill:#ffffff;fill-opacity:1;stroke:#000000;stroke-width:0.52186;stroke-miterlimit:4;stroke-dasharray:none;stroke-opacity:1"
         id="tspan981">hafsww</tspan></text>
    <g
       id="g9396"
       style="stroke-width:1.1;stroke-dasharray:none"
       transform="translate(0,-1.0583333)">
      <path
         d="m 70.5,303.44 v 0.06 l -0.01,0.05 v 0.06 0.05 0.06 0.05 0.05 0.06 0.05 0.06 0.05 0.06 0.05 0.06 l -0.01,0.05 v 0.06 0.05 0.06 0.05 0.06 0.05 0.06 0.05 l -0.01,0.05 v 0.06 0.05 0.06 0.05 0.06 l -0.01,0.05 v 0.06 0.05 0.06 0.05 l -0.01,0.06 v 0.05 0.06 0.05 0.06 l -0.01,0.05 v 0.05 0.06 0.05 l -0.01,0.06 v 0.05 0.06 l -0.01,0.05 v 0.06 0.05 l -0.01,0.06 v 0.05 0.06 l -0.01,0.05 v 0.06 l -0.01,0.05 v 0.05 0.06 l -0.01,0.05 v 0.06 l -0.01,0.05 v 0.06 l -0.01,0.05 v 0.06 l -0.01,0.05 V 307 l -0.01,0.05 v 0.06 l -0.01,0.05 v 0.06 l -0.01,0.05 -0.01,0.06 v 0.05 l -0.01,0.05 -0.01,0.06 v 0.05 l -0.01,0.06 -0.01,0.05 v 0.06 l -0.01,0.05 -0.01,0.06 v 0.05 l -0.01,0.06 -0.01,0.05 -0.01,0.06 -0.01,0.05 v 0.06 l -0.01,0.05 -0.01,0.06 -0.01,0.05 -0.01,0.05 -0.01,0.06 -0.01,0.05 -0.01,0.06 -0.01,0.05 -0.01,0.06 -0.01,0.05 -0.01,0.06 -0.01,0.05 -0.01,0.06 -0.02,0.05 -0.01,0.06 -0.01,0.05 -0.01,0.06 -0.02,0.05 -0.01,0.06 -0.01,0.05 -0.02,0.05 -0.01,0.06 -0.02,0.05 -0.01,0.06 -0.02,0.05 -0.01,0.06 -0.02,0.05 -0.01,0.06 -0.02,0.05 -0.01,0.06 -0.02,0.05 -0.02,0.06 -0.02,0.05 -0.01,0.06 -0.02,0.05 -0.02,0.05 -0.02,0.06 -0.02,0.05 -0.01,0.06 -0.02,0.05 -0.02,0.06 -0.02,0.05 -0.02,0.06 -0.02,0.05 -0.02,0.06 -0.02,0.05 -0.02,0.06 -0.02,0.05 -0.03,0.06 -0.02,0.05 -0.02,0.06 -0.02,0.05 -0.02,0.05 -0.03,0.06 -0.02,0.05 -0.02,0.06 -0.03,0.05 -0.02,0.06 -0.02,0.05 -0.03,0.06 -0.02,0.05 -0.03,0.06 -0.03,0.05 -0.02,0.06 -0.03,0.05 -0.02,0.06 -0.03,0.05 -0.03,0.06 -0.03,0.05 -0.02,0.05 -0.03,0.06 -0.03,0.05 -0.03,0.06 -0.03,0.05 -0.03,0.06 -0.03,0.05 -0.03,0.06 -0.03,0.05 -0.03,0.06 -0.03,0.05 -0.03,0.06 -0.03,0.05 -0.03,0.06 -0.03,0.05 -0.03,0.06 -0.03,0.05 -0.04,0.05 -0.03,0.06 -0.03,0.05 -0.03,0.06 -0.04,0.05 -0.03,0.06 -0.03,0.05 -0.03,0.06 -0.04,0.05 -0.03,0.06 -0.03,0.05 -0.04,0.06 -0.03,0.05 -0.03,0.06 -0.04,0.05 -0.03,0.05 -0.04,0.06 -0.03,0.05 -0.03,0.06 -0.04,0.05 -0.03,0.06 -0.04,0.05 -0.03,0.06 -0.03,0.05 -0.04,0.06 -0.03,0.05 -0.04,0.06 -0.03,0.05 -0.03,0.06 -0.04,0.05 -0.03,0.06 -0.04,0.05 -0.03,0.05 -0.04,0.06 -0.03,0.05 -0.03,0.06 -0.04,0.05 -0.03,0.06 -0.04,0.05 -0.03,0.06 -0.03,0.05 -0.04,0.06 -0.03,0.05 -0.03,0.06 -0.03,0.05 -0.04,0.06 -0.03,0.05 -0.03,0.06 -0.03,0.05 -0.03,0.05 -0.03,0.06 -0.03,0.05 -0.03,0.06 -0.03,0.05 -0.03,0.06 -0.03,0.05 -0.03,0.06 -0.03,0.05 -0.02,0.06 -0.03,0.05 -0.02,0.06 -0.03,0.05 -0.02,0.06 -0.03,0.05 -0.02,0.05 -0.02,0.06 -0.02,0.05 -0.02,0.06 -0.02,0.05 -0.02,0.06 -0.02,0.05 -0.01,0.06 -0.02,0.05 -0.01,0.06 -0.02,0.05 -0.01,0.06 -0.01,0.05 -0.02,0.06 -0.01,0.05 -0.01,0.06 v 0.05 l -0.01,0.05 -0.01,0.06 -0.01,0.05 v 0.06 0.05 l -0.01,0.06 v 0.05 0.06 0.05 0.06 0.05 0.06 l 0.01,0.05 v 0.06 l 0.01,0.05 v 0.06 l 0.01,0.05 0.01,0.05 0.01,0.06 0.01,0.05 0.01,0.06 0.01,0.05 0.01,0.06 0.02,0.05 0.01,0.06 0.02,0.05 0.02,0.06 0.01,0.05 0.02,0.06 0.02,0.05 0.02,0.06 0.02,0.05 0.03,0.06 0.02,0.05 0.02,0.05 0.03,0.06 0.02,0.05 0.03,0.06 0.03,0.05 0.02,0.06 0.03,0.05 0.03,0.06 0.03,0.05 0.03,0.06 0.03,0.05 0.03,0.06 0.03,0.05 0.03,0.06 0.04,0.05 0.03,0.05 0.03,0.06 0.03,0.05 0.04,0.06 0.03,0.05 0.04,0.06 0.03,0.05 0.03,0.06 0.04,0.05 0.03,0.06 0.04,0.05 0.03,0.06 0.04,0.05 0.03,0.06 0.04,0.05 0.03,0.06 0.04,0.05 0.03,0.05 0.04,0.06 0.03,0.05 0.04,0.06 0.04,0.05 0.03,0.06 0.04,0.05 0.03,0.06 0.04,0.05 0.03,0.06 0.04,0.05 0.03,0.06 0.04,0.05 0.03,0.06 0.03,0.05 0.04,0.06 0.03,0.05 0.04,0.05 0.03,0.06 0.04,0.05 0.03,0.06 0.03,0.05 0.04,0.06 0.03,0.05 0.03,0.06 0.04,0.05 0.03,0.06 0.03,0.05 0.04,0.06 0.03,0.05 0.03,0.06 0.03,0.05 0.04,0.06 0.03,0.05 0.03,0.05 0.03,0.06 0.03,0.05 0.03,0.06 0.03,0.05 0.03,0.06 0.03,0.05 0.03,0.06 0.03,0.05 0.03,0.06 0.03,0.05 0.03,0.06 0.03,0.05 0.02,0.06 0.03,0.05 0.03,0.05 0.03,0.06 0.02,0.05 0.03,0.06 0.03,0.05 0.02,0.06 0.03,0.05 0.02,0.06 0.03,0.05 0.02,0.06 0.03,0.05 0.02,0.06 0.02,0.05 0.03,0.06 0.02,0.05 0.02,0.06 0.02,0.05 0.03,0.05 0.02,0.06 0.02,0.05 0.02,0.06 0.02,0.05 0.02,0.06 0.02,0.05 0.02,0.06 0.02,0.05 0.02,0.06 0.02,0.05 0.02,0.06 0.02,0.05 0.01,0.06 0.02,0.05 0.02,0.06 0.02,0.05 0.01,0.05 0.02,0.06 0.01,0.05 0.02,0.06 0.02,0.05 0.01,0.06 0.02,0.05 0.01,0.06 0.02,0.05 0.01,0.06 0.01,0.05 0.02,0.06 0.01,0.05 0.01,0.06 0.02,0.05 0.01,0.05 0.01,0.06 0.01,0.05 0.02,0.06 0.01,0.05 0.01,0.06 0.01,0.05 0.01,0.06 0.01,0.05 0.01,0.06 0.02,0.05 0.01,0.06 0.01,0.05 0.01,0.06 0.01,0.05 v 0.06 l 0.01,0.05 0.01,0.05 0.01,0.06 0.01,0.05 0.01,0.06 0.01,0.05 0.01,0.06 v 0.05 l 0.01,0.06 0.01,0.05 0.01,0.06 v 0.05 l 0.01,0.06 0.01,0.05 v 0.06 l 0.01,0.05 0.01,0.06 v 0.05 l 0.01,0.05 v 0.06 l 0.01,0.05 0.01,0.06 v 0.05 l 0.01,0.06 v 0.05 l 0.01,0.06 v 0.05 l 0.01,0.06 v 0.05 l 0.01,0.06 v 0.05 0.06 l 0.01,0.05 v 0.06 l 0.01,0.05 v 0.05 0.06 l 0.01,0.05 v 0.06 0.05 l 0.01,0.06 v 0.05 0.06 l 0.01,0.05 v 0.06 0.05 0.06 l 0.01,0.05 v 0.06 0.05 0.05 l 0.01,0.06 v 0.05 0.06 0.05 l 0.01,0.06 v 0.05 0.06 0.05 0.06 0.05 l 0.01,0.06 v 0.05 0.06 0.05 0.06 0.05 l 0.01,0.05 v 0.06 0.05 0.06 0.05 0.06 0.05 0.06 0.05 0.06 l 0.01,0.05 h 0.02 v -0.05 -0.06 -0.05 -0.06 -0.05 -0.06 -0.05 -0.06 l 0.01,-0.05 v -0.06 -0.05 -0.05 -0.06 -0.05 -0.06 l 0.01,-0.05 v -0.06 -0.05 -0.06 -0.05 -0.06 l 0.01,-0.05 v -0.06 -0.05 -0.06 -0.05 l 0.01,-0.06 v -0.05 -0.05 -0.06 l 0.01,-0.05 v -0.06 -0.05 l 0.01,-0.06 v -0.05 -0.06 l 0.01,-0.05 v -0.06 -0.05 l 0.01,-0.06 v -0.05 -0.06 l 0.01,-0.05 v -0.05 -0.06 l 0.01,-0.05 v -0.06 l 0.01,-0.05 v -0.06 l 0.01,-0.05 v -0.06 -0.05 l 0.01,-0.06 v -0.05 l 0.01,-0.06 0.01,-0.05 v -0.06 l 0.01,-0.05 v -0.06 l 0.01,-0.05 v -0.05 l 0.01,-0.06 0.01,-0.05 v -0.06 l 0.01,-0.05 0.01,-0.06 0.01,-0.05 v -0.06 l 0.01,-0.05 0.01,-0.06 0.01,-0.05 v -0.06 l 0.01,-0.05 0.01,-0.06 0.01,-0.05 0.01,-0.06 0.01,-0.05 0.01,-0.05 0.01,-0.06 0.01,-0.05 0.01,-0.06 0.01,-0.05 0.01,-0.06 0.01,-0.05 0.01,-0.06 0.01,-0.05 0.01,-0.06 0.01,-0.05 0.01,-0.06 0.01,-0.05 0.02,-0.06 0.01,-0.05 0.01,-0.06 0.01,-0.05 0.02,-0.05 0.01,-0.06 0.01,-0.05 0.02,-0.06 0.01,-0.05 0.02,-0.06 0.01,-0.05 0.02,-0.06 0.01,-0.05 0.02,-0.06 0.01,-0.05 0.02,-0.06 0.01,-0.05 0.02,-0.06 0.02,-0.05 0.01,-0.05 0.02,-0.06 0.02,-0.05 0.02,-0.06 0.01,-0.05 0.02,-0.06 0.02,-0.05 0.02,-0.06 0.02,-0.05 0.02,-0.06 0.02,-0.05 0.02,-0.06 0.02,-0.05 0.02,-0.06 0.02,-0.05 0.03,-0.06 0.02,-0.05 0.02,-0.05 0.02,-0.06 0.02,-0.05 0.03,-0.06 0.02,-0.05 0.03,-0.06 0.02,-0.05 0.02,-0.06 0.03,-0.05 0.02,-0.06 0.03,-0.05 0.03,-0.06 0.02,-0.05 0.03,-0.06 0.02,-0.05 0.03,-0.06 0.03,-0.05 0.03,-0.05 0.02,-0.06 0.03,-0.05 0.03,-0.06 0.03,-0.05 0.03,-0.06 0.03,-0.05 0.03,-0.06 0.03,-0.05 0.03,-0.06 0.03,-0.05 0.03,-0.06 0.03,-0.05 0.03,-0.06 0.03,-0.05 0.04,-0.05 0.03,-0.06 0.03,-0.05 0.03,-0.06 0.04,-0.05 0.03,-0.06 0.03,-0.05 0.03,-0.06 0.04,-0.05 0.03,-0.06 0.03,-0.05 0.04,-0.06 0.03,-0.05 0.04,-0.06 0.03,-0.05 0.03,-0.06 0.04,-0.05 0.03,-0.05 0.04,-0.06 0.03,-0.05 0.04,-0.06 0.03,-0.05 0.04,-0.06 0.03,-0.05 0.04,-0.06 0.03,-0.05 0.04,-0.06 0.03,-0.05 0.04,-0.06 0.03,-0.05 0.04,-0.06 0.03,-0.05 0.04,-0.06 0.03,-0.05 0.04,-0.05 0.03,-0.06 0.04,-0.05 0.03,-0.06 0.04,-0.05 0.03,-0.06 0.04,-0.05 0.03,-0.06 0.04,-0.05 0.03,-0.06 0.04,-0.05 0.03,-0.06 0.03,-0.05 0.04,-0.06 0.03,-0.05 0.03,-0.06 0.04,-0.05 0.03,-0.05 0.03,-0.06 0.03,-0.05 0.03,-0.06 0.03,-0.05 0.03,-0.06 0.03,-0.05 0.03,-0.06 0.03,-0.05 0.03,-0.06 0.02,-0.05 0.03,-0.06 0.02,-0.05 0.03,-0.06 0.02,-0.05 0.02,-0.05 0.03,-0.06 0.02,-0.05 0.02,-0.06 0.02,-0.05 0.02,-0.06 0.02,-0.05 0.01,-0.06 0.02,-0.05 0.01,-0.06 0.02,-0.05 0.01,-0.06 0.01,-0.05 0.01,-0.06 0.01,-0.05 0.01,-0.06 0.01,-0.05 0.01,-0.05 0.01,-0.06 v -0.05 l 0.01,-0.06 v -0.05 -0.06 -0.05 -0.06 -0.05 -0.06 -0.05 -0.06 l -0.01,-0.05 v -0.06 l -0.01,-0.05 -0.01,-0.06 v -0.05 l -0.01,-0.05 -0.01,-0.06 -0.01,-0.05 -0.01,-0.06 -0.02,-0.05 -0.01,-0.06 -0.01,-0.05 -0.02,-0.06 -0.02,-0.05 -0.01,-0.06 -0.02,-0.05 -0.02,-0.06 -0.02,-0.05 -0.02,-0.06 -0.02,-0.05 -0.02,-0.06 -0.02,-0.05 -0.03,-0.05 -0.02,-0.06 -0.02,-0.05 -0.03,-0.06 -0.03,-0.05 -0.02,-0.06 -0.03,-0.05 -0.03,-0.06 -0.03,-0.05 -0.02,-0.06 -0.03,-0.05 -0.03,-0.06 -0.03,-0.05 -0.03,-0.06 -0.04,-0.05 -0.03,-0.05 -0.03,-0.06 -0.03,-0.05 -0.03,-0.06 -0.04,-0.05 -0.03,-0.06 -0.03,-0.05 -0.04,-0.06 -0.03,-0.05 -0.03,-0.06 -0.04,-0.05 -0.03,-0.06 -0.03,-0.05 -0.04,-0.06 -0.03,-0.05 -0.04,-0.06 -0.03,-0.05 -0.04,-0.05 -0.03,-0.06 -0.03,-0.05 -0.04,-0.06 -0.03,-0.05 -0.04,-0.06 -0.03,-0.05 -0.04,-0.06 -0.03,-0.05 -0.03,-0.06 -0.04,-0.05 -0.03,-0.06 -0.04,-0.05 -0.03,-0.06 -0.03,-0.05 -0.04,-0.06 -0.03,-0.05 -0.03,-0.05 -0.04,-0.06 -0.03,-0.05 -0.03,-0.06 -0.04,-0.05 -0.03,-0.06 -0.03,-0.05 -0.04,-0.06 -0.03,-0.05 -0.03,-0.06 -0.03,-0.05 -0.04,-0.06 -0.03,-0.05 -0.03,-0.06 -0.03,-0.05 -0.04,-0.05 -0.03,-0.06 -0.03,-0.05 -0.03,-0.06 -0.03,-0.05 -0.03,-0.06 -0.03,-0.05 -0.03,-0.06 -0.03,-0.05 -0.03,-0.06 -0.03,-0.05 -0.03,-0.06 -0.03,-0.05 -0.03,-0.06 -0.03,-0.05 -0.03,-0.06 -0.02,-0.05 -0.03,-0.05 -0.03,-0.06 -0.02,-0.05 -0.03,-0.06 -0.03,-0.05 -0.02,-0.06 -0.03,-0.05 -0.02,-0.06 -0.03,-0.05 -0.02,-0.06 -0.03,-0.05 -0.02,-0.06 -0.03,-0.05 -0.02,-0.06 -0.02,-0.05 -0.02,-0.06 -0.03,-0.05 -0.02,-0.05 -0.02,-0.06 -0.02,-0.05 -0.02,-0.06 -0.03,-0.05 -0.02,-0.06 -0.02,-0.05 -0.02,-0.06 -0.02,-0.05 -0.02,-0.06 -0.02,-0.05 -0.02,-0.06 -0.01,-0.05 -0.02,-0.06 -0.02,-0.05 -0.02,-0.06 -0.02,-0.05 -0.02,-0.05 -0.01,-0.06 -0.02,-0.05 -0.02,-0.06 -0.01,-0.05 -0.02,-0.06 -0.02,-0.05 -0.01,-0.06 -0.02,-0.05 -0.01,-0.06 -0.02,-0.05 -0.01,-0.06 -0.02,-0.05 -0.01,-0.06 -0.02,-0.05 -0.01,-0.05 -0.01,-0.06 -0.01,-0.05 -0.02,-0.06 -0.01,-0.05 -0.01,-0.06 -0.01,-0.05 -0.02,-0.06 -0.01,-0.05 -0.01,-0.06 -0.01,-0.05 -0.01,-0.06 -0.01,-0.05 -0.01,-0.06 -0.01,-0.05 -0.01,-0.06 -0.01,-0.05 -0.01,-0.05 -0.01,-0.06 v -0.05 l -0.01,-0.06 -0.01,-0.05 -0.01,-0.06 -0.01,-0.05 v -0.06 l -0.01,-0.05 -0.01,-0.06 -0.01,-0.05 v -0.06 l -0.01,-0.05 -0.01,-0.06 v -0.05 l -0.01,-0.06 -0.01,-0.05 v -0.05 l -0.01,-0.06 v -0.05 l -0.01,-0.06 -0.01,-0.05 v -0.06 L 70.66,307 v -0.06 l -0.01,-0.05 v -0.06 l -0.01,-0.05 v -0.06 l -0.01,-0.05 v -0.06 -0.05 l -0.01,-0.06 v -0.05 l -0.01,-0.05 v -0.06 -0.05 l -0.01,-0.06 v -0.05 l -0.01,-0.06 v -0.05 -0.06 -0.05 l -0.01,-0.06 v -0.05 -0.06 l -0.01,-0.05 v -0.06 -0.05 -0.05 l -0.01,-0.06 v -0.05 -0.06 -0.05 l -0.01,-0.06 v -0.05 -0.06 -0.05 -0.06 -0.05 l -0.01,-0.06 v -0.05 -0.06 -0.05 -0.06 -0.05 l -0.01,-0.05 v -0.06 -0.05 -0.06 -0.05 -0.06 -0.05 -0.06 -0.05 l -0.01,-0.06 v -0.05 -0.06 -0.05 -0.06 -0.05 -0.06 -0.05 -0.05 -0.06 -0.05 -0.06 -0.05 -0.06 z"
         style="fill:#ffffff;fill-opacity:1;fill-rule:nonzero;stroke:#ef7f49;stroke-width:2.23426;stroke-linecap:butt;stroke-linejoin:round;stroke-miterlimit:10;stroke-dasharray:none;stroke-opacity:1"
         id="path592"
         clip-path="url(#clipPath2170)"
         transform="matrix(0.49233273,0,0,-0.49233273,10.818702,249.02357)" />
      <path
         d="m 144.74,274.83 v 0.09 0.1 0.09 0.09 0.1 0.09 0.1 0.09 0.1 0.09 0.1 0.09 0.1 0.09 0.09 0.1 0.09 0.1 0.09 0.1 0.09 0.1 l -0.01,0.09 v 0.1 0.09 0.1 0.09 0.09 0.1 0.09 0.1 0.09 0.1 0.09 0.1 0.09 0.1 0.09 0.09 0.1 0.09 0.1 0.09 0.1 0.09 0.1 0.09 l -0.01,0.1 v 0.09 0.1 0.09 0.09 0.1 0.09 0.1 0.09 0.1 0.09 l -0.01,0.1 v 0.09 0.1 0.09 0.09 0.1 0.09 l -0.01,0.1 v 0.09 0.1 0.09 0.1 0.09 l -0.01,0.1 v 0.09 0.1 0.09 l -0.01,0.09 v 0.1 0.09 0.1 l -0.01,0.09 v 0.1 0.09 0.1 l -0.01,0.09 v 0.1 0.09 l -0.01,0.09 v 0.1 l -0.01,0.09 v 0.1 0.09 l -0.01,0.1 v 0.09 l -0.01,0.1 v 0.09 l -0.01,0.1 V 284 l -0.01,0.1 v 0.09 l -0.01,0.09 v 0.1 l -0.01,0.09 v 0.1 l -0.01,0.09 v 0.1 l -0.01,0.09 v 0.1 l -0.01,0.09 -0.01,0.1 v 0.09 l -0.01,0.09 -0.01,0.1 v 0.09 l -0.01,0.1 -0.01,0.09 v 0.1 l -0.01,0.09 -0.01,0.1 -0.01,0.09 v 0.1 l -0.01,0.09 -0.01,0.09 -0.01,0.1 v 0.09 l -0.01,0.1 -0.01,0.09 -0.01,0.1 -0.01,0.09 -0.01,0.1 v 0.09 l -0.01,0.1 -0.01,0.09 -0.01,0.1 -0.01,0.09 -0.01,0.09 -0.01,0.1 -0.01,0.09 -0.01,0.1 -0.01,0.09 -0.01,0.1 -0.01,0.09 -0.01,0.1 -0.02,0.09 -0.01,0.1 -0.01,0.09 -0.01,0.09 -0.01,0.1 -0.02,0.09 -0.01,0.1 -0.01,0.09 -0.02,0.1 -0.01,0.09 -0.02,0.1 -0.01,0.09 -0.02,0.1 -0.02,0.09 -0.01,0.1 -0.02,0.09 -0.02,0.09 -0.01,0.1 -0.02,0.09 -0.02,0.1 -0.02,0.09 -0.02,0.1 -0.02,0.09 -0.02,0.1 -0.02,0.09 -0.02,0.1 -0.02,0.09 -0.02,0.09 -0.02,0.1 -0.02,0.09 -0.02,0.1 -0.03,0.09 -0.02,0.1 -0.02,0.09 -0.02,0.1 -0.03,0.09 -0.02,0.1 -0.02,0.09 -0.03,0.1 -0.02,0.09 -0.02,0.09 -0.03,0.1 -0.02,0.09 -0.03,0.1 -0.02,0.09 -0.02,0.1 -0.03,0.09 -0.02,0.1 -0.03,0.09 -0.02,0.1 -0.03,0.09 -0.02,0.09 -0.02,0.1 -0.03,0.09 -0.02,0.1 -0.03,0.09 -0.02,0.1 -0.02,0.09 -0.03,0.1 -0.02,0.09 -0.03,0.1 -0.02,0.09 -0.02,0.1 -0.03,0.09 -0.02,0.09 -0.02,0.1 -0.02,0.09 -0.03,0.1 -0.02,0.09 -0.02,0.1 -0.02,0.09 -0.02,0.1 -0.02,0.09 -0.02,0.1 -0.03,0.09 -0.02,0.09 -0.02,0.1 -0.01,0.09 -0.02,0.1 -0.02,0.09 -0.02,0.1 -0.02,0.09 -0.02,0.1 -0.02,0.09 -0.01,0.1 -0.02,0.09 -0.02,0.1 -0.01,0.09 -0.02,0.09 -0.01,0.1 -0.02,0.09 -0.01,0.1 -0.01,0.09 -0.02,0.1 -0.01,0.09 -0.01,0.1 -0.02,0.09 -0.01,0.1 -0.01,0.09 -0.01,0.09 -0.01,0.1 -0.01,0.09 -0.01,0.1 -0.01,0.09 -0.01,0.1 -0.01,0.09 -0.01,0.1 v 0.09 l -0.01,0.1 -0.01,0.09 v 0.09 l -0.01,0.1 -0.01,0.09 v 0.1 l -0.01,0.09 v 0.1 l -0.01,0.09 v 0.1 l -0.01,0.09 v 0.1 0.09 l -0.01,0.1 v 0.09 0.09 l -0.01,0.1 v 0.09 0.1 0.09 0.1 0.09 0.1 0.09 0.1 0.09 0.09 0.1 0.09 l 0.01,0.1 v 0.09 0.1 l 0.01,0.09 v 0.1 l 0.01,0.09 v 0.1 l 0.01,0.09 v 0.1 l 0.01,0.09 v 0.09 l 0.01,0.1 0.01,0.09 0.01,0.1 0.01,0.09 0.01,0.1 0.01,0.09 0.01,0.1 0.01,0.09 0.01,0.1 0.01,0.09 0.01,0.09 0.01,0.1 0.02,0.09 0.01,0.1 0.01,0.09 0.02,0.1 0.01,0.09 0.02,0.1 0.01,0.09 0.02,0.1 0.02,0.09 0.01,0.1 0.02,0.09 0.02,0.09 0.02,0.1 0.02,0.09 0.02,0.1 0.01,0.09 0.02,0.1 0.02,0.09 0.03,0.1 0.02,0.09 0.02,0.1 0.02,0.09 0.02,0.09 0.02,0.1 0.03,0.09 0.02,0.1 0.02,0.09 0.03,0.1 0.02,0.09 0.02,0.1 0.03,0.09 0.02,0.1 0.03,0.09 0.02,0.1 0.03,0.09 0.02,0.09 0.03,0.1 0.02,0.09 0.03,0.1 0.02,0.09 0.03,0.1 0.02,0.09 0.03,0.1 0.02,0.09 0.02,0.1 0.03,0.09 0.02,0.09 0.03,0.1 0.02,0.09 0.02,0.1 0.03,0.09 0.02,0.1 0.02,0.09 0.03,0.1 0.02,0.09 0.02,0.1 0.02,0.09 0.03,0.1 0.02,0.09 0.02,0.09 0.02,0.1 0.02,0.09 0.02,0.1 0.02,0.09 0.02,0.1 0.02,0.09 0.02,0.1 0.02,0.09 0.02,0.1 0.02,0.09 0.02,0.09 0.02,0.1 0.02,0.09 0.01,0.1 0.02,0.09 0.02,0.1 0.02,0.09 0.01,0.1 0.02,0.09 0.02,0.1 0.02,0.09 0.01,0.09 0.02,0.1 0.01,0.09 0.02,0.1 0.02,0.09 0.01,0.1 0.02,0.09 0.01,0.1 0.02,0.09 0.01,0.1 0.02,0.09 0.01,0.1 0.02,0.09 0.01,0.09 0.01,0.1 0.02,0.09 0.01,0.1 0.01,0.09 0.02,0.1 0.01,0.09 0.01,0.1 0.01,0.09 0.01,0.1 0.02,0.09 0.01,0.09 0.01,0.1 0.01,0.09 0.01,0.1 0.01,0.09 0.01,0.1 0.01,0.09 0.01,0.1 0.01,0.09 0.01,0.1 0.01,0.09 v 0.1 l 0.01,0.09 0.01,0.09 0.01,0.1 0.01,0.09 v 0.1 l 0.01,0.09 0.01,0.1 v 0.09 l 0.01,0.1 0.01,0.09 v 0.1 l 0.01,0.09 v 0.09 l 0.01,0.1 v 0.09 l 0.01,0.1 v 0.09 l 0.01,0.1 v 0.09 l 0.01,0.1 v 0.09 l 0.01,0.1 v 0.09 0.1 l 0.01,0.09 v 0.09 0.1 l 0.01,0.09 v 0.1 0.09 l 0.01,0.1 v 0.09 0.1 l 0.01,0.09 v 0.1 0.09 l 0.01,0.09 v 0.1 0.09 0.1 l 0.01,0.09 v 0.1 0.09 0.1 l 0.01,0.09 v 0.1 0.09 0.1 0.09 l 0.01,0.09 v 0.1 0.09 0.1 0.09 l 0.01,0.1 v 0.09 0.1 0.09 0.1 0.09 l 0.01,0.09 v 0.1 0.09 0.1 0.09 0.1 0.09 0.1 0.09 0.1 l 0.01,0.09 v 0.1 0.09 0.09 0.1 0.09 0.1 0.09 0.1 0.09 0.1 0.09 0.1 0.09 0.09 0.1 0.09 0.1 0.09 0.1 0.09 l 0.01,0.1 v 0 -0.1 -0.09 -0.1 -0.09 -0.1 -0.09 -0.1 -0.09 -0.09 l 0.01,-0.1 v -0.09 -0.1 -0.09 -0.1 -0.09 -0.1 -0.09 -0.1 -0.09 -0.09 -0.1 -0.09 -0.1 -0.09 -0.1 l 0.01,-0.09 v -0.1 -0.09 -0.1 -0.09 -0.1 -0.09 -0.09 l 0.01,-0.1 v -0.09 -0.1 -0.09 -0.1 -0.09 l 0.01,-0.1 v -0.09 -0.1 -0.09 -0.09 l 0.01,-0.1 v -0.09 -0.1 -0.09 l 0.01,-0.1 v -0.09 -0.1 -0.09 l 0.01,-0.1 v -0.09 -0.1 -0.09 l 0.01,-0.09 v -0.1 -0.09 l 0.01,-0.1 v -0.09 -0.1 l 0.01,-0.09 v -0.1 -0.09 l 0.01,-0.1 v -0.09 -0.09 l 0.01,-0.1 v -0.09 l 0.01,-0.1 v -0.09 -0.1 l 0.01,-0.09 v -0.1 l 0.01,-0.09 v -0.1 l 0.01,-0.09 v -0.1 l 0.01,-0.09 0.01,-0.09 v -0.1 l 0.01,-0.09 v -0.1 l 0.01,-0.09 0.01,-0.1 v -0.09 l 0.01,-0.1 0.01,-0.09 0.01,-0.1 v -0.09 l 0.01,-0.09 0.01,-0.1 0.01,-0.09 0.01,-0.1 0.01,-0.09 0.01,-0.1 0.01,-0.09 0.01,-0.1 0.01,-0.09 0.01,-0.1 0.01,-0.09 0.01,-0.1 0.01,-0.09 0.01,-0.09 0.01,-0.1 0.02,-0.09 0.01,-0.1 0.01,-0.09 0.01,-0.1 0.02,-0.09 0.01,-0.1 0.01,-0.09 0.02,-0.1 0.01,-0.09 0.02,-0.09 0.01,-0.1 0.01,-0.09 0.02,-0.1 0.01,-0.09 0.02,-0.1 0.02,-0.09 0.01,-0.1 0.02,-0.09 0.01,-0.1 0.02,-0.09 0.02,-0.1 0.01,-0.09 0.02,-0.09 0.02,-0.1 0.01,-0.09 0.02,-0.1 0.02,-0.09 0.02,-0.1 0.01,-0.09 0.02,-0.1 0.02,-0.09 0.02,-0.1 0.02,-0.09 0.02,-0.09 0.02,-0.1 0.01,-0.09 0.02,-0.1 0.02,-0.09 0.02,-0.1 0.02,-0.09 0.03,-0.1 0.02,-0.09 0.02,-0.1 0.02,-0.09 0.02,-0.09 0.02,-0.1 0.02,-0.09 0.03,-0.1 0.02,-0.09 0.02,-0.1 0.03,-0.09 0.02,-0.1 0.02,-0.09 0.03,-0.1 0.02,-0.09 0.02,-0.1 0.03,-0.09 0.02,-0.09 0.03,-0.1 0.02,-0.09 0.03,-0.1 0.02,-0.09 0.03,-0.1 0.02,-0.09 0.03,-0.1 0.02,-0.09 0.03,-0.1 0.02,-0.09 0.03,-0.09 0.02,-0.1 0.02,-0.09 0.03,-0.1 0.02,-0.09 0.03,-0.1 0.02,-0.09 0.02,-0.1 0.03,-0.09 0.02,-0.1 0.02,-0.09 0.03,-0.1 0.02,-0.09 0.02,-0.09 0.02,-0.1 0.02,-0.09 0.02,-0.1 0.02,-0.09 0.02,-0.1 0.02,-0.09 0.02,-0.1 0.02,-0.09 0.02,-0.1 0.02,-0.09 0.01,-0.09 0.02,-0.1 0.02,-0.09 0.01,-0.1 0.02,-0.09 0.01,-0.1 0.02,-0.09 0.01,-0.1 0.02,-0.09 0.01,-0.1 0.01,-0.09 0.02,-0.1 0.01,-0.09 0.01,-0.09 0.01,-0.1 0.01,-0.09 0.01,-0.1 0.01,-0.09 0.01,-0.1 0.01,-0.09 0.01,-0.1 v -0.09 l 0.01,-0.1 0.01,-0.09 0.01,-0.09 v -0.1 l 0.01,-0.09 v -0.1 l 0.01,-0.09 v -0.1 -0.09 l 0.01,-0.1 v -0.09 -0.1 l 0.01,-0.09 v -0.1 -0.09 -0.09 -0.1 -0.09 -0.1 -0.09 -0.1 -0.09 -0.1 l -0.01,-0.09 v -0.1 -0.09 -0.09 l -0.01,-0.1 v -0.09 l -0.01,-0.1 v -0.09 -0.1 l -0.01,-0.09 v -0.1 l -0.01,-0.09 -0.01,-0.1 v -0.09 l -0.01,-0.1 v -0.09 l -0.01,-0.09 -0.01,-0.1 -0.01,-0.09 -0.01,-0.1 v -0.09 l -0.01,-0.1 -0.01,-0.09 -0.01,-0.1 -0.01,-0.09 -0.01,-0.1 -0.01,-0.09 -0.02,-0.09 -0.01,-0.1 -0.01,-0.09 -0.01,-0.1 -0.01,-0.09 -0.02,-0.1 -0.01,-0.09 -0.02,-0.1 -0.01,-0.09 -0.02,-0.1 -0.01,-0.09 -0.02,-0.09 -0.01,-0.1 -0.02,-0.09 -0.02,-0.1 -0.01,-0.09 -0.02,-0.1 -0.02,-0.09 -0.02,-0.1 -0.02,-0.09 -0.02,-0.1 -0.02,-0.09 -0.02,-0.1 -0.02,-0.09 -0.02,-0.09 -0.02,-0.1 -0.02,-0.09 -0.02,-0.1 -0.02,-0.09 -0.03,-0.1 -0.02,-0.09 -0.02,-0.1 -0.02,-0.09 -0.02,-0.1 -0.03,-0.09 -0.02,-0.09 -0.02,-0.1 -0.03,-0.09 -0.02,-0.1 -0.02,-0.09 -0.03,-0.1 -0.02,-0.09 -0.03,-0.1 -0.02,-0.09 -0.02,-0.1 -0.03,-0.09 -0.02,-0.1 -0.03,-0.09 -0.02,-0.09 -0.02,-0.1 -0.03,-0.09 -0.02,-0.1 -0.03,-0.09 -0.02,-0.1 -0.03,-0.09 -0.02,-0.1 -0.02,-0.09 -0.03,-0.1 -0.02,-0.09 -0.03,-0.09 -0.02,-0.1 -0.02,-0.09 -0.03,-0.1 -0.02,-0.09 -0.02,-0.1 -0.03,-0.09 -0.02,-0.1 -0.02,-0.09 -0.02,-0.1 -0.02,-0.09 -0.02,-0.1 -0.03,-0.09 -0.02,-0.09 -0.02,-0.1 -0.02,-0.09 -0.02,-0.1 -0.02,-0.09 -0.02,-0.1 -0.01,-0.09 -0.02,-0.1 -0.02,-0.09 -0.02,-0.1 -0.01,-0.09 -0.02,-0.09 -0.02,-0.1 -0.01,-0.09 -0.02,-0.1 -0.01,-0.09 -0.02,-0.1 -0.01,-0.09 -0.02,-0.1 -0.01,-0.09 -0.01,-0.1 -0.02,-0.09 -0.01,-0.1 -0.01,-0.09 -0.02,-0.09 -0.01,-0.1 -0.01,-0.09 -0.01,-0.1 -0.01,-0.09 -0.01,-0.1 -0.01,-0.09 -0.01,-0.1 -0.01,-0.09 -0.01,-0.1 -0.01,-0.09 -0.01,-0.09 -0.01,-0.1 -0.01,-0.09 -0.01,-0.1 -0.01,-0.09 -0.01,-0.1 v -0.09 l -0.01,-0.1 -0.01,-0.09 -0.01,-0.1 -0.01,-0.09 v -0.1 l -0.01,-0.09 -0.01,-0.09 -0.01,-0.1 v -0.09 l -0.01,-0.1 -0.01,-0.09 -0.01,-0.1 v -0.09 l -0.01,-0.1 -0.01,-0.09 v -0.1 l -0.01,-0.09 -0.01,-0.09 v -0.1 l -0.01,-0.09 v -0.1 l -0.01,-0.09 -0.01,-0.1 v -0.09 l -0.01,-0.1 v -0.09 l -0.01,-0.1 v -0.09 l -0.01,-0.09 V 284 l -0.01,-0.09 v -0.1 l -0.01,-0.09 v -0.1 -0.09 l -0.01,-0.1 v -0.09 l -0.01,-0.1 v -0.09 -0.1 l -0.01,-0.09 v -0.09 -0.1 l -0.01,-0.09 v -0.1 -0.09 l -0.01,-0.1 v -0.09 -0.1 -0.09 l -0.01,-0.1 v -0.09 -0.09 -0.1 l -0.01,-0.09 v -0.1 -0.09 -0.1 -0.09 l -0.01,-0.1 v -0.09 -0.1 -0.09 -0.1 -0.09 -0.09 l -0.01,-0.1 v -0.09 -0.1 -0.09 -0.1 -0.09 -0.1 -0.09 -0.1 l -0.01,-0.09 v -0.09 -0.1 -0.09 -0.1 -0.09 -0.1 -0.09 -0.1 -0.09 -0.1 -0.09 -0.1 -0.09 -0.09 -0.1 -0.09 -0.1 l -0.01,-0.09 v -0.1 -0.09 -0.1 -0.09 -0.1 -0.09 -0.09 -0.1 -0.09 -0.1 -0.09 -0.1 -0.09 -0.1 -0.09 -0.1 -0.09 -0.1 -0.09 -0.09 -0.1 -0.09 -0.1 -0.09 -0.1 -0.09 -0.1 -0.09 -0.1 -0.09 -0.09 -0.1 z"
         style="fill:#ffffff;fill-opacity:1;fill-rule:nonzero;stroke:#b79f00;stroke-width:2.23426;stroke-linecap:butt;stroke-linejoin:round;stroke-miterlimit:10;stroke-dasharray:none;stroke-opacity:1"
         id="path624"
         clip-path="url(#clipPath2074)"
         transform="matrix(0.49233273,0,0,-0.49233273,-15.291186,249.02357)" />
      <path
         d="m 218.97,273.11 v 0.05 0.05 0.05 0.04 0.05 0.05 0.05 0.05 0.05 0.04 0.05 0.05 0.05 0.05 0.05 0.04 0.05 0.05 0.05 0.05 0.05 0.04 l -0.01,0.05 v 0.05 0.05 0.05 0.05 0.04 0.05 0.05 0.05 0.05 0.05 0.05 0.04 l -0.01,0.05 v 0.05 0.05 0.05 0.05 0.04 0.05 0.05 l -0.01,0.05 v 0.05 0.05 0.04 0.05 0.05 l -0.01,0.05 v 0.05 0.05 0.04 0.05 l -0.01,0.05 v 0.05 0.05 0.05 l -0.01,0.04 v 0.05 0.05 0.05 l -0.01,0.05 v 0.05 0.05 0.04 l -0.01,0.05 v 0.05 0.05 l -0.01,0.05 v 0.05 0.04 l -0.01,0.05 v 0.05 0.05 l -0.01,0.05 v 0.05 l -0.01,0.04 v 0.05 l -0.01,0.05 v 0.05 l -0.01,0.05 v 0.05 l -0.01,0.04 v 0.05 l -0.01,0.05 -0.01,0.05 v 0.05 l -0.01,0.05 -0.01,0.04 v 0.05 l -0.01,0.05 -0.01,0.05 -0.01,0.05 -0.01,0.05 -0.01,0.04 -0.01,0.05 -0.01,0.05 -0.01,0.05 -0.01,0.05 -0.01,0.05 -0.01,0.05 -0.01,0.04 -0.01,0.05 -0.02,0.05 -0.01,0.05 -0.01,0.05 -0.02,0.05 -0.01,0.04 -0.02,0.05 -0.01,0.05 -0.02,0.05 -0.02,0.05 -0.01,0.05 -0.02,0.04 -0.02,0.05 -0.02,0.05 -0.02,0.05 -0.02,0.05 -0.02,0.05 -0.02,0.04 -0.02,0.05 -0.03,0.05 -0.02,0.05 -0.02,0.05 -0.03,0.05 -0.02,0.04 -0.03,0.05 -0.02,0.05 -0.03,0.05 -0.03,0.05 -0.03,0.05 -0.03,0.05 -0.02,0.04 -0.03,0.05 -0.04,0.05 -0.03,0.05 -0.03,0.05 -0.03,0.05 -0.03,0.04 -0.04,0.05 -0.03,0.05 -0.04,0.05 -0.03,0.05 -0.04,0.05 -0.04,0.04 -0.03,0.05 -0.04,0.05 -0.04,0.05 -0.04,0.05 -0.04,0.05 -0.04,0.04 -0.04,0.05 -0.04,0.05 -0.04,0.05 -0.05,0.05 -0.04,0.05 -0.04,0.04 -0.05,0.05 -0.04,0.05 -0.05,0.05 -0.04,0.05 -0.05,0.05 -0.04,0.05 -0.05,0.04 -0.05,0.05 -0.04,0.05 -0.05,0.05 -0.05,0.05 -0.05,0.05 -0.05,0.04 -0.04,0.05 -0.05,0.05 -0.05,0.05 -0.05,0.05 -0.05,0.05 -0.05,0.04 -0.05,0.05 -0.04,0.05 -0.05,0.05 -0.05,0.05 -0.05,0.05 -0.05,0.04 -0.05,0.05 -0.05,0.05 -0.04,0.05 -0.05,0.05 -0.05,0.05 -0.05,0.04 -0.05,0.05 -0.04,0.05 -0.05,0.05 -0.05,0.05 -0.05,0.05 -0.04,0.05 -0.05,0.04 -0.05,0.05 -0.04,0.05 -0.05,0.05 -0.05,0.05 -0.04,0.05 -0.05,0.04 -0.04,0.05 -0.05,0.05 -0.04,0.05 -0.05,0.05 -0.04,0.05 -0.05,0.04 -0.04,0.05 -0.04,0.05 -0.04,0.05 -0.04,0.05 -0.05,0.05 -0.04,0.04 -0.04,0.05 -0.04,0.05 -0.03,0.05 -0.04,0.05 -0.04,0.05 -0.03,0.04 -0.04,0.05 -0.03,0.05 -0.04,0.05 -0.03,0.05 -0.03,0.05 -0.04,0.04 -0.03,0.05 -0.03,0.05 -0.03,0.05 -0.02,0.05 -0.03,0.05 -0.03,0.05 -0.02,0.04 -0.03,0.05 -0.02,0.05 -0.02,0.05 -0.03,0.05 -0.02,0.05 -0.02,0.04 -0.02,0.05 -0.01,0.05 -0.02,0.05 -0.01,0.05 -0.02,0.05 -0.01,0.04 -0.01,0.05 -0.02,0.05 -0.01,0.05 v 0.05 l -0.01,0.05 -0.01,0.04 v 0.05 l -0.01,0.05 v 0.05 0.05 0.05 0.04 0.05 l 0.01,0.05 v 0.05 l 0.01,0.05 v 0.05 l 0.01,0.05 0.01,0.04 0.01,0.05 0.01,0.05 0.01,0.05 0.02,0.05 0.01,0.05 0.02,0.04 0.01,0.05 0.02,0.05 0.02,0.05 0.02,0.05 0.02,0.05 0.02,0.04 0.02,0.05 0.02,0.05 0.03,0.05 0.02,0.05 0.03,0.05 0.02,0.04 0.03,0.05 0.03,0.05 0.02,0.05 0.03,0.05 0.03,0.05 0.03,0.04 0.04,0.05 0.03,0.05 0.03,0.05 0.04,0.05 0.03,0.05 0.04,0.05 0.03,0.04 0.04,0.05 0.04,0.05 0.04,0.05 0.04,0.05 0.04,0.05 0.04,0.04 0.04,0.05 0.04,0.05 0.04,0.05 0.05,0.05 0.04,0.05 0.05,0.04 0.04,0.05 0.05,0.05 0.04,0.05 0.05,0.05 0.04,0.05 0.05,0.04 0.05,0.05 0.05,0.05 0.04,0.05 0.05,0.05 0.05,0.05 0.05,0.04 0.05,0.05 0.05,0.05 0.05,0.05 0.05,0.05 0.04,0.05 0.05,0.05 0.05,0.04 0.05,0.05 0.05,0.05 0.05,0.05 0.05,0.05 0.05,0.05 0.05,0.04 0.05,0.05 0.04,0.05 0.05,0.05 0.05,0.05 0.05,0.05 0.05,0.04 0.04,0.05 0.05,0.05 0.05,0.05 0.04,0.05 0.05,0.05 0.04,0.04 0.05,0.05 0.04,0.05 0.05,0.05 0.04,0.05 0.05,0.05 0.04,0.04 0.04,0.05 0.04,0.05 0.05,0.05 0.04,0.05 0.04,0.05 0.04,0.05 0.04,0.04 0.04,0.05 0.04,0.05 0.04,0.05 0.04,0.05 0.04,0.05 0.04,0.04 0.03,0.05 0.04,0.05 0.04,0.05 0.03,0.05 0.04,0.05 0.03,0.04 0.04,0.05 0.03,0.05 0.04,0.05 0.03,0.05 0.03,0.05 0.03,0.04 0.03,0.05 0.03,0.05 0.03,0.05 0.03,0.05 0.03,0.05 0.03,0.04 0.03,0.05 0.03,0.05 0.02,0.05 0.03,0.05 0.02,0.05 0.03,0.04 0.02,0.05 0.03,0.05 0.02,0.05 0.02,0.05 0.03,0.05 0.02,0.05 0.02,0.04 0.02,0.05 0.02,0.05 0.02,0.05 0.02,0.05 0.01,0.05 0.02,0.04 0.02,0.05 0.02,0.05 0.01,0.05 0.02,0.05 0.01,0.05 0.02,0.04 0.01,0.05 0.02,0.05 0.01,0.05 0.01,0.05 0.02,0.05 0.01,0.04 0.01,0.05 0.01,0.05 0.01,0.05 0.01,0.05 0.01,0.05 0.01,0.04 0.01,0.05 0.01,0.05 0.01,0.05 0.01,0.05 v 0.05 l 0.01,0.05 0.01,0.04 0.01,0.05 v 0.05 l 0.01,0.05 0.01,0.05 v 0.05 l 0.01,0.04 v 0.05 l 0.01,0.05 v 0.05 l 0.01,0.05 v 0.05 l 0.01,0.04 v 0.05 l 0.01,0.05 v 0.05 l 0.01,0.05 v 0.05 l 0.01,0.04 v 0.05 0.05 l 0.01,0.05 v 0.05 0.05 l 0.01,0.04 v 0.05 0.05 l 0.01,0.05 v 0.05 0.05 l 0.01,0.05 v 0.04 0.05 0.05 l 0.01,0.05 v 0.05 0.05 0.04 l 0.01,0.05 v 0.05 0.05 0.05 0.05 l 0.01,0.04 v 0.05 0.05 0.05 0.05 0.05 l 0.01,0.04 v 0.05 0.05 0.05 0.05 0.05 0.04 0.05 0.05 l 0.01,0.05 v 0.05 0.05 0.05 0.04 0.05 0.05 0.05 0.05 0.05 0.04 0.05 0.05 0.05 0.05 0.05 0.04 l 0.01,0.05 v 0.05 0.05 0.05 0.05 0.04 0.05 0.05 0.05 0.05 0.05 0.04 h 0.01 v -0.04 -0.05 -0.05 -0.05 -0.05 -0.05 -0.04 -0.05 -0.05 -0.05 -0.05 -0.05 -0.04 -0.05 -0.05 -0.05 -0.05 -0.05 -0.04 -0.05 -0.05 -0.05 -0.05 -0.05 -0.04 l 0.01,-0.05 v -0.05 -0.05 -0.05 -0.05 -0.05 -0.04 -0.05 -0.05 -0.05 l 0.01,-0.05 v -0.05 -0.04 -0.05 -0.05 -0.05 l 0.01,-0.05 v -0.05 -0.04 -0.05 -0.05 l 0.01,-0.05 v -0.05 -0.05 -0.04 -0.05 l 0.01,-0.05 v -0.05 -0.05 -0.05 l 0.01,-0.04 v -0.05 -0.05 l 0.01,-0.05 v -0.05 -0.05 l 0.01,-0.05 v -0.04 -0.05 l 0.01,-0.05 v -0.05 -0.05 l 0.01,-0.05 v -0.04 l 0.01,-0.05 v -0.05 -0.05 l 0.01,-0.05 v -0.05 l 0.01,-0.04 v -0.05 l 0.01,-0.05 v -0.05 l 0.01,-0.05 0.01,-0.05 v -0.04 l 0.01,-0.05 v -0.05 l 0.01,-0.05 0.01,-0.05 v -0.05 l 0.01,-0.04 0.01,-0.05 0.01,-0.05 0.01,-0.05 v -0.05 l 0.01,-0.05 0.01,-0.05 0.01,-0.04 0.01,-0.05 0.01,-0.05 0.01,-0.05 0.01,-0.05 0.02,-0.05 0.01,-0.04 0.01,-0.05 0.01,-0.05 0.02,-0.05 0.01,-0.05 0.01,-0.05 0.02,-0.04 0.01,-0.05 0.02,-0.05 0.02,-0.05 0.01,-0.05 0.02,-0.05 0.02,-0.04 0.02,-0.05 0.01,-0.05 0.02,-0.05 0.02,-0.05 0.02,-0.05 0.03,-0.04 0.02,-0.05 0.02,-0.05 0.02,-0.05 0.03,-0.05 0.02,-0.05 0.02,-0.05 0.03,-0.04 0.02,-0.05 0.03,-0.05 0.03,-0.05 0.02,-0.05 0.03,-0.05 0.03,-0.04 0.03,-0.05 0.03,-0.05 0.03,-0.05 0.03,-0.05 0.03,-0.05 0.03,-0.04 0.03,-0.05 0.04,-0.05 0.03,-0.05 0.03,-0.05 0.04,-0.05 0.03,-0.04 0.04,-0.05 0.04,-0.05 0.03,-0.05 0.04,-0.05 0.04,-0.05 0.04,-0.04 0.03,-0.05 0.04,-0.05 0.04,-0.05 0.04,-0.05 0.04,-0.05 0.04,-0.04 0.04,-0.05 0.04,-0.05 0.05,-0.05 0.04,-0.05 0.04,-0.05 0.04,-0.05 0.05,-0.04 0.04,-0.05 0.05,-0.05 0.04,-0.05 0.04,-0.05 0.05,-0.05 0.05,-0.04 0.04,-0.05 0.05,-0.05 0.04,-0.05 0.05,-0.05 0.05,-0.05 0.04,-0.04 0.05,-0.05 0.05,-0.05 0.05,-0.05 0.05,-0.05 0.05,-0.05 0.04,-0.04 0.05,-0.05 0.05,-0.05 0.05,-0.05 0.05,-0.05 0.05,-0.05 0.05,-0.04 0.05,-0.05 0.05,-0.05 0.05,-0.05 0.05,-0.05 0.04,-0.05 0.05,-0.05 0.05,-0.04 0.05,-0.05 0.05,-0.05 0.05,-0.05 0.04,-0.05 0.05,-0.05 0.05,-0.04 0.05,-0.05 0.04,-0.05 0.05,-0.05 0.04,-0.05 0.05,-0.05 0.04,-0.04 0.05,-0.05 0.04,-0.05 0.04,-0.05 0.04,-0.05 0.04,-0.05 0.05,-0.04 0.04,-0.05 0.04,-0.05 0.03,-0.05 0.04,-0.05 0.04,-0.05 0.04,-0.04 0.03,-0.05 0.04,-0.05 0.03,-0.05 0.03,-0.05 0.04,-0.05 0.03,-0.05 0.03,-0.04 0.03,-0.05 0.03,-0.05 0.03,-0.05 0.02,-0.05 0.03,-0.05 0.03,-0.04 0.02,-0.05 0.03,-0.05 0.02,-0.05 0.02,-0.05 0.02,-0.05 0.03,-0.04 0.02,-0.05 0.01,-0.05 0.02,-0.05 0.02,-0.05 0.02,-0.05 0.01,-0.04 0.02,-0.05 0.01,-0.05 0.01,-0.05 0.01,-0.05 0.01,-0.05 0.01,-0.04 0.01,-0.05 0.01,-0.05 v -0.05 l 0.01,-0.05 v -0.05 -0.05 -0.04 -0.05 -0.05 -0.05 -0.05 l -0.01,-0.05 -0.01,-0.04 v -0.05 l -0.01,-0.05 -0.01,-0.05 -0.01,-0.05 -0.01,-0.05 -0.02,-0.04 -0.01,-0.05 -0.02,-0.05 -0.01,-0.05 -0.02,-0.05 -0.02,-0.05 -0.02,-0.04 -0.02,-0.05 -0.02,-0.05 -0.03,-0.05 -0.02,-0.05 -0.02,-0.05 -0.03,-0.04 -0.03,-0.05 -0.02,-0.05 -0.03,-0.05 -0.03,-0.05 -0.03,-0.05 -0.03,-0.05 -0.03,-0.04 -0.03,-0.05 -0.04,-0.05 -0.03,-0.05 -0.04,-0.05 -0.03,-0.05 -0.04,-0.04 -0.04,-0.05 -0.03,-0.05 -0.04,-0.05 -0.04,-0.05 -0.04,-0.05 -0.04,-0.04 -0.04,-0.05 -0.04,-0.05 -0.05,-0.05 -0.04,-0.05 -0.04,-0.05 -0.04,-0.04 -0.05,-0.05 -0.04,-0.05 -0.05,-0.05 -0.04,-0.05 -0.05,-0.05 -0.04,-0.04 -0.05,-0.05 -0.05,-0.05 -0.04,-0.05 -0.05,-0.05 -0.05,-0.05 -0.04,-0.04 -0.05,-0.05 -0.05,-0.05 -0.04,-0.05 -0.05,-0.05 -0.05,-0.05 -0.05,-0.05 -0.05,-0.04 -0.04,-0.05 -0.05,-0.05 -0.05,-0.05 -0.05,-0.05 -0.05,-0.05 -0.05,-0.04 -0.05,-0.05 -0.04,-0.05 -0.05,-0.05 -0.05,-0.05 -0.05,-0.05 -0.05,-0.04 -0.05,-0.05 -0.05,-0.05 -0.05,-0.05 -0.04,-0.05 -0.05,-0.05 -0.05,-0.04 -0.05,-0.05 -0.05,-0.05 -0.04,-0.05 -0.05,-0.05 -0.05,-0.05 -0.04,-0.04 -0.05,-0.05 -0.04,-0.05 -0.05,-0.05 -0.05,-0.05 -0.04,-0.05 -0.04,-0.05 -0.05,-0.04 -0.04,-0.05 -0.04,-0.05 -0.05,-0.05 -0.04,-0.05 -0.04,-0.05 -0.04,-0.04 -0.04,-0.05 -0.04,-0.05 -0.04,-0.05 -0.03,-0.05 -0.04,-0.05 -0.04,-0.04 -0.03,-0.05 -0.04,-0.05 -0.03,-0.05 -0.04,-0.05 -0.03,-0.05 -0.04,-0.04 -0.03,-0.05 -0.03,-0.05 -0.03,-0.05 -0.03,-0.05 -0.03,-0.05 -0.03,-0.04 -0.03,-0.05 -0.03,-0.05 -0.03,-0.05 -0.02,-0.05 -0.03,-0.05 -0.02,-0.05 -0.03,-0.04 -0.02,-0.05 -0.03,-0.05 -0.02,-0.05 -0.02,-0.05 -0.03,-0.05 -0.02,-0.04 -0.02,-0.05 -0.02,-0.05 -0.02,-0.05 -0.02,-0.05 -0.02,-0.05 -0.01,-0.04 -0.02,-0.05 -0.02,-0.05 -0.01,-0.05 -0.02,-0.05 -0.01,-0.05 -0.02,-0.04 -0.01,-0.05 -0.02,-0.05 -0.01,-0.05 -0.01,-0.05 -0.02,-0.05 -0.01,-0.04 -0.01,-0.05 -0.01,-0.05 -0.01,-0.05 -0.01,-0.05 -0.01,-0.05 -0.01,-0.05 -0.01,-0.04 -0.01,-0.05 -0.01,-0.05 -0.01,-0.05 v -0.05 l -0.01,-0.05 -0.01,-0.04 -0.01,-0.05 v -0.05 l -0.01,-0.05 v -0.05 l -0.01,-0.05 -0.01,-0.04 v -0.05 l -0.01,-0.05 v -0.05 l -0.01,-0.05 v -0.05 -0.04 l -0.01,-0.05 v -0.05 l -0.01,-0.05 v -0.05 -0.05 l -0.01,-0.04 v -0.05 -0.05 l -0.01,-0.05 v -0.05 -0.05 l -0.01,-0.04 v -0.05 -0.05 -0.05 l -0.01,-0.05 v -0.05 -0.05 -0.04 l -0.01,-0.05 v -0.05 -0.05 -0.05 l -0.01,-0.05 v -0.04 -0.05 -0.05 -0.05 L 219,275.43 v -0.05 -0.04 -0.05 -0.05 -0.05 -0.05 l -0.01,-0.05 v -0.04 -0.05 -0.05 -0.05 -0.05 -0.05 -0.04 l -0.01,-0.05 v -0.05 -0.05 -0.05 -0.05 -0.05 -0.04 -0.05 -0.05 -0.05 -0.05 -0.05 -0.04 -0.05 -0.05 -0.05 -0.05 -0.05 -0.04 -0.05 -0.05 -0.05 -0.05 l -0.01,-0.05 v -0.04 -0.05 -0.05 -0.05 -0.05 -0.05 -0.04 -0.05 -0.05 z"
         style="fill:#ffffff;fill-opacity:1;fill-rule:nonzero;stroke:#39b600;stroke-width:2.23426;stroke-linecap:butt;stroke-linejoin:round;stroke-miterlimit:10;stroke-dasharray:none;stroke-opacity:1"
         id="path656"
         clip-path="url(#clipPath1978)"
         transform="matrix(0.49233273,0,0,-0.49233273,-41.028075,233.91713)" />
      <path
         d="m 311.76,252.71 v 0.08 0.09 0.08 0.08 0.08 0.09 0.08 0.08 l -0.01,0.09 v 0.08 0.08 0.08 0.09 0.08 0.08 0.08 0.09 0.08 0.08 0.08 0.09 0.08 0.08 0.08 0.09 0.08 l -0.01,0.08 v 0.09 0.08 0.08 0.08 0.09 0.08 0.08 0.08 0.09 l -0.01,0.08 v 0.08 0.08 0.09 0.08 0.08 0.08 l -0.01,0.09 v 0.08 0.08 0.09 0.08 0.08 l -0.01,0.08 v 0.09 0.08 0.08 0.08 l -0.01,0.09 v 0.08 0.08 0.08 l -0.01,0.09 v 0.08 0.08 l -0.01,0.08 v 0.09 0.08 l -0.01,0.08 v 0.09 0.08 l -0.01,0.08 v 0.08 0.09 l -0.01,0.08 v 0.08 l -0.01,0.08 v 0.09 l -0.01,0.08 v 0.08 l -0.01,0.08 v 0.09 l -0.01,0.08 v 0.08 l -0.01,0.08 v 0.09 l -0.01,0.08 -0.01,0.08 v 0.09 l -0.01,0.08 -0.01,0.08 v 0.08 l -0.01,0.09 -0.01,0.08 -0.01,0.08 v 0.08 l -0.01,0.09 -0.01,0.08 -0.01,0.08 v 0.08 l -0.01,0.09 -0.01,0.08 -0.01,0.08 -0.01,0.08 -0.01,0.09 -0.01,0.08 -0.01,0.08 -0.01,0.09 -0.01,0.08 -0.01,0.08 -0.01,0.08 -0.01,0.09 -0.01,0.08 -0.01,0.08 -0.01,0.08 -0.01,0.09 -0.02,0.08 -0.01,0.08 -0.01,0.08 -0.01,0.09 -0.01,0.08 -0.02,0.08 -0.01,0.09 -0.01,0.08 -0.02,0.08 -0.01,0.08 -0.01,0.09 -0.02,0.08 -0.01,0.08 -0.02,0.08 -0.01,0.09 -0.01,0.08 -0.02,0.08 -0.01,0.08 -0.02,0.09 -0.02,0.08 -0.01,0.08 -0.02,0.08 -0.01,0.09 -0.02,0.08 -0.02,0.08 -0.01,0.09 -0.02,0.08 -0.02,0.08 -0.01,0.08 -0.02,0.09 -0.02,0.08 -0.02,0.08 -0.01,0.08 -0.02,0.09 -0.02,0.08 -0.02,0.08 -0.02,0.08 -0.02,0.09 -0.02,0.08 -0.02,0.08 -0.01,0.08 -0.02,0.09 -0.02,0.08 -0.03,0.08 -0.02,0.09 -0.02,0.08 -0.02,0.08 -0.02,0.08 -0.02,0.09 -0.02,0.08 -0.03,0.08 -0.02,0.08 -0.02,0.09 -0.02,0.08 -0.03,0.08 -0.02,0.08 -0.03,0.09 -0.02,0.08 -0.03,0.08 -0.02,0.08 -0.03,0.09 -0.02,0.08 -0.03,0.08 -0.02,0.09 -0.03,0.08 -0.03,0.08 -0.02,0.08 -0.03,0.09 -0.03,0.08 -0.02,0.08 -0.03,0.08 -0.03,0.09 -0.03,0.08 -0.03,0.08 -0.02,0.08 -0.03,0.09 -0.03,0.08 -0.03,0.08 -0.03,0.08 -0.02,0.09 -0.03,0.08 -0.03,0.08 -0.03,0.09 -0.03,0.08 -0.02,0.08 -0.03,0.08 -0.03,0.09 -0.03,0.08 -0.02,0.08 -0.03,0.08 -0.03,0.09 -0.02,0.08 -0.03,0.08 -0.02,0.08 -0.03,0.09 -0.03,0.08 -0.02,0.08 -0.03,0.08 -0.02,0.09 -0.02,0.08 -0.03,0.08 -0.02,0.09 -0.02,0.08 -0.02,0.08 -0.03,0.08 -0.02,0.09 -0.02,0.08 -0.02,0.08 -0.02,0.08 -0.02,0.09 -0.02,0.08 -0.01,0.08 -0.02,0.08 -0.02,0.09 -0.01,0.08 -0.02,0.08 -0.01,0.08 -0.02,0.09 -0.01,0.08 -0.01,0.08 -0.02,0.09 -0.01,0.08 -0.01,0.08 -0.01,0.08 -0.01,0.09 v 0.08 l -0.01,0.08 -0.01,0.08 v 0.09 l -0.01,0.08 v 0.08 l -0.01,0.08 v 0.09 0.08 0.08 0.09 0.08 0.08 0.08 0.09 l 0.01,0.08 v 0.08 0.08 l 0.01,0.09 v 0.08 l 0.01,0.08 v 0.08 l 0.01,0.09 0.01,0.08 0.01,0.08 0.01,0.08 v 0.09 l 0.01,0.08 0.01,0.08 0.01,0.09 0.01,0.08 0.01,0.08 0.02,0.08 0.01,0.09 0.01,0.08 0.01,0.08 0.01,0.08 0.02,0.09 0.01,0.08 0.02,0.08 0.01,0.08 0.02,0.09 0.01,0.08 0.02,0.08 0.01,0.08 0.02,0.09 0.02,0.08 0.01,0.08 0.02,0.09 0.02,0.08 0.02,0.08 0.02,0.08 0.02,0.09 0.02,0.08 0.02,0.08 0.02,0.08 0.02,0.09 0.02,0.08 0.03,0.08 0.02,0.08 0.02,0.09 0.02,0.08 0.03,0.08 0.02,0.08 0.03,0.09 0.02,0.08 0.03,0.08 0.02,0.09 0.03,0.08 0.02,0.08 0.03,0.08 0.02,0.09 0.03,0.08 0.03,0.08 0.02,0.08 0.03,0.09 0.03,0.08 0.02,0.08 0.03,0.08 0.03,0.09 0.02,0.08 0.03,0.08 0.03,0.08 0.02,0.09 0.03,0.08 0.02,0.08 0.03,0.09 0.03,0.08 0.02,0.08 0.03,0.08 0.02,0.09 0.03,0.08 0.02,0.08 0.03,0.08 0.02,0.09 0.03,0.08 0.02,0.08 0.02,0.08 0.03,0.09 0.02,0.08 0.02,0.08 0.03,0.08 0.02,0.09 0.02,0.08 0.02,0.08 0.03,0.09 0.02,0.08 0.02,0.08 0.02,0.08 0.02,0.09 0.02,0.08 0.03,0.08 0.02,0.08 0.02,0.09 0.02,0.08 0.02,0.08 0.02,0.08 0.02,0.09 0.02,0.08 0.02,0.08 0.02,0.09 0.02,0.08 0.01,0.08 0.02,0.08 0.02,0.09 0.02,0.08 0.02,0.08 0.02,0.08 0.02,0.09 0.01,0.08 0.02,0.08 0.02,0.08 0.02,0.09 0.01,0.08 0.02,0.08 0.02,0.08 0.02,0.09 0.01,0.08 0.02,0.08 0.01,0.09 0.02,0.08 0.02,0.08 0.01,0.08 0.02,0.09 0.01,0.08 0.02,0.08 0.01,0.08 0.02,0.09 0.01,0.08 0.01,0.08 0.02,0.08 0.01,0.09 0.01,0.08 0.02,0.08 0.01,0.08 0.01,0.09 0.01,0.08 0.02,0.08 0.01,0.09 0.01,0.08 0.01,0.08 0.01,0.08 0.01,0.09 0.01,0.08 0.01,0.08 0.01,0.08 0.01,0.09 0.01,0.08 0.01,0.08 0.01,0.08 v 0.09 l 0.01,0.08 0.01,0.08 0.01,0.08 0.01,0.09 v 0.08 l 0.01,0.08 0.01,0.09 v 0.08 l 0.01,0.08 0.01,0.08 v 0.09 l 0.01,0.08 0.01,0.08 v 0.08 l 0.01,0.09 v 0.08 l 0.01,0.08 v 0.08 l 0.01,0.09 v 0.08 0.08 l 0.01,0.08 v 0.09 l 0.01,0.08 v 0.08 0.09 l 0.01,0.08 v 0.08 0.08 l 0.01,0.09 v 0.08 0.08 l 0.01,0.08 v 0.09 0.08 l 0.01,0.08 v 0.08 0.09 0.08 l 0.01,0.08 v 0.08 0.09 0.08 0.08 l 0.01,0.09 v 0.08 0.08 0.08 0.09 l 0.01,0.08 v 0.08 0.08 0.09 0.08 0.08 l 0.01,0.08 v 0.09 0.08 0.08 0.08 0.09 0.08 l 0.01,0.08 v 0.09 0.08 0.08 0.08 0.09 0.08 0.08 l 0.01,0.08 v 0.09 0.08 0.08 0.08 0.09 0.08 0.08 0.09 0.08 0.08 0.08 0.09 0.08 0.08 0.08 l 0.01,0.09 v 0.08 0.08 0.08 0.09 0.08 0.08 0.08 0.09 0.08 0.08 0.09 0.08 0.08 0.08 0.09 0.08 h 0.01 v -0.08 -0.09 -0.08 -0.08 -0.08 -0.09 -0.08 -0.08 -0.09 -0.08 -0.08 -0.08 -0.09 -0.08 -0.08 -0.08 -0.09 -0.08 -0.08 -0.08 -0.09 -0.08 -0.08 -0.08 -0.09 -0.08 l 0.01,-0.08 v -0.09 -0.08 -0.08 -0.08 -0.09 -0.08 -0.08 -0.08 -0.09 -0.08 l 0.01,-0.08 v -0.08 -0.09 -0.08 -0.08 -0.09 -0.08 l 0.01,-0.08 v -0.08 -0.09 -0.08 -0.08 -0.08 l 0.01,-0.09 v -0.08 -0.08 -0.08 -0.09 -0.08 l 0.01,-0.08 v -0.08 -0.09 -0.08 l 0.01,-0.08 v -0.09 -0.08 -0.08 -0.08 l 0.01,-0.09 v -0.08 -0.08 -0.08 l 0.01,-0.09 v -0.08 -0.08 l 0.01,-0.08 v -0.09 -0.08 l 0.01,-0.08 v -0.08 -0.09 l 0.01,-0.08 v -0.08 l 0.01,-0.09 v -0.08 -0.08 L 311.9,288 v -0.09 l 0.01,-0.08 v -0.08 l 0.01,-0.08 v -0.09 l 0.01,-0.08 0.01,-0.08 v -0.08 l 0.01,-0.09 v -0.08 l 0.01,-0.08 0.01,-0.08 v -0.09 l 0.01,-0.08 0.01,-0.08 0.01,-0.09 v -0.08 l 0.01,-0.08 0.01,-0.08 0.01,-0.09 0.01,-0.08 0.01,-0.08 0.01,-0.08 v -0.09 l 0.01,-0.08 0.01,-0.08 0.01,-0.08 0.02,-0.09 0.01,-0.08 0.01,-0.08 0.01,-0.08 0.01,-0.09 0.01,-0.08 0.01,-0.08 0.02,-0.09 0.01,-0.08 0.01,-0.08 0.01,-0.08 0.02,-0.09 0.01,-0.08 0.01,-0.08 0.02,-0.08 0.01,-0.09 0.02,-0.08 0.01,-0.08 0.02,-0.08 0.01,-0.09 0.02,-0.08 0.01,-0.08 0.02,-0.08 0.02,-0.09 0.01,-0.08 0.02,-0.08 0.02,-0.09 0.01,-0.08 0.02,-0.08 0.02,-0.08 0.02,-0.09 0.01,-0.08 0.02,-0.08 0.02,-0.08 0.02,-0.09 0.02,-0.08 0.01,-0.08 0.02,-0.08 0.02,-0.09 0.02,-0.08 0.02,-0.08 0.02,-0.08 0.02,-0.09 0.02,-0.08 0.02,-0.08 0.02,-0.09 0.02,-0.08 0.02,-0.08 0.02,-0.08 0.02,-0.09 0.02,-0.08 0.02,-0.08 0.02,-0.08 0.02,-0.09 0.02,-0.08 0.03,-0.08 0.02,-0.08 0.02,-0.09 0.02,-0.08 0.02,-0.08 0.03,-0.09 0.02,-0.08 0.02,-0.08 0.03,-0.08 0.02,-0.09 0.02,-0.08 0.03,-0.08 0.02,-0.08 0.03,-0.09 0.02,-0.08 0.03,-0.08 0.02,-0.08 0.03,-0.09 0.02,-0.08 0.03,-0.08 0.02,-0.08 0.03,-0.09 0.03,-0.08 0.02,-0.08 0.03,-0.09 0.03,-0.08 0.02,-0.08 0.03,-0.08 0.03,-0.09 0.02,-0.08 0.03,-0.08 0.03,-0.08 0.02,-0.09 0.03,-0.08 0.02,-0.08 0.03,-0.08 0.03,-0.09 0.02,-0.08 0.03,-0.08 0.02,-0.08 0.03,-0.09 0.02,-0.08 0.03,-0.08 0.02,-0.09 0.03,-0.08 0.02,-0.08 0.02,-0.08 0.03,-0.09 0.02,-0.08 0.02,-0.08 0.02,-0.08 0.02,-0.09 0.03,-0.08 0.02,-0.08 0.02,-0.08 0.02,-0.09 0.01,-0.08 0.02,-0.08 0.02,-0.08 0.02,-0.09 0.02,-0.08 0.01,-0.08 0.02,-0.09 0.02,-0.08 0.01,-0.08 0.02,-0.08 0.01,-0.09 0.02,-0.08 0.01,-0.08 0.02,-0.08 0.01,-0.09 0.01,-0.08 0.02,-0.08 0.01,-0.08 0.01,-0.09 0.01,-0.08 0.01,-0.08 0.01,-0.08 0.01,-0.09 0.01,-0.08 0.01,-0.08 0.01,-0.09 0.01,-0.08 0.01,-0.08 v -0.08 l 0.01,-0.09 0.01,-0.08 v -0.08 l 0.01,-0.08 v -0.09 l 0.01,-0.08 v -0.08 -0.08 -0.09 l 0.01,-0.08 v -0.08 -0.08 -0.09 -0.08 l -0.01,-0.08 v -0.09 -0.08 l -0.01,-0.08 v -0.08 l -0.01,-0.09 v -0.08 l -0.01,-0.08 -0.01,-0.08 -0.01,-0.09 -0.01,-0.08 -0.01,-0.08 -0.01,-0.08 -0.01,-0.09 -0.01,-0.08 -0.02,-0.08 -0.01,-0.09 -0.02,-0.08 -0.01,-0.08 -0.02,-0.08 -0.01,-0.09 -0.02,-0.08 -0.02,-0.08 -0.02,-0.08 -0.02,-0.09 -0.02,-0.08 -0.02,-0.08 -0.02,-0.08 -0.02,-0.09 -0.02,-0.08 -0.02,-0.08 -0.03,-0.08 -0.02,-0.09 -0.02,-0.08 -0.03,-0.08 -0.02,-0.09 -0.02,-0.08 -0.03,-0.08 -0.02,-0.08 -0.03,-0.09 -0.03,-0.08 -0.02,-0.08 -0.03,-0.08 -0.03,-0.09 -0.02,-0.08 -0.03,-0.08 -0.03,-0.08 -0.02,-0.09 -0.03,-0.08 -0.03,-0.08 -0.03,-0.08 -0.03,-0.09 -0.02,-0.08 -0.03,-0.08 -0.03,-0.09 -0.03,-0.08 -0.03,-0.08 -0.02,-0.08 -0.03,-0.09 -0.03,-0.08 -0.03,-0.08 -0.03,-0.08 -0.02,-0.09 -0.03,-0.08 -0.03,-0.08 -0.03,-0.08 -0.02,-0.09 -0.03,-0.08 -0.03,-0.08 -0.02,-0.08 -0.03,-0.09 -0.02,-0.08 -0.03,-0.08 -0.02,-0.09 -0.03,-0.08 -0.02,-0.08 -0.03,-0.08 -0.02,-0.09 -0.03,-0.08 -0.02,-0.08 -0.02,-0.08 -0.03,-0.09 -0.02,-0.08 -0.02,-0.08 -0.02,-0.08 -0.03,-0.09 -0.02,-0.08 -0.02,-0.08 -0.02,-0.08 -0.02,-0.09 -0.02,-0.08 -0.02,-0.08 -0.02,-0.09 -0.02,-0.08 -0.02,-0.08 -0.02,-0.08 -0.02,-0.09 -0.02,-0.08 -0.02,-0.08 -0.01,-0.08 -0.02,-0.09 -0.02,-0.08 -0.02,-0.08 -0.01,-0.08 -0.02,-0.09 -0.02,-0.08 -0.02,-0.08 -0.01,-0.08 -0.02,-0.09 -0.02,-0.08 -0.01,-0.08 -0.02,-0.09 -0.01,-0.08 -0.02,-0.08 -0.02,-0.08 -0.01,-0.09 -0.02,-0.08 -0.01,-0.08 -0.02,-0.08 -0.01,-0.09 -0.01,-0.08 -0.02,-0.08 -0.01,-0.08 -0.02,-0.09 -0.01,-0.08 -0.01,-0.08 -0.02,-0.08 -0.01,-0.09 -0.01,-0.08 -0.01,-0.08 -0.02,-0.09 -0.01,-0.08 -0.01,-0.08 -0.01,-0.08 -0.01,-0.09 -0.01,-0.08 -0.02,-0.08 -0.01,-0.08 -0.01,-0.09 -0.01,-0.08 -0.01,-0.08 -0.01,-0.08 -0.01,-0.09 -0.01,-0.08 -0.01,-0.08 -0.01,-0.09 v -0.08 l -0.01,-0.08 -0.01,-0.08 -0.01,-0.09 -0.01,-0.08 -0.01,-0.08 v -0.08 l -0.01,-0.09 -0.01,-0.08 -0.01,-0.08 v -0.08 l -0.01,-0.09 -0.01,-0.08 -0.01,-0.08 v -0.08 l -0.01,-0.09 v -0.08 l -0.01,-0.08 -0.01,-0.09 v -0.08 l -0.01,-0.08 v -0.08 l -0.01,-0.09 v -0.08 l -0.01,-0.08 v -0.08 l -0.01,-0.09 v -0.08 l -0.01,-0.08 v -0.08 -0.09 l -0.01,-0.08 v -0.08 l -0.01,-0.08 V 258.08 258 l -0.01,-0.08 v -0.09 -0.08 l -0.01,-0.08 v -0.08 -0.09 -0.08 l -0.01,-0.08 v -0.08 -0.09 -0.08 l -0.01,-0.08 v -0.08 -0.09 -0.08 -0.08 -0.08 l -0.01,-0.09 v -0.08 -0.08 -0.09 -0.08 -0.08 l -0.01,-0.08 v -0.09 -0.08 -0.08 -0.08 -0.09 -0.08 -0.08 -0.08 l -0.01,-0.09 v -0.08 -0.08 -0.08 -0.09 -0.08 -0.08 -0.09 -0.08 -0.08 -0.08 -0.09 l -0.01,-0.08 v -0.08 -0.08 -0.09 -0.08 -0.08 -0.08 -0.09 -0.08 -0.08 -0.08 -0.09 -0.08 -0.08 -0.09 -0.08 -0.08 -0.08 -0.09 -0.08 z"
         style="fill:#ffffff;fill-opacity:1;fill-rule:nonzero;stroke:#00c0af;stroke-width:2.23426;stroke-linecap:butt;stroke-linejoin:round;stroke-miterlimit:10;stroke-dasharray:none;stroke-opacity:1"
         id="path696"
         clip-path="url(#clipPath1858)"
         transform="matrix(0.49233273,0,0,-0.49233273,-75.716924,235.59563)" />
      <path
         d="m 404.55,246.82 v 0.07 0.06 0.07 0.06 l -0.01,0.07 v 0.06 0.07 0.07 0.06 0.07 0.06 0.07 0.06 0.07 0.06 0.07 0.06 0.07 0.07 0.06 l -0.01,0.07 v 0.06 0.07 0.06 0.07 0.06 0.07 0.06 0.07 l -0.01,0.07 v 0.06 0.07 0.06 0.07 0.06 l -0.01,0.07 v 0.06 0.07 0.06 0.07 l -0.01,0.07 v 0.06 0.07 0.06 0.07 l -0.01,0.06 v 0.07 0.06 l -0.01,0.07 v 0.07 0.06 0.07 l -0.01,0.06 v 0.07 0.06 l -0.01,0.07 v 0.06 0.07 l -0.01,0.06 v 0.07 0.07 l -0.01,0.06 v 0.07 l -0.01,0.06 v 0.07 0.06 l -0.01,0.07 v 0.06 l -0.01,0.07 v 0.06 l -0.01,0.07 v 0.07 l -0.01,0.06 v 0.07 l -0.01,0.06 v 0.07 l -0.01,0.06 v 0.07 l -0.01,0.06 -0.01,0.07 v 0.06 l -0.01,0.07 -0.01,0.07 v 0.06 l -0.01,0.07 -0.01,0.06 -0.01,0.07 v 0.06 l -0.01,0.07 -0.01,0.06 -0.01,0.07 -0.01,0.07 v 0.06 l -0.01,0.07 -0.01,0.06 -0.01,0.07 -0.01,0.06 -0.01,0.07 -0.01,0.06 -0.01,0.07 -0.01,0.06 -0.01,0.07 -0.01,0.07 -0.01,0.06 -0.01,0.07 -0.02,0.06 -0.01,0.07 -0.01,0.06 -0.01,0.07 -0.01,0.06 -0.02,0.07 -0.01,0.06 -0.01,0.07 -0.01,0.07 -0.02,0.06 -0.01,0.07 -0.01,0.06 -0.02,0.07 -0.01,0.06 -0.02,0.07 -0.01,0.06 -0.02,0.07 -0.01,0.07 -0.02,0.06 -0.01,0.07 -0.02,0.06 -0.02,0.07 -0.01,0.06 -0.02,0.07 -0.02,0.06 -0.01,0.07 -0.02,0.06 -0.02,0.07 -0.02,0.07 -0.02,0.06 -0.02,0.07 -0.02,0.06 -0.02,0.07 -0.02,0.06 -0.02,0.07 -0.02,0.06 -0.02,0.07 -0.02,0.06 -0.02,0.07 -0.02,0.07 -0.02,0.06 -0.03,0.07 -0.02,0.06 -0.02,0.07 -0.03,0.06 -0.02,0.07 -0.02,0.06 -0.03,0.07 -0.02,0.06 -0.03,0.07 -0.02,0.07 -0.03,0.06 -0.02,0.07 -0.03,0.06 -0.02,0.07 -0.03,0.06 -0.03,0.07 -0.02,0.06 -0.03,0.07 -0.03,0.07 -0.02,0.06 -0.03,0.07 -0.03,0.06 -0.02,0.07 -0.03,0.06 -0.03,0.07 -0.03,0.06 -0.03,0.07 -0.02,0.06 -0.03,0.07 -0.03,0.07 -0.03,0.06 -0.03,0.07 -0.03,0.06 -0.03,0.07 -0.03,0.06 -0.02,0.07 -0.03,0.06 -0.03,0.07 -0.03,0.06 -0.03,0.07 -0.03,0.07 -0.03,0.06 -0.03,0.07 -0.03,0.06 -0.03,0.07 -0.03,0.06 -0.02,0.07 -0.03,0.06 -0.03,0.07 -0.03,0.06 -0.03,0.07 -0.03,0.07 -0.03,0.06 -0.02,0.07 -0.03,0.06 -0.03,0.07 -0.03,0.06 -0.02,0.07 -0.03,0.06 -0.03,0.07 -0.02,0.07 -0.03,0.06 -0.02,0.07 -0.03,0.06 -0.02,0.07 -0.03,0.06 -0.02,0.07 -0.03,0.06 -0.02,0.07 -0.02,0.06 -0.02,0.07 -0.03,0.07 -0.02,0.06 -0.02,0.07 -0.02,0.06 -0.02,0.07 -0.02,0.06 -0.02,0.07 -0.02,0.06 -0.02,0.07 -0.02,0.06 -0.02,0.07 -0.02,0.07 -0.02,0.06 -0.01,0.07 -0.02,0.06 -0.02,0.07 -0.01,0.06 -0.02,0.07 -0.01,0.06 -0.02,0.07 -0.01,0.07 -0.02,0.06 -0.01,0.07 -0.01,0.06 -0.01,0.07 -0.02,0.06 -0.01,0.07 -0.01,0.06 -0.01,0.07 -0.01,0.06 -0.01,0.07 -0.01,0.07 v 0.06 l -0.01,0.07 -0.01,0.06 -0.01,0.07 v 0.06 l -0.01,0.07 v 0.06 l -0.01,0.07 v 0.06 0.07 l -0.01,0.07 v 0.06 0.07 0.06 0.07 0.06 0.07 0.06 l 0.01,0.07 v 0.06 0.07 l 0.01,0.07 v 0.06 l 0.01,0.07 v 0.06 l 0.01,0.07 0.01,0.06 v 0.07 l 0.01,0.06 0.01,0.07 0.01,0.07 0.01,0.06 0.01,0.07 0.01,0.06 0.02,0.07 0.01,0.06 0.01,0.07 0.02,0.06 0.01,0.07 0.02,0.06 0.01,0.07 0.02,0.07 0.02,0.06 0.02,0.07 0.02,0.06 0.01,0.07 0.02,0.06 0.03,0.07 0.02,0.06 0.02,0.07 0.02,0.06 0.02,0.07 0.03,0.07 0.02,0.06 0.02,0.07 0.03,0.06 0.02,0.07 0.03,0.06 0.03,0.07 0.02,0.06 0.03,0.07 0.03,0.07 0.02,0.06 0.03,0.07 0.03,0.06 0.03,0.07 0.03,0.06 0.03,0.07 0.03,0.06 0.03,0.07 0.03,0.06 0.02,0.07 0.03,0.07 0.03,0.06 0.03,0.07 0.04,0.06 0.03,0.07 0.03,0.06 0.03,0.07 0.03,0.06 0.03,0.07 0.03,0.06 0.03,0.07 0.03,0.07 0.03,0.06 0.03,0.07 0.03,0.06 0.03,0.07 0.03,0.06 0.03,0.07 0.03,0.06 0.03,0.07 0.03,0.06 0.03,0.07 0.03,0.07 0.03,0.06 0.03,0.07 0.03,0.06 0.03,0.07 0.03,0.06 0.03,0.07 0.02,0.06 0.03,0.07 0.03,0.07 0.03,0.06 0.03,0.07 0.02,0.06 0.03,0.07 0.03,0.06 0.02,0.07 0.03,0.06 0.03,0.07 0.02,0.06 0.03,0.07 0.02,0.07 0.03,0.06 0.02,0.07 0.03,0.06 0.02,0.07 0.03,0.06 0.02,0.07 0.03,0.06 0.02,0.07 0.02,0.06 0.03,0.07 0.02,0.07 0.02,0.06 0.02,0.07 0.02,0.06 0.03,0.07 0.02,0.06 0.02,0.07 0.02,0.06 0.02,0.07 0.02,0.06 0.02,0.07 0.02,0.07 0.02,0.06 0.02,0.07 0.01,0.06 0.02,0.07 0.02,0.06 0.02,0.07 0.02,0.06 0.01,0.07 0.02,0.07 0.02,0.06 0.01,0.07 0.02,0.06 0.01,0.07 0.02,0.06 0.01,0.07 0.02,0.06 0.01,0.07 0.02,0.06 0.01,0.07 0.02,0.07 0.01,0.06 0.01,0.07 0.02,0.06 0.01,0.07 0.01,0.06 0.01,0.07 0.02,0.06 0.01,0.07 0.01,0.06 0.01,0.07 0.01,0.07 0.01,0.06 0.01,0.07 0.01,0.06 0.01,0.07 0.01,0.06 0.01,0.07 0.01,0.06 0.01,0.07 0.01,0.07 0.01,0.06 0.01,0.07 0.01,0.06 0.01,0.07 v 0.06 l 0.01,0.07 0.01,0.06 0.01,0.07 0.01,0.06 v 0.07 l 0.01,0.07 0.01,0.06 v 0.07 l 0.01,0.06 0.01,0.07 v 0.06 l 0.01,0.07 0.01,0.06 v 0.07 l 0.01,0.06 v 0.07 l 0.01,0.07 v 0.06 l 0.01,0.07 v 0.06 l 0.01,0.07 v 0.06 0.07 l 0.01,0.06 v 0.07 l 0.01,0.06 v 0.07 0.07 l 0.01,0.06 v 0.07 0.06 l 0.01,0.07 v 0.06 0.07 0.06 l 0.01,0.07 v 0.07 0.06 0.07 l 0.01,0.06 v 0.07 0.06 0.07 0.06 0.07 l 0.01,0.06 v 0.07 0.07 0.06 0.07 0.06 0.07 l 0.01,0.06 v 0.07 0.06 0.07 0.06 0.07 0.07 0.06 0.07 0.06 0.07 l 0.01,0.06 v 0.07 0.06 0.07 0.07 0.06 0.07 0.06 0.07 0.06 0.07 0.06 0.07 0.06 l 0.01,0.07 v 0.07 0.06 h 0.03 v -0.06 -0.07 -0.07 -0.06 -0.07 -0.06 -0.07 l 0.01,-0.06 v -0.07 -0.06 -0.07 -0.06 -0.07 -0.07 -0.06 -0.07 -0.06 -0.07 -0.06 -0.07 l 0.01,-0.06 v -0.07 -0.07 -0.06 -0.07 -0.06 -0.07 -0.06 -0.07 l 0.01,-0.06 v -0.07 -0.06 -0.07 -0.07 -0.06 -0.07 l 0.01,-0.06 v -0.07 -0.06 -0.07 -0.06 l 0.01,-0.07 v -0.06 -0.07 -0.07 l 0.01,-0.06 v -0.07 -0.06 -0.07 l 0.01,-0.06 v -0.07 -0.06 l 0.01,-0.07 v -0.07 -0.06 l 0.01,-0.07 v -0.06 l 0.01,-0.07 v -0.06 -0.07 l 0.01,-0.06 v -0.07 l 0.01,-0.06 v -0.07 l 0.01,-0.07 0.01,-0.06 v -0.07 l 0.01,-0.06 v -0.07 l 0.01,-0.06 0.01,-0.07 v -0.06 l 0.01,-0.07 0.01,-0.06 v -0.07 l 0.01,-0.07 0.01,-0.06 0.01,-0.07 v -0.06 l 0.01,-0.07 0.01,-0.06 0.01,-0.07 0.01,-0.06 0.01,-0.07 0.01,-0.06 v -0.07 l 0.01,-0.07 0.01,-0.06 0.01,-0.07 0.01,-0.06 0.01,-0.07 0.01,-0.06 0.01,-0.07 0.02,-0.06 0.01,-0.07 0.01,-0.07 0.01,-0.06 0.01,-0.07 0.01,-0.06 0.02,-0.07 0.01,-0.06 0.01,-0.07 0.01,-0.06 0.02,-0.07 0.01,-0.06 0.01,-0.07 0.02,-0.07 0.01,-0.06 0.02,-0.07 0.01,-0.06 0.02,-0.07 0.01,-0.06 0.02,-0.07 0.01,-0.06 0.02,-0.07 0.02,-0.06 0.01,-0.07 0.02,-0.07 0.02,-0.06 0.02,-0.07 0.01,-0.06 0.02,-0.07 0.02,-0.06 0.02,-0.07 0.02,-0.06 0.02,-0.07 0.02,-0.07 0.02,-0.06 0.02,-0.07 0.02,-0.06 0.02,-0.07 0.02,-0.06 0.02,-0.07 0.02,-0.06 0.03,-0.07 0.02,-0.06 0.02,-0.07 0.02,-0.07 0.03,-0.06 0.02,-0.07 0.02,-0.06 0.03,-0.07 0.02,-0.06 0.03,-0.07 0.02,-0.06 0.03,-0.07 0.02,-0.06 0.03,-0.07 0.02,-0.07 0.03,-0.06 0.03,-0.07 0.02,-0.06 0.03,-0.07 0.03,-0.06 0.02,-0.07 0.03,-0.06 0.03,-0.07 0.03,-0.06 0.02,-0.07 0.03,-0.07 0.03,-0.06 0.03,-0.07 0.03,-0.06 0.03,-0.07 0.03,-0.06 0.03,-0.07 0.03,-0.06 0.03,-0.07 0.03,-0.07 0.03,-0.06 0.03,-0.07 0.03,-0.06 0.03,-0.07 0.03,-0.06 0.03,-0.07 0.03,-0.06 0.03,-0.07 0.03,-0.06 0.03,-0.07 0.03,-0.07 0.03,-0.06 0.03,-0.07 0.03,-0.06 0.03,-0.07 0.03,-0.06 0.03,-0.07 0.03,-0.06 0.03,-0.07 0.03,-0.06 0.03,-0.07 0.03,-0.07 0.03,-0.06 0.03,-0.07 0.03,-0.06 0.03,-0.07 0.03,-0.06 0.03,-0.07 0.02,-0.06 0.03,-0.07 0.03,-0.06 0.03,-0.07 0.02,-0.07 0.03,-0.06 0.03,-0.07 0.02,-0.06 0.03,-0.07 0.02,-0.06 0.03,-0.07 0.02,-0.06 0.02,-0.07 0.03,-0.07 0.02,-0.06 0.02,-0.07 0.02,-0.06 0.02,-0.07 0.02,-0.06 0.02,-0.07 0.02,-0.06 0.02,-0.07 0.02,-0.06 0.01,-0.07 0.02,-0.07 0.01,-0.06 0.02,-0.07 0.01,-0.06 0.02,-0.07 0.01,-0.06 0.01,-0.07 0.01,-0.06 0.02,-0.07 0.01,-0.06 0.01,-0.07 v -0.07 l 0.01,-0.06 0.01,-0.07 0.01,-0.06 v -0.07 l 0.01,-0.06 0.01,-0.07 v -0.06 -0.07 l 0.01,-0.07 v -0.06 -0.07 -0.06 l 0.01,-0.07 v -0.06 -0.07 -0.06 l -0.01,-0.07 v -0.06 -0.07 -0.07 l -0.01,-0.06 v -0.07 l -0.01,-0.06 v -0.07 l -0.01,-0.06 v -0.07 l -0.01,-0.06 -0.01,-0.07 -0.01,-0.06 -0.01,-0.07 v -0.07 l -0.01,-0.06 -0.01,-0.07 -0.02,-0.06 -0.01,-0.07 -0.01,-0.06 -0.01,-0.07 -0.01,-0.06 -0.02,-0.07 -0.01,-0.06 -0.02,-0.07 -0.01,-0.07 -0.02,-0.06 -0.01,-0.07 -0.02,-0.06 -0.01,-0.07 -0.02,-0.06 -0.02,-0.07 -0.02,-0.06 -0.01,-0.07 -0.02,-0.07 -0.02,-0.06 -0.02,-0.07 -0.02,-0.06 -0.02,-0.07 -0.02,-0.06 -0.02,-0.07 -0.02,-0.06 -0.02,-0.07 -0.03,-0.06 -0.02,-0.07 -0.02,-0.07 -0.02,-0.06 -0.03,-0.07 -0.02,-0.06 -0.03,-0.07 -0.02,-0.06 -0.02,-0.07 -0.03,-0.06 -0.03,-0.07 -0.02,-0.06 -0.03,-0.07 -0.02,-0.07 -0.03,-0.06 -0.03,-0.07 -0.02,-0.06 -0.03,-0.07 -0.03,-0.06 -0.03,-0.07 -0.03,-0.06 -0.02,-0.07 -0.03,-0.07 -0.03,-0.06 -0.03,-0.07 -0.03,-0.06 -0.03,-0.07 -0.03,-0.06 -0.03,-0.07 -0.02,-0.06 -0.03,-0.07 -0.03,-0.06 -0.03,-0.07 -0.03,-0.07 -0.03,-0.06 -0.03,-0.07 -0.03,-0.06 -0.03,-0.07 -0.03,-0.06 -0.03,-0.07 -0.02,-0.06 -0.03,-0.07 -0.03,-0.06 -0.03,-0.07 -0.03,-0.07 -0.03,-0.06 -0.03,-0.07 -0.02,-0.06 -0.03,-0.07 -0.03,-0.06 -0.03,-0.07 -0.02,-0.06 -0.03,-0.07 -0.03,-0.06 -0.02,-0.07 -0.03,-0.07 -0.03,-0.06 -0.02,-0.07 -0.03,-0.06 -0.03,-0.07 -0.02,-0.06 -0.03,-0.07 -0.02,-0.06 -0.03,-0.07 -0.02,-0.07 -0.03,-0.06 -0.02,-0.07 -0.02,-0.06 -0.03,-0.07 -0.02,-0.06 -0.02,-0.07 -0.03,-0.06 -0.02,-0.07 -0.02,-0.06 -0.02,-0.07 -0.02,-0.07 -0.03,-0.06 -0.02,-0.07 -0.02,-0.06 -0.02,-0.07 -0.02,-0.06 -0.02,-0.07 -0.02,-0.06 -0.02,-0.07 -0.01,-0.06 -0.02,-0.07 -0.02,-0.07 -0.02,-0.06 -0.02,-0.07 -0.01,-0.06 -0.02,-0.07 -0.02,-0.06 -0.01,-0.07 -0.02,-0.06 -0.02,-0.07 -0.01,-0.06 -0.02,-0.07 -0.01,-0.07 -0.02,-0.06 -0.01,-0.07 -0.01,-0.06 -0.02,-0.07 -0.01,-0.06 -0.02,-0.07 -0.01,-0.06 -0.01,-0.07 -0.01,-0.07 -0.02,-0.06 -0.01,-0.07 -0.01,-0.06 -0.01,-0.07 -0.02,-0.06 -0.01,-0.07 -0.01,-0.06 -0.01,-0.07 -0.01,-0.06 -0.01,-0.07 -0.01,-0.07 -0.01,-0.06 -0.01,-0.07 -0.01,-0.06 -0.01,-0.07 -0.01,-0.06 -0.01,-0.07 -0.01,-0.06 -0.01,-0.07 -0.01,-0.06 -0.01,-0.07 v -0.07 l -0.01,-0.06 -0.01,-0.07 -0.01,-0.06 -0.01,-0.07 v -0.06 l -0.01,-0.07 -0.01,-0.06 v -0.07 l -0.01,-0.07 -0.01,-0.06 v -0.07 l -0.01,-0.06 v -0.07 l -0.01,-0.06 -0.01,-0.07 v -0.06 l -0.01,-0.07 v -0.06 l -0.01,-0.07 v -0.07 l -0.01,-0.06 v -0.07 l -0.01,-0.06 v -0.07 -0.06 l -0.01,-0.07 v -0.06 l -0.01,-0.07 v -0.06 -0.07 l -0.01,-0.07 v -0.06 -0.07 l -0.01,-0.06 v -0.07 -0.06 l -0.01,-0.07 v -0.06 -0.07 l -0.01,-0.06 v -0.07 -0.07 -0.06 l -0.01,-0.07 v -0.06 -0.07 -0.06 l -0.01,-0.07 v -0.06 -0.07 -0.07 -0.06 l -0.01,-0.07 v -0.06 -0.07 -0.06 -0.07 -0.06 l -0.01,-0.07 v -0.06 -0.07 -0.07 -0.06 -0.07 -0.06 -0.07 l -0.01,-0.06 v -0.07 -0.06 -0.07 -0.06 -0.07 -0.07 -0.06 -0.07 -0.06 -0.07 -0.06 l -0.01,-0.07 v -0.06 -0.07 -0.06 -0.07 -0.07 -0.06 -0.07 -0.06 -0.07 -0.06 -0.07 z"
         style="fill:#ffffff;fill-opacity:1;fill-rule:nonzero;stroke:#00a7ff;stroke-width:2.23426;stroke-linecap:butt;stroke-linejoin:round;stroke-miterlimit:10;stroke-dasharray:none;stroke-opacity:1"
         id="path736"
         clip-path="url(#clipPath1738)"
         transform="matrix(0.49233273,0,0,-0.49233273,-111.52476,226.27067)" />
      <path
         d="m 515.89,231.17 v 0.05 0.05 0.05 0.05 0.05 0.05 0.05 0.05 0.05 0.05 0.05 0.05 0.06 0.05 0.05 0.05 0.05 l -0.01,0.05 v 0.05 0.05 0.05 0.05 0.05 0.05 0.05 0.05 0.05 0.05 l -0.01,0.06 v 0.05 0.05 0.05 0.05 0.05 0.05 l -0.01,0.05 v 0.05 0.05 0.05 0.05 l -0.01,0.05 v 0.05 0.05 0.05 l -0.01,0.06 v 0.05 0.05 l -0.01,0.05 v 0.05 0.05 l -0.01,0.05 v 0.05 0.05 l -0.01,0.05 v 0.05 0.05 l -0.01,0.05 v 0.05 l -0.01,0.05 v 0.05 0.06 l -0.01,0.05 v 0.05 l -0.01,0.05 v 0.05 l -0.01,0.05 v 0.05 l -0.01,0.05 v 0.05 l -0.01,0.05 -0.01,0.05 v 0.05 l -0.01,0.05 v 0.05 l -0.01,0.05 -0.01,0.05 v 0.06 l -0.01,0.05 -0.01,0.05 v 0.05 l -0.01,0.05 -0.01,0.05 -0.01,0.05 -0.01,0.05 v 0.05 l -0.01,0.05 -0.01,0.05 -0.01,0.05 -0.01,0.05 -0.01,0.05 -0.01,0.05 -0.01,0.05 -0.01,0.06 -0.01,0.05 -0.01,0.05 -0.02,0.05 -0.01,0.05 -0.01,0.05 -0.01,0.05 -0.02,0.05 -0.01,0.05 -0.01,0.05 -0.02,0.05 -0.01,0.05 -0.02,0.05 -0.01,0.05 -0.02,0.05 -0.02,0.05 -0.01,0.06 -0.02,0.05 -0.02,0.05 -0.02,0.05 -0.01,0.05 -0.02,0.05 -0.02,0.05 -0.02,0.05 -0.02,0.05 -0.02,0.05 -0.02,0.05 -0.02,0.05 -0.02,0.05 -0.03,0.05 -0.02,0.05 -0.02,0.06 -0.02,0.05 -0.03,0.05 -0.02,0.05 -0.02,0.05 -0.03,0.05 -0.02,0.05 -0.03,0.05 -0.02,0.05 -0.03,0.05 -0.02,0.05 -0.03,0.05 -0.03,0.05 -0.03,0.05 -0.02,0.05 -0.03,0.05 -0.03,0.06 -0.03,0.05 -0.03,0.05 -0.03,0.05 -0.03,0.05 -0.03,0.05 -0.04,0.05 -0.03,0.05 -0.03,0.05 -0.04,0.05 -0.03,0.05 -0.04,0.05 -0.03,0.05 -0.04,0.05 -0.03,0.05 -0.04,0.05 -0.04,0.06 -0.04,0.05 -0.04,0.05 -0.03,0.05 -0.04,0.05 -0.04,0.05 -0.04,0.05 -0.05,0.05 -0.04,0.05 -0.04,0.05 -0.04,0.05 -0.04,0.05 -0.05,0.05 -0.04,0.05 -0.04,0.05 -0.05,0.05 -0.04,0.06 -0.05,0.05 -0.04,0.05 -0.04,0.05 -0.05,0.05 -0.04,0.05 -0.05,0.05 -0.04,0.05 -0.05,0.05 -0.04,0.05 -0.04,0.05 -0.05,0.05 -0.04,0.05 -0.05,0.05 -0.04,0.05 -0.04,0.05 -0.05,0.06 -0.04,0.05 -0.04,0.05 -0.04,0.05 -0.04,0.05 -0.04,0.05 -0.04,0.05 -0.04,0.05 -0.04,0.05 -0.04,0.05 -0.04,0.05 -0.04,0.05 -0.04,0.05 -0.03,0.05 -0.04,0.05 -0.03,0.05 -0.04,0.06 -0.04,0.05 -0.03,0.05 -0.03,0.05 -0.04,0.05 -0.03,0.05 -0.03,0.05 -0.03,0.05 -0.04,0.05 -0.03,0.05 -0.03,0.05 -0.03,0.05 -0.03,0.05 -0.03,0.05 -0.03,0.05 -0.02,0.05 -0.03,0.06 -0.03,0.05 -0.03,0.05 -0.02,0.05 -0.03,0.05 -0.02,0.05 -0.03,0.05 -0.02,0.05 -0.02,0.05 -0.03,0.05 -0.02,0.05 -0.02,0.05 -0.02,0.05 -0.02,0.05 -0.02,0.05 -0.02,0.05 -0.01,0.06 -0.02,0.05 -0.02,0.05 -0.01,0.05 -0.01,0.05 -0.02,0.05 -0.01,0.05 -0.01,0.05 -0.01,0.05 -0.01,0.05 -0.01,0.05 -0.01,0.05 v 0.05 l -0.01,0.05 -0.01,0.05 v 0.06 0.05 0.05 l -0.01,0.05 v 0.05 0.05 l 0.01,0.05 v 0.05 0.05 l 0.01,0.05 v 0.05 l 0.01,0.05 v 0.05 l 0.01,0.05 0.01,0.05 0.01,0.05 0.01,0.06 0.01,0.05 0.01,0.05 0.01,0.05 0.02,0.05 0.01,0.05 0.02,0.05 0.01,0.05 0.02,0.05 0.01,0.05 0.02,0.05 0.02,0.05 0.02,0.05 0.02,0.05 0.02,0.05 0.02,0.05 0.02,0.06 0.02,0.05 0.03,0.05 0.02,0.05 0.02,0.05 0.03,0.05 0.03,0.05 0.02,0.05 0.03,0.05 0.03,0.05 0.03,0.05 0.03,0.05 0.03,0.05 0.03,0.05 0.03,0.05 0.03,0.05 0.04,0.06 0.03,0.05 0.04,0.05 0.03,0.05 0.04,0.05 0.03,0.05 0.04,0.05 0.04,0.05 0.04,0.05 0.04,0.05 0.04,0.05 0.04,0.05 0.04,0.05 0.05,0.05 0.04,0.05 0.04,0.05 0.04,0.06 0.05,0.05 0.04,0.05 0.05,0.05 0.04,0.05 0.05,0.05 0.04,0.05 0.05,0.05 0.04,0.05 0.05,0.05 0.05,0.05 0.04,0.05 0.05,0.05 0.04,0.05 0.05,0.05 0.04,0.05 0.05,0.06 0.04,0.05 0.05,0.05 0.04,0.05 0.04,0.05 0.05,0.05 0.04,0.05 0.04,0.05 0.05,0.05 0.04,0.05 0.04,0.05 0.04,0.05 0.04,0.05 0.04,0.05 0.04,0.05 0.04,0.05 0.04,0.06 0.04,0.05 0.04,0.05 0.03,0.05 0.04,0.05 0.04,0.05 0.03,0.05 0.04,0.05 0.03,0.05 0.04,0.05 0.03,0.05 0.03,0.05 0.04,0.05 0.03,0.05 0.03,0.05 0.03,0.05 0.04,0.06 0.03,0.05 0.03,0.05 0.03,0.05 0.03,0.05 0.03,0.05 0.03,0.05 0.03,0.05 0.03,0.05 0.02,0.05 0.03,0.05 0.03,0.05 0.03,0.05 0.03,0.05 0.02,0.05 0.03,0.05 0.02,0.06 0.03,0.05 0.03,0.05 0.02,0.05 0.03,0.05 0.02,0.05 0.02,0.05 0.03,0.05 0.02,0.05 0.02,0.05 0.03,0.05 0.02,0.05 0.02,0.05 0.02,0.05 0.02,0.05 0.02,0.06 0.02,0.05 0.02,0.05 0.02,0.05 0.02,0.05 0.02,0.05 0.01,0.05 0.02,0.05 0.02,0.05 0.01,0.05 0.02,0.05 0.01,0.05 0.02,0.05 0.01,0.05 0.02,0.05 0.01,0.05 0.02,0.06 0.01,0.05 0.01,0.05 0.01,0.05 0.01,0.05 0.02,0.05 0.01,0.05 0.01,0.05 0.01,0.05 0.01,0.05 0.01,0.05 0.01,0.05 0.01,0.05 v 0.05 l 0.01,0.05 0.01,0.05 0.01,0.06 0.01,0.05 v 0.05 l 0.01,0.05 0.01,0.05 v 0.05 l 0.01,0.05 0.01,0.05 v 0.05 l 0.01,0.05 0.01,0.05 v 0.05 l 0.01,0.05 v 0.05 l 0.01,0.05 v 0.05 l 0.01,0.06 v 0.05 l 0.01,0.05 v 0.05 l 0.01,0.05 v 0.05 0.05 l 0.01,0.05 v 0.05 0.05 l 0.01,0.05 v 0.05 0.05 l 0.01,0.05 v 0.05 0.05 l 0.01,0.06 v 0.05 0.05 l 0.01,0.05 v 0.05 0.05 0.05 0.05 l 0.01,0.05 v 0.05 0.05 0.05 l 0.01,0.05 v 0.05 0.05 0.05 0.06 0.05 l 0.01,0.05 v 0.05 0.05 0.05 0.05 0.05 l 0.01,0.05 v 0.05 0.05 0.05 0.05 0.05 0.05 0.05 l 0.01,0.06 v 0.05 0.05 0.05 0.05 0.05 0.05 0.05 0.05 0.05 l 0.01,0.05 v 0.05 0.05 0.05 0.05 0.05 0.06 0.05 0.05 0.05 0.05 0.05 h 0.02 v -0.05 -0.05 -0.05 l 0.01,-0.05 v -0.05 -0.06 -0.05 -0.05 -0.05 -0.05 -0.05 -0.05 -0.05 -0.05 -0.05 -0.05 l 0.01,-0.05 v -0.05 -0.05 -0.05 -0.05 -0.06 -0.05 -0.05 -0.05 l 0.01,-0.05 v -0.05 -0.05 -0.05 -0.05 -0.05 -0.05 l 0.01,-0.05 v -0.05 -0.05 -0.05 -0.05 -0.06 l 0.01,-0.05 v -0.05 -0.05 -0.05 -0.05 l 0.01,-0.05 v -0.05 -0.05 -0.05 l 0.01,-0.05 v -0.05 -0.05 -0.05 l 0.01,-0.05 v -0.05 -0.06 -0.05 L 516,254.2 v -0.05 -0.05 l 0.01,-0.05 V 254 253.95 l 0.01,-0.05 v -0.05 l 0.01,-0.05 v -0.05 -0.05 l 0.01,-0.05 v -0.05 l 0.01,-0.05 v -0.06 l 0.01,-0.05 v -0.05 l 0.01,-0.05 v -0.05 l 0.01,-0.05 0.01,-0.05 v -0.05 l 0.01,-0.05 v -0.05 l 0.01,-0.05 0.01,-0.05 v -0.05 l 0.01,-0.05 0.01,-0.05 0.01,-0.05 v -0.06 l 0.01,-0.05 0.01,-0.05 0.01,-0.05 0.01,-0.05 0.01,-0.05 0.01,-0.05 0.01,-0.05 0.01,-0.05 0.01,-0.05 0.01,-0.05 0.01,-0.05 0.01,-0.05 0.01,-0.05 0.02,-0.05 0.01,-0.05 0.01,-0.06 0.02,-0.05 0.01,-0.05 0.02,-0.05 0.01,-0.05 0.02,-0.05 0.01,-0.05 0.02,-0.05 0.01,-0.05 0.02,-0.05 0.02,-0.05 0.02,-0.05 0.02,-0.05 0.01,-0.05 0.02,-0.05 0.02,-0.05 0.02,-0.06 0.03,-0.05 0.02,-0.05 0.02,-0.05 0.02,-0.05 0.02,-0.05 0.02,-0.05 0.03,-0.05 0.02,-0.05 0.03,-0.05 0.02,-0.05 0.02,-0.05 0.03,-0.05 0.02,-0.05 0.03,-0.05 0.03,-0.06 0.02,-0.05 0.03,-0.05 0.03,-0.05 0.02,-0.05 0.03,-0.05 0.03,-0.05 0.03,-0.05 0.03,-0.05 0.03,-0.05 0.03,-0.05 0.03,-0.05 0.03,-0.05 0.03,-0.05 0.03,-0.05 0.03,-0.05 0.03,-0.06 0.03,-0.05 0.04,-0.05 0.03,-0.05 0.03,-0.05 0.03,-0.05 0.04,-0.05 0.03,-0.05 0.04,-0.05 0.03,-0.05 0.04,-0.05 0.04,-0.05 0.03,-0.05 0.04,-0.05 0.04,-0.05 0.04,-0.05 0.03,-0.06 0.04,-0.05 0.04,-0.05 0.04,-0.05 0.04,-0.05 0.05,-0.05 0.04,-0.05 0.04,-0.05 0.04,-0.05 0.04,-0.05 0.05,-0.05 0.04,-0.05 0.04,-0.05 0.05,-0.05 0.04,-0.05 0.05,-0.05 0.04,-0.06 0.05,-0.05 0.04,-0.05 0.05,-0.05 0.04,-0.05 0.05,-0.05 0.05,-0.05 0.04,-0.05 0.05,-0.05 0.04,-0.05 0.05,-0.05 0.04,-0.05 0.05,-0.05 0.04,-0.05 0.05,-0.05 0.04,-0.05 0.04,-0.06 0.05,-0.05 0.04,-0.05 0.04,-0.05 0.04,-0.05 0.04,-0.05 0.05,-0.05 0.03,-0.05 0.04,-0.05 0.04,-0.05 0.04,-0.05 0.04,-0.05 0.03,-0.05 0.04,-0.05 0.03,-0.05 0.04,-0.05 0.03,-0.06 0.04,-0.05 0.03,-0.05 0.03,-0.05 0.03,-0.05 0.03,-0.05 0.03,-0.05 0.03,-0.05 0.02,-0.05 0.03,-0.05 0.03,-0.05 0.02,-0.05 0.03,-0.05 0.02,-0.05 0.02,-0.05 0.02,-0.05 0.03,-0.06 0.02,-0.05 0.02,-0.05 0.02,-0.05 0.02,-0.05 0.01,-0.05 0.02,-0.05 0.02,-0.05 0.01,-0.05 0.02,-0.05 0.01,-0.05 0.02,-0.05 0.01,-0.05 0.01,-0.05 0.02,-0.05 0.01,-0.05 0.01,-0.06 0.01,-0.05 v -0.05 l 0.01,-0.05 0.01,-0.05 v -0.05 l 0.01,-0.05 v -0.05 l 0.01,-0.05 v -0.05 -0.05 -0.05 -0.05 -0.05 -0.05 l -0.01,-0.05 v -0.06 -0.05 l -0.01,-0.05 -0.01,-0.05 v -0.05 l -0.01,-0.05 -0.01,-0.05 -0.01,-0.05 -0.01,-0.05 -0.02,-0.05 -0.01,-0.05 -0.01,-0.05 -0.02,-0.05 -0.02,-0.05 -0.01,-0.05 -0.02,-0.06 -0.02,-0.05 -0.02,-0.05 -0.02,-0.05 -0.02,-0.05 -0.02,-0.05 -0.02,-0.05 -0.02,-0.05 -0.02,-0.05 -0.03,-0.05 -0.02,-0.05 -0.03,-0.05 -0.02,-0.05 -0.03,-0.05 -0.03,-0.05 -0.02,-0.05 -0.03,-0.06 -0.03,-0.05 -0.03,-0.05 -0.03,-0.05 -0.03,-0.05 -0.03,-0.05 -0.03,-0.05 -0.03,-0.05 -0.03,-0.05 -0.03,-0.05 -0.03,-0.05 -0.04,-0.05 -0.03,-0.05 -0.03,-0.05 -0.04,-0.05 -0.03,-0.05 -0.04,-0.06 -0.04,-0.05 -0.03,-0.05 -0.04,-0.05 -0.04,-0.05 -0.03,-0.05 -0.04,-0.05 -0.04,-0.05 -0.04,-0.05 -0.04,-0.05 -0.04,-0.05 -0.04,-0.05 -0.04,-0.05 -0.05,-0.05 -0.04,-0.05 -0.04,-0.05 -0.04,-0.06 -0.05,-0.05 -0.04,-0.05 -0.04,-0.05 -0.05,-0.05 -0.04,-0.05 -0.04,-0.05 -0.05,-0.05 -0.04,-0.05 -0.05,-0.05 -0.04,-0.05 -0.05,-0.05 -0.04,-0.05 -0.04,-0.05 -0.05,-0.05 -0.04,-0.05 -0.05,-0.06 -0.04,-0.05 -0.04,-0.05 -0.05,-0.05 -0.04,-0.05 -0.04,-0.05 -0.05,-0.05 -0.04,-0.05 -0.04,-0.05 -0.04,-0.05 -0.04,-0.05 -0.04,-0.05 -0.04,-0.05 -0.04,-0.05 -0.04,-0.05 -0.04,-0.05 -0.03,-0.06 -0.04,-0.05 -0.04,-0.05 -0.03,-0.05 -0.04,-0.05 -0.03,-0.05 -0.04,-0.05 -0.03,-0.05 -0.04,-0.05 -0.03,-0.05 -0.03,-0.05 -0.03,-0.05 -0.03,-0.05 -0.03,-0.05 -0.03,-0.05 -0.03,-0.05 -0.03,-0.06 -0.03,-0.05 -0.03,-0.05 -0.03,-0.05 -0.02,-0.05 -0.03,-0.05 -0.03,-0.05 -0.02,-0.05 -0.03,-0.05 -0.02,-0.05 -0.03,-0.05 -0.02,-0.05 -0.03,-0.05 -0.02,-0.05 -0.02,-0.05 -0.03,-0.05 -0.02,-0.06 -0.02,-0.05 -0.02,-0.05 -0.02,-0.05 -0.02,-0.05 -0.02,-0.05 -0.02,-0.05 -0.02,-0.05 -0.02,-0.05 -0.02,-0.05 -0.02,-0.05 -0.02,-0.05 -0.02,-0.05 -0.01,-0.05 -0.02,-0.05 -0.02,-0.06 -0.01,-0.05 -0.02,-0.05 -0.02,-0.05 -0.01,-0.05 -0.02,-0.05 -0.01,-0.05 -0.01,-0.05 -0.02,-0.05 -0.01,-0.05 -0.01,-0.05 -0.02,-0.05 -0.01,-0.05 -0.01,-0.05 -0.01,-0.05 -0.01,-0.05 -0.01,-0.06 -0.01,-0.05 -0.01,-0.05 -0.01,-0.05 -0.01,-0.05 -0.01,-0.05 -0.01,-0.05 -0.01,-0.05 -0.01,-0.05 -0.01,-0.05 v -0.05 l -0.01,-0.05 -0.01,-0.05 -0.01,-0.05 v -0.05 l -0.01,-0.05 -0.01,-0.06 v -0.05 l -0.01,-0.05 -0.01,-0.05 v -0.05 l -0.01,-0.05 v -0.05 l -0.01,-0.05 -0.01,-0.05 v -0.05 l -0.01,-0.05 v -0.05 l -0.01,-0.05 v -0.05 l -0.01,-0.05 v -0.05 -0.06 l -0.01,-0.05 V 234.1 L 516,234.05 V 234 233.95 l -0.01,-0.05 v -0.05 l -0.01,-0.05 v -0.05 -0.05 l -0.01,-0.05 v -0.05 -0.05 -0.05 l -0.01,-0.05 v -0.06 -0.05 l -0.01,-0.05 v -0.05 -0.05 -0.05 -0.05 l -0.01,-0.05 v -0.05 -0.05 -0.05 -0.05 l -0.01,-0.05 v -0.05 -0.05 -0.05 -0.06 -0.05 -0.05 -0.05 l -0.01,-0.05 v -0.05 -0.05 -0.05 -0.05 -0.05 -0.05 -0.05 -0.05 -0.05 -0.05 -0.05 -0.06 -0.05 -0.05 -0.05 -0.05 l -0.01,-0.05 v -0.05 -0.05 -0.05 -0.05 -0.05 -0.05 -0.05 z"
         style="fill:#ffffff;fill-opacity:1;fill-rule:nonzero;stroke:#f564e3;stroke-width:2.23426;stroke-linecap:butt;stroke-linejoin:round;stroke-miterlimit:10;stroke-dasharray:none;stroke-opacity:1"
         id="path784"
         clip-path="url(#clipPath1594)"
         transform="matrix(0.49233273,0,0,-0.49233273,-156.28458,221.0487)" />
      <path
         d="m 590.13,190.08 v 0.13 0.12 0.12 0.12 0.13 0.12 0.12 0.12 0.13 0.12 l -0.01,0.12 v 0.12 0.13 0.12 0.12 0.12 0.13 0.12 0.12 0.12 0.13 0.12 0.12 0.13 l -0.01,0.12 v 0.12 0.12 0.13 0.12 0.12 0.12 0.13 0.12 l -0.01,0.12 v 0.12 0.13 0.12 0.12 0.12 0.13 l -0.01,0.12 v 0.12 0.12 0.13 0.12 l -0.01,0.12 v 0.12 0.13 0.12 0.12 l -0.01,0.12 v 0.13 0.12 l -0.01,0.12 v 0.12 0.13 l -0.01,0.12 v 0.12 0.13 l -0.01,0.12 v 0.12 0.12 l -0.01,0.13 v 0.12 l -0.01,0.12 v 0.12 0.13 l -0.01,0.12 v 0.12 l -0.01,0.12 v 0.13 l -0.01,0.12 v 0.12 l -0.01,0.12 -0.01,0.13 v 0.12 l -0.01,0.12 v 0.12 l -0.01,0.13 -0.01,0.12 v 0.12 l -0.01,0.12 -0.01,0.13 v 0.12 l -0.01,0.12 -0.01,0.12 v 0.13 l -0.01,0.12 -0.01,0.12 -0.01,0.12 -0.01,0.13 v 0.12 l -0.01,0.12 -0.01,0.13 -0.01,0.12 -0.01,0.12 -0.01,0.12 -0.01,0.13 -0.01,0.12 -0.01,0.12 -0.01,0.12 -0.01,0.13 -0.01,0.12 -0.01,0.12 -0.01,0.12 -0.01,0.13 -0.01,0.12 -0.01,0.12 -0.01,0.12 -0.01,0.13 -0.01,0.12 -0.02,0.12 -0.01,0.12 -0.01,0.13 -0.01,0.12 -0.02,0.12 -0.01,0.12 -0.02,0.13 -0.01,0.12 -0.01,0.12 -0.02,0.12 -0.01,0.13 -0.02,0.12 -0.01,0.12 -0.02,0.12 -0.02,0.13 -0.01,0.12 -0.02,0.12 -0.02,0.13 -0.01,0.12 -0.02,0.12 -0.02,0.12 -0.02,0.13 -0.02,0.12 -0.01,0.12 -0.02,0.12 -0.02,0.13 -0.02,0.12 -0.02,0.12 -0.02,0.12 -0.02,0.13 -0.02,0.12 -0.03,0.12 -0.02,0.12 -0.02,0.13 -0.02,0.12 -0.02,0.12 -0.02,0.12 -0.03,0.13 -0.02,0.12 -0.02,0.12 -0.02,0.12 -0.03,0.13 -0.02,0.12 -0.02,0.12 -0.02,0.12 -0.02,0.13 -0.03,0.12 -0.02,0.12 -0.02,0.12 -0.02,0.13 -0.02,0.12 -0.02,0.12 -0.02,0.13 -0.02,0.12 -0.02,0.12 -0.02,0.12 -0.02,0.13 -0.02,0.12 -0.02,0.12 -0.02,0.12 -0.01,0.13 -0.02,0.12 -0.02,0.12 -0.01,0.12 -0.02,0.13 -0.02,0.12 -0.01,0.12 -0.02,0.12 -0.01,0.13 -0.02,0.12 -0.01,0.12 -0.01,0.12 -0.02,0.13 -0.01,0.12 -0.01,0.12 -0.02,0.12 -0.01,0.13 -0.01,0.12 -0.02,0.12 -0.01,0.12 -0.01,0.13 -0.01,0.12 -0.02,0.12 -0.01,0.12 -0.01,0.13 -0.01,0.12 -0.02,0.12 -0.01,0.13 -0.01,0.12 -0.01,0.12 -0.01,0.12 -0.02,0.13 -0.01,0.12 -0.01,0.12 -0.01,0.12 -0.01,0.13 -0.01,0.12 -0.01,0.12 -0.01,0.12 -0.01,0.13 -0.01,0.12 -0.01,0.12 -0.01,0.12 v 0.13 l -0.01,0.12 -0.01,0.12 v 0.12 l -0.01,0.13 v 0.12 l -0.01,0.12 v 0.12 0.13 0.12 0.12 0.12 0.13 0.12 0.12 l 0.01,0.12 v 0.13 0.12 l 0.01,0.12 v 0.13 l 0.01,0.12 0.01,0.12 0.01,0.12 0.01,0.13 0.01,0.12 0.01,0.12 0.01,0.12 0.01,0.13 0.01,0.12 0.01,0.12 0.01,0.12 0.02,0.13 0.01,0.12 0.01,0.12 0.02,0.12 0.01,0.13 0.02,0.12 0.01,0.12 0.02,0.12 0.01,0.13 0.02,0.12 0.01,0.12 0.02,0.12 0.02,0.13 0.01,0.12 0.02,0.12 0.01,0.12 0.02,0.13 0.02,0.12 0.01,0.12 0.02,0.12 0.02,0.13 0.01,0.12 0.02,0.12 0.02,0.13 0.01,0.12 0.02,0.12 0.02,0.12 0.02,0.13 0.01,0.12 0.02,0.12 0.02,0.12 0.01,0.13 0.02,0.12 0.02,0.12 0.02,0.12 0.02,0.13 0.01,0.12 0.02,0.12 0.02,0.12 0.02,0.13 0.02,0.12 0.02,0.12 0.02,0.12 0.01,0.13 0.02,0.12 0.02,0.12 0.02,0.12 0.02,0.13 0.02,0.12 0.02,0.12 0.02,0.12 0.02,0.13 0.02,0.12 0.02,0.12 0.02,0.12 0.01,0.13 0.02,0.12 0.02,0.12 0.02,0.12 0.02,0.13 0.02,0.12 0.02,0.12 0.02,0.13 0.01,0.12 0.02,0.12 0.02,0.12 0.02,0.13 0.01,0.12 0.02,0.12 0.02,0.12 0.02,0.13 0.01,0.12 0.02,0.12 0.02,0.12 0.01,0.13 0.02,0.12 0.01,0.12 0.02,0.12 0.02,0.13 0.01,0.12 0.02,0.12 0.01,0.12 0.02,0.13 0.01,0.12 0.01,0.12 0.02,0.12 0.01,0.13 0.02,0.12 0.01,0.12 0.01,0.12 0.02,0.13 0.01,0.12 0.01,0.12 0.02,0.12 0.01,0.13 0.01,0.12 0.01,0.12 0.01,0.13 0.02,0.12 0.01,0.12 0.01,0.12 0.01,0.13 0.01,0.12 0.01,0.12 0.01,0.12 0.01,0.13 0.01,0.12 0.01,0.12 0.01,0.12 0.01,0.13 0.01,0.12 0.01,0.12 0.01,0.12 0.01,0.13 0.01,0.12 0.01,0.12 0.01,0.12 v 0.13 l 0.01,0.12 0.01,0.12 0.01,0.12 v 0.13 l 0.01,0.12 0.01,0.12 v 0.12 l 0.01,0.13 v 0.12 l 0.01,0.12 0.01,0.12 v 0.13 l 0.01,0.12 v 0.12 l 0.01,0.13 v 0.12 l 0.01,0.12 v 0.12 0.13 l 0.01,0.12 v 0.12 l 0.01,0.12 v 0.13 0.12 l 0.01,0.12 v 0.12 0.13 l 0.01,0.12 v 0.12 0.12 0.13 l 0.01,0.12 v 0.12 0.12 0.13 l 0.01,0.12 v 0.12 0.12 0.13 0.12 l 0.01,0.12 v 0.12 0.13 0.12 0.12 l 0.01,0.12 v 0.13 0.12 0.12 0.13 0.12 0.12 l 0.01,0.12 v 0.13 0.12 0.12 0.12 0.13 0.12 l 0.01,0.12 v 0.12 0.13 0.12 0.12 0.12 0.13 0.12 0.12 0.12 l 0.01,0.13 v 0.12 0.12 0.12 0.13 0.12 0.12 0.12 0.13 0.12 0.12 0.12 0.13 0.12 0.12 l 0.01,0.13 v 0.12 0.12 0.12 0.13 0.12 0.12 0.12 0.13 0.12 0.12 0.12 0.13 0.12 0.12 0.12 0.13 0.12 0.12 0.12 0.13 0.12 0.12 0.12 0.13 0.12 0.12 0.12 0.13 0.12 0.12 0.12 0.13 0.12 0.12 0.13 0.12 0.12 0.12 0.13 0.12 0.12 0.12 0.13 0.12 0.12 0.12 0.13 0.12 0.12 0.12 0.13 0.12 0.12 0.12 0.13 0.12 0.12 0.12 0.13 0.12 0.12 0.12 0.13 h 0.01 v -0.13 -0.12 -0.12 -0.12 -0.13 -0.12 -0.12 -0.12 -0.13 -0.12 -0.12 -0.12 -0.13 -0.12 -0.12 -0.12 -0.13 -0.12 -0.12 -0.12 -0.13 -0.12 -0.12 -0.12 -0.13 -0.12 -0.12 -0.12 -0.13 -0.12 -0.12 -0.13 -0.12 -0.12 -0.12 -0.13 -0.12 -0.12 -0.12 -0.13 -0.12 -0.12 -0.12 -0.13 -0.12 -0.12 -0.12 -0.13 -0.12 -0.12 -0.12 -0.13 -0.12 -0.12 -0.12 -0.13 -0.12 -0.12 -0.12 -0.13 -0.12 -0.12 l 0.01,-0.12 v -0.13 -0.12 -0.12 -0.13 -0.12 -0.12 -0.12 -0.13 -0.12 -0.12 -0.12 -0.13 -0.12 -0.12 l 0.01,-0.12 v -0.13 -0.12 -0.12 -0.12 -0.13 -0.12 -0.12 -0.12 -0.13 l 0.01,-0.12 v -0.12 -0.12 -0.13 -0.12 -0.12 -0.12 -0.13 l 0.01,-0.12 v -0.12 -0.12 -0.13 -0.12 -0.12 l 0.01,-0.13 v -0.12 -0.12 -0.12 -0.13 -0.12 l 0.01,-0.12 v -0.12 -0.13 -0.12 -0.12 l 0.01,-0.12 v -0.13 -0.12 -0.12 l 0.01,-0.12 v -0.13 -0.12 l 0.01,-0.12 v -0.12 -0.13 l 0.01,-0.12 v -0.12 -0.12 l 0.01,-0.13 v -0.12 -0.12 l 0.01,-0.12 v -0.13 l 0.01,-0.12 v -0.12 -0.12 l 0.01,-0.13 v -0.12 l 0.01,-0.12 v -0.13 l 0.01,-0.12 0.01,-0.12 v -0.12 l 0.01,-0.13 v -0.12 l 0.01,-0.12 0.01,-0.12 0.01,-0.13 v -0.12 l 0.01,-0.12 0.01,-0.12 0.01,-0.13 v -0.12 l 0.01,-0.12 0.01,-0.12 0.01,-0.13 0.01,-0.12 0.01,-0.12 0.01,-0.12 0.01,-0.13 0.01,-0.12 0.01,-0.12 0.01,-0.12 0.01,-0.13 0.01,-0.12 0.01,-0.12 0.01,-0.12 0.01,-0.13 0.01,-0.12 0.01,-0.12 0.02,-0.12 0.01,-0.13 0.01,-0.12 0.01,-0.12 0.01,-0.13 0.02,-0.12 0.01,-0.12 0.01,-0.12 0.02,-0.13 0.01,-0.12 0.01,-0.12 0.02,-0.12 0.01,-0.13 0.02,-0.12 0.01,-0.12 0.01,-0.12 0.02,-0.13 0.01,-0.12 0.02,-0.12 0.01,-0.12 0.02,-0.13 0.02,-0.12 0.01,-0.12 0.02,-0.12 0.01,-0.13 0.02,-0.12 0.02,-0.12 0.01,-0.12 0.02,-0.13 0.02,-0.12 0.02,-0.12 0.01,-0.12 0.02,-0.13 0.02,-0.12 0.02,-0.12 0.02,-0.12 0.01,-0.13 0.02,-0.12 0.02,-0.12 0.02,-0.13 0.02,-0.12 0.02,-0.12 0.02,-0.12 0.02,-0.13 0.01,-0.12 0.02,-0.12 0.02,-0.12 0.02,-0.13 0.02,-0.12 0.02,-0.12 0.02,-0.12 0.02,-0.13 0.02,-0.12 0.02,-0.12 0.02,-0.12 0.02,-0.13 0.01,-0.12 0.02,-0.12 0.02,-0.12 0.02,-0.13 0.02,-0.12 0.02,-0.12 0.01,-0.12 0.02,-0.13 0.02,-0.12 0.02,-0.12 0.02,-0.12 0.01,-0.13 0.02,-0.12 0.02,-0.12 0.02,-0.12 0.01,-0.13 0.02,-0.12 0.02,-0.12 0.01,-0.12 0.02,-0.13 0.02,-0.12 0.01,-0.12 0.02,-0.13 0.02,-0.12 0.01,-0.12 0.02,-0.12 0.02,-0.13 0.01,-0.12 0.02,-0.12 0.02,-0.12 0.01,-0.13 0.02,-0.12 0.01,-0.12 0.02,-0.12 0.01,-0.13 0.02,-0.12 0.01,-0.12 0.02,-0.12 0.01,-0.13 0.02,-0.12 0.01,-0.12 0.01,-0.12 0.02,-0.13 0.01,-0.12 0.01,-0.12 0.01,-0.12 0.01,-0.13 0.02,-0.12 0.01,-0.12 0.01,-0.12 v -0.13 l 0.01,-0.12 0.01,-0.12 0.01,-0.12 v -0.13 l 0.01,-0.12 v -0.12 l 0.01,-0.13 v -0.12 -0.12 -0.12 -0.13 -0.12 -0.12 -0.12 -0.13 -0.12 l -0.01,-0.12 v -0.12 l -0.01,-0.13 v -0.12 l -0.01,-0.12 -0.01,-0.12 v -0.13 l -0.01,-0.12 -0.01,-0.12 -0.01,-0.12 -0.01,-0.13 -0.01,-0.12 -0.01,-0.12 -0.01,-0.12 -0.01,-0.13 -0.01,-0.12 -0.01,-0.12 -0.01,-0.12 -0.01,-0.13 -0.02,-0.12 -0.01,-0.12 -0.01,-0.12 -0.01,-0.13 -0.02,-0.12 -0.01,-0.12 -0.01,-0.13 -0.01,-0.12 -0.01,-0.12 -0.02,-0.12 -0.01,-0.13 -0.01,-0.12 -0.02,-0.12 -0.01,-0.12 -0.01,-0.13 -0.02,-0.12 -0.01,-0.12 -0.01,-0.12 -0.02,-0.13 -0.01,-0.12 -0.01,-0.12 -0.02,-0.12 -0.01,-0.13 -0.02,-0.12 -0.01,-0.12 -0.02,-0.12 -0.02,-0.13 -0.01,-0.12 -0.02,-0.12 -0.02,-0.12 -0.01,-0.13 -0.02,-0.12 -0.02,-0.12 -0.02,-0.12 -0.02,-0.13 -0.02,-0.12 -0.02,-0.12 -0.02,-0.12 -0.02,-0.13 -0.02,-0.12 -0.02,-0.12 -0.02,-0.13 -0.02,-0.12 -0.02,-0.12 -0.02,-0.12 -0.03,-0.13 -0.02,-0.12 -0.02,-0.12 -0.02,-0.12 -0.03,-0.13 -0.02,-0.12 -0.02,-0.12 -0.02,-0.12 -0.02,-0.13 -0.03,-0.12 -0.02,-0.12 -0.02,-0.12 -0.02,-0.13 -0.02,-0.12 -0.02,-0.12 -0.03,-0.12 -0.02,-0.13 -0.02,-0.12 -0.02,-0.12 -0.02,-0.12 -0.02,-0.13 -0.02,-0.12 -0.01,-0.12 -0.02,-0.12 -0.02,-0.13 -0.02,-0.12 -0.02,-0.12 -0.01,-0.12 -0.02,-0.13 -0.02,-0.12 -0.01,-0.12 -0.02,-0.13 -0.02,-0.12 -0.01,-0.12 -0.02,-0.12 -0.01,-0.13 -0.02,-0.12 -0.01,-0.12 -0.01,-0.12 -0.02,-0.13 -0.01,-0.12 -0.01,-0.12 -0.02,-0.12 -0.01,-0.13 -0.01,-0.12 -0.01,-0.12 -0.02,-0.12 -0.01,-0.13 -0.01,-0.12 -0.01,-0.12 -0.01,-0.12 -0.01,-0.13 -0.01,-0.12 -0.01,-0.12 -0.01,-0.12 -0.01,-0.13 -0.01,-0.12 -0.01,-0.12 -0.01,-0.12 -0.01,-0.13 -0.01,-0.12 -0.01,-0.12 -0.01,-0.12 -0.01,-0.13 -0.01,-0.12 v -0.12 l -0.01,-0.13 -0.01,-0.12 -0.01,-0.12 v -0.12 l -0.01,-0.13 -0.01,-0.12 -0.01,-0.12 v -0.12 l -0.01,-0.13 -0.01,-0.12 v -0.12 l -0.01,-0.12 -0.01,-0.13 v -0.12 l -0.01,-0.12 v -0.12 l -0.01,-0.13 v -0.12 l -0.01,-0.12 -0.01,-0.12 v -0.13 l -0.01,-0.12 v -0.12 -0.12 l -0.01,-0.13 v -0.12 l -0.01,-0.12 v -0.12 l -0.01,-0.13 v -0.12 -0.12 l -0.01,-0.12 v -0.13 -0.12 l -0.01,-0.12 v -0.13 -0.12 l -0.01,-0.12 v -0.12 -0.13 -0.12 l -0.01,-0.12 v -0.12 -0.13 -0.12 l -0.01,-0.12 v -0.12 -0.13 -0.12 -0.12 l -0.01,-0.12 v -0.13 -0.12 -0.12 -0.12 -0.13 -0.12 l -0.01,-0.12 v -0.12 -0.13 -0.12 -0.12 -0.12 -0.13 -0.12 -0.12 -0.12 l -0.01,-0.13 v -0.12 -0.12 -0.13 -0.12 -0.12 -0.12 -0.13 -0.12 -0.12 -0.12 -0.13 -0.12 -0.12 -0.12 l -0.01,-0.13 v -0.12 -0.12 -0.12 -0.13 -0.12 -0.12 -0.12 -0.13 z"
         style="fill:#ffffff;fill-opacity:1;fill-rule:nonzero;stroke:#fe6e8a;stroke-width:2.23426;stroke-linecap:butt;stroke-linejoin:round;stroke-miterlimit:10;stroke-dasharray:none;stroke-opacity:1"
         id="path816"
         clip-path="url(#clipPath1498)"
         transform="matrix(0.49233273,0,0,-0.49233273,-183.57411,206.9249)" />
    </g>
  </g>
</svg>
