<?xml version="1.0" encoding="UTF-8" standalone="no"?>
<!-- Created with Inkscape (http://www.inkscape.org/) -->

<svg
   width="444.89108mm"
   height="98.684502mm"
   viewBox="0 0 444.89108 98.684501"
   version="1.1"
   id="svg5253"
   inkscape:version="1.2.1 (9c6d41e410, 2022-07-14)"
   sodipodi:docname="text-HAFSWW.svg"
   inkscape:export-filename="text-HAFSWW.png"
   inkscape:export-xdpi="300"
   inkscape:export-ydpi="300"
   xmlns:inkscape="http://www.inkscape.org/namespaces/inkscape"
   xmlns:sodipodi="http://sodipodi.sourceforge.net/DTD/sodipodi-0.dtd"
   xmlns:xlink="http://www.w3.org/1999/xlink"
   xmlns="http://www.w3.org/2000/svg"
   xmlns:svg="http://www.w3.org/2000/svg">
  <sodipodi:namedview
     id="namedview5255"
     pagecolor="#ffffff"
     bordercolor="#000000"
     borderopacity="0.25"
     inkscape:showpageshadow="2"
     inkscape:pageopacity="0.0"
     inkscape:pagecheckerboard="0"
     inkscape:deskcolor="#d1d1d1"
     inkscape:document-units="mm"
     showgrid="false"
     inkscape:zoom="0.54362802"
     inkscape:cx="905.03061"
     inkscape:cy="252.9303"
     inkscape:window-width="1350"
     inkscape:window-height="1040"
     inkscape:window-x="528"
     inkscape:window-y="445"
     inkscape:window-maximized="0"
     inkscape:current-layer="layer1" />
  <defs
     id="defs5250">
    <linearGradient
       inkscape:collect="always"
       xlink:href="#linearGradient862"
       id="linearGradient866"
       gradientUnits="userSpaceOnUse"
       x1="34.019547"
       y1="109.10686"
       x2="118.68283"
       y2="60.226486" />
    <linearGradient
       inkscape:collect="always"
       id="linearGradient862">
      <stop
         style="stop-color:#030303;stop-opacity:1;"
         offset="0"
         id="stop858" />
      <stop
         style="stop-color:#ec01ff;stop-opacity:0;"
         offset="1"
         id="stop860" />
    </linearGradient>
    <clipPath
       clipPathUnits="userSpaceOnUse"
       id="clipPath2170">
      <g
         id="g2174">
        <path
           d="M 40.81,21.11 H 601.27 V 536.77 H 40.81 Z"
           id="path2172" />
      </g>
    </clipPath>
    <clipPath
       clipPathUnits="userSpaceOnUse"
       id="clipPath2074">
      <g
         id="g2078">
        <path
           d="M 40.81,21.11 H 601.27 V 536.77 H 40.81 Z"
           id="path2076" />
      </g>
    </clipPath>
    <clipPath
       clipPathUnits="userSpaceOnUse"
       id="clipPath1978">
      <g
         id="g1982">
        <path
           d="M 40.81,21.11 H 601.27 V 536.77 H 40.81 Z"
           id="path1980" />
      </g>
    </clipPath>
    <clipPath
       clipPathUnits="userSpaceOnUse"
       id="clipPath1858">
      <g
         id="g1862">
        <path
           d="M 40.81,21.11 H 601.27 V 536.77 H 40.81 Z"
           id="path1860" />
      </g>
    </clipPath>
    <clipPath
       clipPathUnits="userSpaceOnUse"
       id="clipPath1738">
      <g
         id="g1742">
        <path
           d="M 40.81,21.11 H 601.27 V 536.77 H 40.81 Z"
           id="path1740" />
      </g>
    </clipPath>
    <clipPath
       clipPathUnits="userSpaceOnUse"
       id="clipPath1594">
      <g
         id="g1598">
        <path
           d="M 40.81,21.11 H 601.27 V 536.77 H 40.81 Z"
           id="path1596" />
      </g>
    </clipPath>
    <clipPath
       clipPathUnits="userSpaceOnUse"
       id="clipPath1498">
      <g
         id="g1502">
        <path
           d="M 40.81,21.11 H 601.27 V 536.77 H 40.81 Z"
           id="path1500" />
      </g>
    </clipPath>
    <linearGradient
       inkscape:collect="always"
       xlink:href="#linearGradient862"
       id="linearGradient662"
       gradientUnits="userSpaceOnUse"
       x1="34.019547"
       y1="109.10686"
       x2="118.68283"
       y2="60.226486" />
    <linearGradient
       inkscape:collect="always"
       xlink:href="#linearGradient862"
       id="linearGradient664"
       gradientUnits="userSpaceOnUse"
       x1="34.019547"
       y1="109.10686"
       x2="118.68283"
       y2="60.226486" />
  </defs>
  <g
     inkscape:label="Layer 1"
     inkscape:groupmode="layer"
     id="layer1"
     transform="translate(127.83117,-11.845039)">
    <text
       xml:space="preserve"
       style="font-style:normal;font-variant:normal;font-weight:bold;font-stretch:normal;font-size:27.602px;line-height:1.25;font-family:'Microsoft JhengHei UI';-inkscape-font-specification:'Microsoft JhengHei UI, Bold';font-variant-ligatures:normal;font-variant-caps:normal;font-variant-numeric:normal;font-variant-east-asian:normal;fill:#ffffff;fill-opacity:1;stroke:#000000;stroke-width:0.694321;stroke-miterlimit:4;stroke-dasharray:none;stroke-opacity:1"
       x="-40.037674"
       y="71.233742"
       id="text12-0-5-9-4"
       inkscape:export-xdpi="600"
       inkscape:export-ydpi="600"><tspan
         sodipodi:role="line"
         x="-40.037674"
         y="71.233742"
         style="font-style:normal;font-variant:normal;font-weight:bold;font-stretch:normal;font-size:27.602px;font-family:'Microsoft JhengHei UI';-inkscape-font-specification:'Microsoft JhengHei UI, Bold';font-variant-ligatures:normal;font-variant-caps:normal;font-variant-numeric:normal;font-variant-east-asian:normal;fill:#ffffff;fill-opacity:1;stroke:#000000;stroke-width:0.694321;stroke-miterlimit:4;stroke-dasharray:none;stroke-opacity:1"
         id="tspan981-5">Have a fight, see who wins!</tspan></text>
    <g
       id="g746">
      <g
         id="g856"
         style="fill:url(#linearGradient866);fill-opacity:1;stroke:#000000;stroke-width:0.8;stroke-miterlimit:4;stroke-dasharray:none;stroke-opacity:1"
         inkscape:export-xdpi="600"
         inkscape:export-ydpi="600"
         transform="translate(-161.45072,-23.479381)">
        <g
           id="g852"
           style="fill:url(#linearGradient664);fill-opacity:1;stroke:#000000;stroke-width:0.8;stroke-miterlimit:4;stroke-dasharray:none;stroke-opacity:1">
          <path
             sodipodi:type="star"
             style="opacity:1;fill:url(#linearGradient662);fill-opacity:1;stroke:#000000;stroke-width:0.8;stroke-miterlimit:4;stroke-dasharray:none;stroke-opacity:1"
             id="path833"
             sodipodi:sides="6"
             sodipodi:cx="76.351189"
             sodipodi:cy="84.666672"
             sodipodi:r1="48.880371"
             sodipodi:r2="42.331646"
             sodipodi:arg1="0.52359878"
             sodipodi:arg2="1.0471976"
             inkscape:flatsided="true"
             inkscape:rounded="0"
             inkscape:randomized="0"
             d="m 118.68283,109.10686 -42.331642,24.44018 -42.331643,-24.44018 10e-7,-48.880374 42.331643,-24.440185 42.331641,24.440185 z" />
        </g>
      </g>
      <text
         xml:space="preserve"
         style="font-style:italic;font-variant:normal;font-weight:bold;font-stretch:normal;font-size:17.7227px;line-height:1.25;font-family:sans-serif;-inkscape-font-specification:'sans-serif, Bold Italic';font-variant-ligatures:normal;font-variant-caps:normal;font-variant-numeric:normal;font-variant-east-asian:normal;fill:#ffffff;fill-opacity:1;stroke:#000000;stroke-width:0.445812;stroke-miterlimit:4;stroke-dasharray:none;stroke-opacity:1"
         x="-124.33167"
         y="52.646679"
         id="text12-0-5-9"
         inkscape:export-xdpi="600"
         inkscape:export-ydpi="600"><tspan
           sodipodi:role="line"
           x="-124.33167"
           y="52.646679"
           style="font-style:italic;font-variant:normal;font-weight:bold;font-stretch:normal;font-size:17.7227px;font-family:sans-serif;-inkscape-font-specification:'sans-serif, Bold Italic';font-variant-ligatures:normal;font-variant-caps:normal;font-variant-numeric:normal;font-variant-east-asian:normal;fill:#ffffff;fill-opacity:1;stroke:#000000;stroke-width:0.445812;stroke-miterlimit:4;stroke-dasharray:none;stroke-opacity:1"
           id="tspan981">hafsww</tspan></text>
      <g
         id="g9396"
         style="stroke-width:1.1;stroke-dasharray:none"
         transform="translate(-161.45072,-24.537714)">
        <path
           d="m 70.5,303.44 v 0.06 l -0.01,0.05 v 0.06 0.05 0.06 0.05 0.05 0.06 0.05 0.06 0.05 0.06 0.05 0.06 l -0.01,0.05 v 0.06 0.05 0.06 0.05 0.06 0.05 0.06 0.05 l -0.01,0.05 v 0.06 0.05 0.06 0.05 0.06 l -0.01,0.05 v 0.06 0.05 0.06 0.05 l -0.01,0.06 v 0.05 0.06 0.05 0.06 l -0.01,0.05 v 0.05 0.06 0.05 l -0.01,0.06 v 0.05 0.06 l -0.01,0.05 v 0.06 0.05 l -0.01,0.06 v 0.05 0.06 l -0.01,0.05 v 0.06 l -0.01,0.05 v 0.05 0.06 l -0.01,0.05 v 0.06 l -0.01,0.05 v 0.06 l -0.01,0.05 v 0.06 l -0.01,0.05 V 307 l -0.01,0.05 v 0.06 l -0.01,0.05 v 0.06 l -0.01,0.05 -0.01,0.06 v 0.05 l -0.01,0.05 -0.01,0.06 v 0.05 l -0.01,0.06 -0.01,0.05 v 0.06 l -0.01,0.05 -0.01,0.06 v 0.05 l -0.01,0.06 -0.01,0.05 -0.01,0.06 -0.01,0.05 v 0.06 l -0.01,0.05 -0.01,0.06 -0.01,0.05 -0.01,0.05 -0.01,0.06 -0.01,0.05 -0.01,0.06 -0.01,0.05 -0.01,0.06 -0.01,0.05 -0.01,0.06 -0.01,0.05 -0.01,0.06 -0.02,0.05 -0.01,0.06 -0.01,0.05 -0.01,0.06 -0.02,0.05 -0.01,0.06 -0.01,0.05 -0.02,0.05 -0.01,0.06 -0.02,0.05 -0.01,0.06 -0.02,0.05 -0.01,0.06 -0.02,0.05 -0.01,0.06 -0.02,0.05 -0.01,0.06 -0.02,0.05 -0.02,0.06 -0.02,0.05 -0.01,0.06 -0.02,0.05 -0.02,0.05 -0.02,0.06 -0.02,0.05 -0.01,0.06 -0.02,0.05 -0.02,0.06 -0.02,0.05 -0.02,0.06 -0.02,0.05 -0.02,0.06 -0.02,0.05 -0.02,0.06 -0.02,0.05 -0.03,0.06 -0.02,0.05 -0.02,0.06 -0.02,0.05 -0.02,0.05 -0.03,0.06 -0.02,0.05 -0.02,0.06 -0.03,0.05 -0.02,0.06 -0.02,0.05 -0.03,0.06 -0.02,0.05 -0.03,0.06 -0.03,0.05 -0.02,0.06 -0.03,0.05 -0.02,0.06 -0.03,0.05 -0.03,0.06 -0.03,0.05 -0.02,0.05 -0.03,0.06 -0.03,0.05 -0.03,0.06 -0.03,0.05 -0.03,0.06 -0.03,0.05 -0.03,0.06 -0.03,0.05 -0.03,0.06 -0.03,0.05 -0.03,0.06 -0.03,0.05 -0.03,0.06 -0.03,0.05 -0.03,0.06 -0.03,0.05 -0.04,0.05 -0.03,0.06 -0.03,0.05 -0.03,0.06 -0.04,0.05 -0.03,0.06 -0.03,0.05 -0.03,0.06 -0.04,0.05 -0.03,0.06 -0.03,0.05 -0.04,0.06 -0.03,0.05 -0.03,0.06 -0.04,0.05 -0.03,0.05 -0.04,0.06 -0.03,0.05 -0.03,0.06 -0.04,0.05 -0.03,0.06 -0.04,0.05 -0.03,0.06 -0.03,0.05 -0.04,0.06 -0.03,0.05 -0.04,0.06 -0.03,0.05 -0.03,0.06 -0.04,0.05 -0.03,0.06 -0.04,0.05 -0.03,0.05 -0.04,0.06 -0.03,0.05 -0.03,0.06 -0.04,0.05 -0.03,0.06 -0.04,0.05 -0.03,0.06 -0.03,0.05 -0.04,0.06 -0.03,0.05 -0.03,0.06 -0.03,0.05 -0.04,0.06 -0.03,0.05 -0.03,0.06 -0.03,0.05 -0.03,0.05 -0.03,0.06 -0.03,0.05 -0.03,0.06 -0.03,0.05 -0.03,0.06 -0.03,0.05 -0.03,0.06 -0.03,0.05 -0.02,0.06 -0.03,0.05 -0.02,0.06 -0.03,0.05 -0.02,0.06 -0.03,0.05 -0.02,0.05 -0.02,0.06 -0.02,0.05 -0.02,0.06 -0.02,0.05 -0.02,0.06 -0.02,0.05 -0.01,0.06 -0.02,0.05 -0.01,0.06 -0.02,0.05 -0.01,0.06 -0.01,0.05 -0.02,0.06 -0.01,0.05 -0.01,0.06 v 0.05 l -0.01,0.05 -0.01,0.06 -0.01,0.05 v 0.06 0.05 l -0.01,0.06 v 0.05 0.06 0.05 0.06 0.05 0.06 l 0.01,0.05 v 0.06 l 0.01,0.05 v 0.06 l 0.01,0.05 0.01,0.05 0.01,0.06 0.01,0.05 0.01,0.06 0.01,0.05 0.01,0.06 0.02,0.05 0.01,0.06 0.02,0.05 0.02,0.06 0.01,0.05 0.02,0.06 0.02,0.05 0.02,0.06 0.02,0.05 0.03,0.06 0.02,0.05 0.02,0.05 0.03,0.06 0.02,0.05 0.03,0.06 0.03,0.05 0.02,0.06 0.03,0.05 0.03,0.06 0.03,0.05 0.03,0.06 0.03,0.05 0.03,0.06 0.03,0.05 0.03,0.06 0.04,0.05 0.03,0.05 0.03,0.06 0.03,0.05 0.04,0.06 0.03,0.05 0.04,0.06 0.03,0.05 0.03,0.06 0.04,0.05 0.03,0.06 0.04,0.05 0.03,0.06 0.04,0.05 0.03,0.06 0.04,0.05 0.03,0.06 0.04,0.05 0.03,0.05 0.04,0.06 0.03,0.05 0.04,0.06 0.04,0.05 0.03,0.06 0.04,0.05 0.03,0.06 0.04,0.05 0.03,0.06 0.04,0.05 0.03,0.06 0.04,0.05 0.03,0.06 0.03,0.05 0.04,0.06 0.03,0.05 0.04,0.05 0.03,0.06 0.04,0.05 0.03,0.06 0.03,0.05 0.04,0.06 0.03,0.05 0.03,0.06 0.04,0.05 0.03,0.06 0.03,0.05 0.04,0.06 0.03,0.05 0.03,0.06 0.03,0.05 0.04,0.06 0.03,0.05 0.03,0.05 0.03,0.06 0.03,0.05 0.03,0.06 0.03,0.05 0.03,0.06 0.03,0.05 0.03,0.06 0.03,0.05 0.03,0.06 0.03,0.05 0.03,0.06 0.03,0.05 0.02,0.06 0.03,0.05 0.03,0.05 0.03,0.06 0.02,0.05 0.03,0.06 0.03,0.05 0.02,0.06 0.03,0.05 0.02,0.06 0.03,0.05 0.02,0.06 0.03,0.05 0.02,0.06 0.02,0.05 0.03,0.06 0.02,0.05 0.02,0.06 0.02,0.05 0.03,0.05 0.02,0.06 0.02,0.05 0.02,0.06 0.02,0.05 0.02,0.06 0.02,0.05 0.02,0.06 0.02,0.05 0.02,0.06 0.02,0.05 0.02,0.06 0.02,0.05 0.01,0.06 0.02,0.05 0.02,0.06 0.02,0.05 0.01,0.05 0.02,0.06 0.01,0.05 0.02,0.06 0.02,0.05 0.01,0.06 0.02,0.05 0.01,0.06 0.02,0.05 0.01,0.06 0.01,0.05 0.02,0.06 0.01,0.05 0.01,0.06 0.02,0.05 0.01,0.05 0.01,0.06 0.01,0.05 0.02,0.06 0.01,0.05 0.01,0.06 0.01,0.05 0.01,0.06 0.01,0.05 0.01,0.06 0.02,0.05 0.01,0.06 0.01,0.05 0.01,0.06 0.01,0.05 v 0.06 l 0.01,0.05 0.01,0.05 0.01,0.06 0.01,0.05 0.01,0.06 0.01,0.05 0.01,0.06 v 0.05 l 0.01,0.06 0.01,0.05 0.01,0.06 v 0.05 l 0.01,0.06 0.01,0.05 v 0.06 l 0.01,0.05 0.01,0.06 v 0.05 l 0.01,0.05 v 0.06 l 0.01,0.05 0.01,0.06 v 0.05 l 0.01,0.06 v 0.05 l 0.01,0.06 v 0.05 l 0.01,0.06 v 0.05 l 0.01,0.06 v 0.05 0.06 l 0.01,0.05 v 0.06 l 0.01,0.05 v 0.05 0.06 l 0.01,0.05 v 0.06 0.05 l 0.01,0.06 v 0.05 0.06 l 0.01,0.05 v 0.06 0.05 0.06 l 0.01,0.05 v 0.06 0.05 0.05 l 0.01,0.06 v 0.05 0.06 0.05 l 0.01,0.06 v 0.05 0.06 0.05 0.06 0.05 l 0.01,0.06 v 0.05 0.06 0.05 0.06 0.05 l 0.01,0.05 v 0.06 0.05 0.06 0.05 0.06 0.05 0.06 0.05 0.06 l 0.01,0.05 h 0.02 v -0.05 -0.06 -0.05 -0.06 -0.05 -0.06 -0.05 -0.06 l 0.01,-0.05 v -0.06 -0.05 -0.05 -0.06 -0.05 -0.06 l 0.01,-0.05 v -0.06 -0.05 -0.06 -0.05 -0.06 l 0.01,-0.05 v -0.06 -0.05 -0.06 -0.05 l 0.01,-0.06 v -0.05 -0.05 -0.06 l 0.01,-0.05 v -0.06 -0.05 l 0.01,-0.06 v -0.05 -0.06 l 0.01,-0.05 v -0.06 -0.05 l 0.01,-0.06 v -0.05 -0.06 l 0.01,-0.05 v -0.05 -0.06 l 0.01,-0.05 v -0.06 l 0.01,-0.05 v -0.06 l 0.01,-0.05 v -0.06 -0.05 l 0.01,-0.06 v -0.05 l 0.01,-0.06 0.01,-0.05 v -0.06 l 0.01,-0.05 v -0.06 l 0.01,-0.05 v -0.05 l 0.01,-0.06 0.01,-0.05 v -0.06 l 0.01,-0.05 0.01,-0.06 0.01,-0.05 v -0.06 l 0.01,-0.05 0.01,-0.06 0.01,-0.05 v -0.06 l 0.01,-0.05 0.01,-0.06 0.01,-0.05 0.01,-0.06 0.01,-0.05 0.01,-0.05 0.01,-0.06 0.01,-0.05 0.01,-0.06 0.01,-0.05 0.01,-0.06 0.01,-0.05 0.01,-0.06 0.01,-0.05 0.01,-0.06 0.01,-0.05 0.01,-0.06 0.01,-0.05 0.02,-0.06 0.01,-0.05 0.01,-0.06 0.01,-0.05 0.02,-0.05 0.01,-0.06 0.01,-0.05 0.02,-0.06 0.01,-0.05 0.02,-0.06 0.01,-0.05 0.02,-0.06 0.01,-0.05 0.02,-0.06 0.01,-0.05 0.02,-0.06 0.01,-0.05 0.02,-0.06 0.02,-0.05 0.01,-0.05 0.02,-0.06 0.02,-0.05 0.02,-0.06 0.01,-0.05 0.02,-0.06 0.02,-0.05 0.02,-0.06 0.02,-0.05 0.02,-0.06 0.02,-0.05 0.02,-0.06 0.02,-0.05 0.02,-0.06 0.02,-0.05 0.03,-0.06 0.02,-0.05 0.02,-0.05 0.02,-0.06 0.02,-0.05 0.03,-0.06 0.02,-0.05 0.03,-0.06 0.02,-0.05 0.02,-0.06 0.03,-0.05 0.02,-0.06 0.03,-0.05 0.03,-0.06 0.02,-0.05 0.03,-0.06 0.02,-0.05 0.03,-0.06 0.03,-0.05 0.03,-0.05 0.02,-0.06 0.03,-0.05 0.03,-0.06 0.03,-0.05 0.03,-0.06 0.03,-0.05 0.03,-0.06 0.03,-0.05 0.03,-0.06 0.03,-0.05 0.03,-0.06 0.03,-0.05 0.03,-0.06 0.03,-0.05 0.04,-0.05 0.03,-0.06 0.03,-0.05 0.03,-0.06 0.04,-0.05 0.03,-0.06 0.03,-0.05 0.03,-0.06 0.04,-0.05 0.03,-0.06 0.03,-0.05 0.04,-0.06 0.03,-0.05 0.04,-0.06 0.03,-0.05 0.03,-0.06 0.04,-0.05 0.03,-0.05 0.04,-0.06 0.03,-0.05 0.04,-0.06 0.03,-0.05 0.04,-0.06 0.03,-0.05 0.04,-0.06 0.03,-0.05 0.04,-0.06 0.03,-0.05 0.04,-0.06 0.03,-0.05 0.04,-0.06 0.03,-0.05 0.04,-0.06 0.03,-0.05 0.04,-0.05 0.03,-0.06 0.04,-0.05 0.03,-0.06 0.04,-0.05 0.03,-0.06 0.04,-0.05 0.03,-0.06 0.04,-0.05 0.03,-0.06 0.04,-0.05 0.03,-0.06 0.03,-0.05 0.04,-0.06 0.03,-0.05 0.03,-0.06 0.04,-0.05 0.03,-0.05 0.03,-0.06 0.03,-0.05 0.03,-0.06 0.03,-0.05 0.03,-0.06 0.03,-0.05 0.03,-0.06 0.03,-0.05 0.03,-0.06 0.02,-0.05 0.03,-0.06 0.02,-0.05 0.03,-0.06 0.02,-0.05 0.02,-0.05 0.03,-0.06 0.02,-0.05 0.02,-0.06 0.02,-0.05 0.02,-0.06 0.02,-0.05 0.01,-0.06 0.02,-0.05 0.01,-0.06 0.02,-0.05 0.01,-0.06 0.01,-0.05 0.01,-0.06 0.01,-0.05 0.01,-0.06 0.01,-0.05 0.01,-0.05 0.01,-0.06 v -0.05 l 0.01,-0.06 v -0.05 -0.06 -0.05 -0.06 -0.05 -0.06 -0.05 -0.06 l -0.01,-0.05 v -0.06 l -0.01,-0.05 -0.01,-0.06 v -0.05 l -0.01,-0.05 -0.01,-0.06 -0.01,-0.05 -0.01,-0.06 -0.02,-0.05 -0.01,-0.06 -0.01,-0.05 -0.02,-0.06 -0.02,-0.05 -0.01,-0.06 -0.02,-0.05 -0.02,-0.06 -0.02,-0.05 -0.02,-0.06 -0.02,-0.05 -0.02,-0.06 -0.02,-0.05 -0.03,-0.05 -0.02,-0.06 -0.02,-0.05 -0.03,-0.06 -0.03,-0.05 -0.02,-0.06 -0.03,-0.05 -0.03,-0.06 -0.03,-0.05 -0.02,-0.06 -0.03,-0.05 -0.03,-0.06 -0.03,-0.05 -0.03,-0.06 -0.04,-0.05 -0.03,-0.05 -0.03,-0.06 -0.03,-0.05 -0.03,-0.06 -0.04,-0.05 -0.03,-0.06 -0.03,-0.05 -0.04,-0.06 -0.03,-0.05 -0.03,-0.06 -0.04,-0.05 -0.03,-0.06 -0.03,-0.05 -0.04,-0.06 -0.03,-0.05 -0.04,-0.06 -0.03,-0.05 -0.04,-0.05 -0.03,-0.06 -0.03,-0.05 -0.04,-0.06 -0.03,-0.05 -0.04,-0.06 -0.03,-0.05 -0.04,-0.06 -0.03,-0.05 -0.03,-0.06 -0.04,-0.05 -0.03,-0.06 -0.04,-0.05 -0.03,-0.06 -0.03,-0.05 -0.04,-0.06 -0.03,-0.05 -0.03,-0.05 -0.04,-0.06 -0.03,-0.05 -0.03,-0.06 -0.04,-0.05 -0.03,-0.06 -0.03,-0.05 -0.04,-0.06 -0.03,-0.05 -0.03,-0.06 -0.03,-0.05 -0.04,-0.06 -0.03,-0.05 -0.03,-0.06 -0.03,-0.05 -0.04,-0.05 -0.03,-0.06 -0.03,-0.05 -0.03,-0.06 -0.03,-0.05 -0.03,-0.06 -0.03,-0.05 -0.03,-0.06 -0.03,-0.05 -0.03,-0.06 -0.03,-0.05 -0.03,-0.06 -0.03,-0.05 -0.03,-0.06 -0.03,-0.05 -0.03,-0.06 -0.02,-0.05 -0.03,-0.05 -0.03,-0.06 -0.02,-0.05 -0.03,-0.06 -0.03,-0.05 -0.02,-0.06 -0.03,-0.05 -0.02,-0.06 -0.03,-0.05 -0.02,-0.06 -0.03,-0.05 -0.02,-0.06 -0.03,-0.05 -0.02,-0.06 -0.02,-0.05 -0.02,-0.06 -0.03,-0.05 -0.02,-0.05 -0.02,-0.06 -0.02,-0.05 -0.02,-0.06 -0.03,-0.05 -0.02,-0.06 -0.02,-0.05 -0.02,-0.06 -0.02,-0.05 -0.02,-0.06 -0.02,-0.05 -0.02,-0.06 -0.01,-0.05 -0.02,-0.06 -0.02,-0.05 -0.02,-0.06 -0.02,-0.05 -0.02,-0.05 -0.01,-0.06 -0.02,-0.05 -0.02,-0.06 -0.01,-0.05 -0.02,-0.06 -0.02,-0.05 -0.01,-0.06 -0.02,-0.05 -0.01,-0.06 -0.02,-0.05 -0.01,-0.06 -0.02,-0.05 -0.01,-0.06 -0.02,-0.05 -0.01,-0.05 -0.01,-0.06 -0.01,-0.05 -0.02,-0.06 -0.01,-0.05 -0.01,-0.06 -0.01,-0.05 -0.02,-0.06 -0.01,-0.05 -0.01,-0.06 -0.01,-0.05 -0.01,-0.06 -0.01,-0.05 -0.01,-0.06 -0.01,-0.05 -0.01,-0.06 -0.01,-0.05 -0.01,-0.05 -0.01,-0.06 v -0.05 l -0.01,-0.06 -0.01,-0.05 -0.01,-0.06 -0.01,-0.05 v -0.06 l -0.01,-0.05 -0.01,-0.06 -0.01,-0.05 v -0.06 l -0.01,-0.05 -0.01,-0.06 v -0.05 l -0.01,-0.06 -0.01,-0.05 v -0.05 l -0.01,-0.06 v -0.05 l -0.01,-0.06 -0.01,-0.05 v -0.06 L 70.66,307 v -0.06 l -0.01,-0.05 v -0.06 l -0.01,-0.05 v -0.06 l -0.01,-0.05 v -0.06 -0.05 l -0.01,-0.06 v -0.05 l -0.01,-0.05 v -0.06 -0.05 l -0.01,-0.06 v -0.05 l -0.01,-0.06 v -0.05 -0.06 -0.05 l -0.01,-0.06 v -0.05 -0.06 l -0.01,-0.05 v -0.06 -0.05 -0.05 l -0.01,-0.06 v -0.05 -0.06 -0.05 l -0.01,-0.06 v -0.05 -0.06 -0.05 -0.06 -0.05 l -0.01,-0.06 v -0.05 -0.06 -0.05 -0.06 -0.05 l -0.01,-0.05 v -0.06 -0.05 -0.06 -0.05 -0.06 -0.05 -0.06 -0.05 l -0.01,-0.06 v -0.05 -0.06 -0.05 -0.06 -0.05 -0.06 -0.05 -0.05 -0.06 -0.05 -0.06 -0.05 -0.06 z"
           style="fill:#ffffff;fill-opacity:1;fill-rule:nonzero;stroke:#ef7f49;stroke-width:2.23426;stroke-linecap:butt;stroke-linejoin:round;stroke-miterlimit:10;stroke-dasharray:none;stroke-opacity:1"
           id="path592"
           clip-path="url(#clipPath2170)"
           transform="matrix(0.49233273,0,0,-0.49233273,10.818702,249.02357)" />
        <path
           d="m 144.74,274.83 v 0.09 0.1 0.09 0.09 0.1 0.09 0.1 0.09 0.1 0.09 0.1 0.09 0.1 0.09 0.09 0.1 0.09 0.1 0.09 0.1 0.09 0.1 l -0.01,0.09 v 0.1 0.09 0.1 0.09 0.09 0.1 0.09 0.1 0.09 0.1 0.09 0.1 0.09 0.1 0.09 0.09 0.1 0.09 0.1 0.09 0.1 0.09 0.1 0.09 l -0.01,0.1 v 0.09 0.1 0.09 0.09 0.1 0.09 0.1 0.09 0.1 0.09 l -0.01,0.1 v 0.09 0.1 0.09 0.09 0.1 0.09 l -0.01,0.1 v 0.09 0.1 0.09 0.1 0.09 l -0.01,0.1 v 0.09 0.1 0.09 l -0.01,0.09 v 0.1 0.09 0.1 l -0.01,0.09 v 0.1 0.09 0.1 l -0.01,0.09 v 0.1 0.09 l -0.01,0.09 v 0.1 l -0.01,0.09 v 0.1 0.09 l -0.01,0.1 v 0.09 l -0.01,0.1 v 0.09 l -0.01,0.1 V 284 l -0.01,0.1 v 0.09 l -0.01,0.09 v 0.1 l -0.01,0.09 v 0.1 l -0.01,0.09 v 0.1 l -0.01,0.09 v 0.1 l -0.01,0.09 -0.01,0.1 v 0.09 l -0.01,0.09 -0.01,0.1 v 0.09 l -0.01,0.1 -0.01,0.09 v 0.1 l -0.01,0.09 -0.01,0.1 -0.01,0.09 v 0.1 l -0.01,0.09 -0.01,0.09 -0.01,0.1 v 0.09 l -0.01,0.1 -0.01,0.09 -0.01,0.1 -0.01,0.09 -0.01,0.1 v 0.09 l -0.01,0.1 -0.01,0.09 -0.01,0.1 -0.01,0.09 -0.01,0.09 -0.01,0.1 -0.01,0.09 -0.01,0.1 -0.01,0.09 -0.01,0.1 -0.01,0.09 -0.01,0.1 -0.02,0.09 -0.01,0.1 -0.01,0.09 -0.01,0.09 -0.01,0.1 -0.02,0.09 -0.01,0.1 -0.01,0.09 -0.02,0.1 -0.01,0.09 -0.02,0.1 -0.01,0.09 -0.02,0.1 -0.02,0.09 -0.01,0.1 -0.02,0.09 -0.02,0.09 -0.01,0.1 -0.02,0.09 -0.02,0.1 -0.02,0.09 -0.02,0.1 -0.02,0.09 -0.02,0.1 -0.02,0.09 -0.02,0.1 -0.02,0.09 -0.02,0.09 -0.02,0.1 -0.02,0.09 -0.02,0.1 -0.03,0.09 -0.02,0.1 -0.02,0.09 -0.02,0.1 -0.03,0.09 -0.02,0.1 -0.02,0.09 -0.03,0.1 -0.02,0.09 -0.02,0.09 -0.03,0.1 -0.02,0.09 -0.03,0.1 -0.02,0.09 -0.02,0.1 -0.03,0.09 -0.02,0.1 -0.03,0.09 -0.02,0.1 -0.03,0.09 -0.02,0.09 -0.02,0.1 -0.03,0.09 -0.02,0.1 -0.03,0.09 -0.02,0.1 -0.02,0.09 -0.03,0.1 -0.02,0.09 -0.03,0.1 -0.02,0.09 -0.02,0.1 -0.03,0.09 -0.02,0.09 -0.02,0.1 -0.02,0.09 -0.03,0.1 -0.02,0.09 -0.02,0.1 -0.02,0.09 -0.02,0.1 -0.02,0.09 -0.02,0.1 -0.03,0.09 -0.02,0.09 -0.02,0.1 -0.01,0.09 -0.02,0.1 -0.02,0.09 -0.02,0.1 -0.02,0.09 -0.02,0.1 -0.02,0.09 -0.01,0.1 -0.02,0.09 -0.02,0.1 -0.01,0.09 -0.02,0.09 -0.01,0.1 -0.02,0.09 -0.01,0.1 -0.01,0.09 -0.02,0.1 -0.01,0.09 -0.01,0.1 -0.02,0.09 -0.01,0.1 -0.01,0.09 -0.01,0.09 -0.01,0.1 -0.01,0.09 -0.01,0.1 -0.01,0.09 -0.01,0.1 -0.01,0.09 -0.01,0.1 v 0.09 l -0.01,0.1 -0.01,0.09 v 0.09 l -0.01,0.1 -0.01,0.09 v 0.1 l -0.01,0.09 v 0.1 l -0.01,0.09 v 0.1 l -0.01,0.09 v 0.1 0.09 l -0.01,0.1 v 0.09 0.09 l -0.01,0.1 v 0.09 0.1 0.09 0.1 0.09 0.1 0.09 0.1 0.09 0.09 0.1 0.09 l 0.01,0.1 v 0.09 0.1 l 0.01,0.09 v 0.1 l 0.01,0.09 v 0.1 l 0.01,0.09 v 0.1 l 0.01,0.09 v 0.09 l 0.01,0.1 0.01,0.09 0.01,0.1 0.01,0.09 0.01,0.1 0.01,0.09 0.01,0.1 0.01,0.09 0.01,0.1 0.01,0.09 0.01,0.09 0.01,0.1 0.02,0.09 0.01,0.1 0.01,0.09 0.02,0.1 0.01,0.09 0.02,0.1 0.01,0.09 0.02,0.1 0.02,0.09 0.01,0.1 0.02,0.09 0.02,0.09 0.02,0.1 0.02,0.09 0.02,0.1 0.01,0.09 0.02,0.1 0.02,0.09 0.03,0.1 0.02,0.09 0.02,0.1 0.02,0.09 0.02,0.09 0.02,0.1 0.03,0.09 0.02,0.1 0.02,0.09 0.03,0.1 0.02,0.09 0.02,0.1 0.03,0.09 0.02,0.1 0.03,0.09 0.02,0.1 0.03,0.09 0.02,0.09 0.03,0.1 0.02,0.09 0.03,0.1 0.02,0.09 0.03,0.1 0.02,0.09 0.03,0.1 0.02,0.09 0.02,0.1 0.03,0.09 0.02,0.09 0.03,0.1 0.02,0.09 0.02,0.1 0.03,0.09 0.02,0.1 0.02,0.09 0.03,0.1 0.02,0.09 0.02,0.1 0.02,0.09 0.03,0.1 0.02,0.09 0.02,0.09 0.02,0.1 0.02,0.09 0.02,0.1 0.02,0.09 0.02,0.1 0.02,0.09 0.02,0.1 0.02,0.09 0.02,0.1 0.02,0.09 0.02,0.09 0.02,0.1 0.02,0.09 0.01,0.1 0.02,0.09 0.02,0.1 0.02,0.09 0.01,0.1 0.02,0.09 0.02,0.1 0.02,0.09 0.01,0.09 0.02,0.1 0.01,0.09 0.02,0.1 0.02,0.09 0.01,0.1 0.02,0.09 0.01,0.1 0.02,0.09 0.01,0.1 0.02,0.09 0.01,0.1 0.02,0.09 0.01,0.09 0.01,0.1 0.02,0.09 0.01,0.1 0.01,0.09 0.02,0.1 0.01,0.09 0.01,0.1 0.01,0.09 0.01,0.1 0.02,0.09 0.01,0.09 0.01,0.1 0.01,0.09 0.01,0.1 0.01,0.09 0.01,0.1 0.01,0.09 0.01,0.1 0.01,0.09 0.01,0.1 0.01,0.09 v 0.1 l 0.01,0.09 0.01,0.09 0.01,0.1 0.01,0.09 v 0.1 l 0.01,0.09 0.01,0.1 v 0.09 l 0.01,0.1 0.01,0.09 v 0.1 l 0.01,0.09 v 0.09 l 0.01,0.1 v 0.09 l 0.01,0.1 v 0.09 l 0.01,0.1 v 0.09 l 0.01,0.1 v 0.09 l 0.01,0.1 v 0.09 0.1 l 0.01,0.09 v 0.09 0.1 l 0.01,0.09 v 0.1 0.09 l 0.01,0.1 v 0.09 0.1 l 0.01,0.09 v 0.1 0.09 l 0.01,0.09 v 0.1 0.09 0.1 l 0.01,0.09 v 0.1 0.09 0.1 l 0.01,0.09 v 0.1 0.09 0.1 0.09 l 0.01,0.09 v 0.1 0.09 0.1 0.09 l 0.01,0.1 v 0.09 0.1 0.09 0.1 0.09 l 0.01,0.09 v 0.1 0.09 0.1 0.09 0.1 0.09 0.1 0.09 0.1 l 0.01,0.09 v 0.1 0.09 0.09 0.1 0.09 0.1 0.09 0.1 0.09 0.1 0.09 0.1 0.09 0.09 0.1 0.09 0.1 0.09 0.1 0.09 l 0.01,0.1 v 0 -0.1 -0.09 -0.1 -0.09 -0.1 -0.09 -0.1 -0.09 -0.09 l 0.01,-0.1 v -0.09 -0.1 -0.09 -0.1 -0.09 -0.1 -0.09 -0.1 -0.09 -0.09 -0.1 -0.09 -0.1 -0.09 -0.1 l 0.01,-0.09 v -0.1 -0.09 -0.1 -0.09 -0.1 -0.09 -0.09 l 0.01,-0.1 v -0.09 -0.1 -0.09 -0.1 -0.09 l 0.01,-0.1 v -0.09 -0.1 -0.09 -0.09 l 0.01,-0.1 v -0.09 -0.1 -0.09 l 0.01,-0.1 v -0.09 -0.1 -0.09 l 0.01,-0.1 v -0.09 -0.1 -0.09 l 0.01,-0.09 v -0.1 -0.09 l 0.01,-0.1 v -0.09 -0.1 l 0.01,-0.09 v -0.1 -0.09 l 0.01,-0.1 v -0.09 -0.09 l 0.01,-0.1 v -0.09 l 0.01,-0.1 v -0.09 -0.1 l 0.01,-0.09 v -0.1 l 0.01,-0.09 v -0.1 l 0.01,-0.09 v -0.1 l 0.01,-0.09 0.01,-0.09 v -0.1 l 0.01,-0.09 v -0.1 l 0.01,-0.09 0.01,-0.1 v -0.09 l 0.01,-0.1 0.01,-0.09 0.01,-0.1 v -0.09 l 0.01,-0.09 0.01,-0.1 0.01,-0.09 0.01,-0.1 0.01,-0.09 0.01,-0.1 0.01,-0.09 0.01,-0.1 0.01,-0.09 0.01,-0.1 0.01,-0.09 0.01,-0.1 0.01,-0.09 0.01,-0.09 0.01,-0.1 0.02,-0.09 0.01,-0.1 0.01,-0.09 0.01,-0.1 0.02,-0.09 0.01,-0.1 0.01,-0.09 0.02,-0.1 0.01,-0.09 0.02,-0.09 0.01,-0.1 0.01,-0.09 0.02,-0.1 0.01,-0.09 0.02,-0.1 0.02,-0.09 0.01,-0.1 0.02,-0.09 0.01,-0.1 0.02,-0.09 0.02,-0.1 0.01,-0.09 0.02,-0.09 0.02,-0.1 0.01,-0.09 0.02,-0.1 0.02,-0.09 0.02,-0.1 0.01,-0.09 0.02,-0.1 0.02,-0.09 0.02,-0.1 0.02,-0.09 0.02,-0.09 0.02,-0.1 0.01,-0.09 0.02,-0.1 0.02,-0.09 0.02,-0.1 0.02,-0.09 0.03,-0.1 0.02,-0.09 0.02,-0.1 0.02,-0.09 0.02,-0.09 0.02,-0.1 0.02,-0.09 0.03,-0.1 0.02,-0.09 0.02,-0.1 0.03,-0.09 0.02,-0.1 0.02,-0.09 0.03,-0.1 0.02,-0.09 0.02,-0.1 0.03,-0.09 0.02,-0.09 0.03,-0.1 0.02,-0.09 0.03,-0.1 0.02,-0.09 0.03,-0.1 0.02,-0.09 0.03,-0.1 0.02,-0.09 0.03,-0.1 0.02,-0.09 0.03,-0.09 0.02,-0.1 0.02,-0.09 0.03,-0.1 0.02,-0.09 0.03,-0.1 0.02,-0.09 0.02,-0.1 0.03,-0.09 0.02,-0.1 0.02,-0.09 0.03,-0.1 0.02,-0.09 0.02,-0.09 0.02,-0.1 0.02,-0.09 0.02,-0.1 0.02,-0.09 0.02,-0.1 0.02,-0.09 0.02,-0.1 0.02,-0.09 0.02,-0.1 0.02,-0.09 0.01,-0.09 0.02,-0.1 0.02,-0.09 0.01,-0.1 0.02,-0.09 0.01,-0.1 0.02,-0.09 0.01,-0.1 0.02,-0.09 0.01,-0.1 0.01,-0.09 0.02,-0.1 0.01,-0.09 0.01,-0.09 0.01,-0.1 0.01,-0.09 0.01,-0.1 0.01,-0.09 0.01,-0.1 0.01,-0.09 0.01,-0.1 v -0.09 l 0.01,-0.1 0.01,-0.09 0.01,-0.09 v -0.1 l 0.01,-0.09 v -0.1 l 0.01,-0.09 v -0.1 -0.09 l 0.01,-0.1 v -0.09 -0.1 l 0.01,-0.09 v -0.1 -0.09 -0.09 -0.1 -0.09 -0.1 -0.09 -0.1 -0.09 -0.1 l -0.01,-0.09 v -0.1 -0.09 -0.09 l -0.01,-0.1 v -0.09 l -0.01,-0.1 v -0.09 -0.1 l -0.01,-0.09 v -0.1 l -0.01,-0.09 -0.01,-0.1 v -0.09 l -0.01,-0.1 v -0.09 l -0.01,-0.09 -0.01,-0.1 -0.01,-0.09 -0.01,-0.1 v -0.09 l -0.01,-0.1 -0.01,-0.09 -0.01,-0.1 -0.01,-0.09 -0.01,-0.1 -0.01,-0.09 -0.02,-0.09 -0.01,-0.1 -0.01,-0.09 -0.01,-0.1 -0.01,-0.09 -0.02,-0.1 -0.01,-0.09 -0.02,-0.1 -0.01,-0.09 -0.02,-0.1 -0.01,-0.09 -0.02,-0.09 -0.01,-0.1 -0.02,-0.09 -0.02,-0.1 -0.01,-0.09 -0.02,-0.1 -0.02,-0.09 -0.02,-0.1 -0.02,-0.09 -0.02,-0.1 -0.02,-0.09 -0.02,-0.1 -0.02,-0.09 -0.02,-0.09 -0.02,-0.1 -0.02,-0.09 -0.02,-0.1 -0.02,-0.09 -0.03,-0.1 -0.02,-0.09 -0.02,-0.1 -0.02,-0.09 -0.02,-0.1 -0.03,-0.09 -0.02,-0.09 -0.02,-0.1 -0.03,-0.09 -0.02,-0.1 -0.02,-0.09 -0.03,-0.1 -0.02,-0.09 -0.03,-0.1 -0.02,-0.09 -0.02,-0.1 -0.03,-0.09 -0.02,-0.1 -0.03,-0.09 -0.02,-0.09 -0.02,-0.1 -0.03,-0.09 -0.02,-0.1 -0.03,-0.09 -0.02,-0.1 -0.03,-0.09 -0.02,-0.1 -0.02,-0.09 -0.03,-0.1 -0.02,-0.09 -0.03,-0.09 -0.02,-0.1 -0.02,-0.09 -0.03,-0.1 -0.02,-0.09 -0.02,-0.1 -0.03,-0.09 -0.02,-0.1 -0.02,-0.09 -0.02,-0.1 -0.02,-0.09 -0.02,-0.1 -0.03,-0.09 -0.02,-0.09 -0.02,-0.1 -0.02,-0.09 -0.02,-0.1 -0.02,-0.09 -0.02,-0.1 -0.01,-0.09 -0.02,-0.1 -0.02,-0.09 -0.02,-0.1 -0.01,-0.09 -0.02,-0.09 -0.02,-0.1 -0.01,-0.09 -0.02,-0.1 -0.01,-0.09 -0.02,-0.1 -0.01,-0.09 -0.02,-0.1 -0.01,-0.09 -0.01,-0.1 -0.02,-0.09 -0.01,-0.1 -0.01,-0.09 -0.02,-0.09 -0.01,-0.1 -0.01,-0.09 -0.01,-0.1 -0.01,-0.09 -0.01,-0.1 -0.01,-0.09 -0.01,-0.1 -0.01,-0.09 -0.01,-0.1 -0.01,-0.09 -0.01,-0.09 -0.01,-0.1 -0.01,-0.09 -0.01,-0.1 -0.01,-0.09 -0.01,-0.1 v -0.09 l -0.01,-0.1 -0.01,-0.09 -0.01,-0.1 -0.01,-0.09 v -0.1 l -0.01,-0.09 -0.01,-0.09 -0.01,-0.1 v -0.09 l -0.01,-0.1 -0.01,-0.09 -0.01,-0.1 v -0.09 l -0.01,-0.1 -0.01,-0.09 v -0.1 l -0.01,-0.09 -0.01,-0.09 v -0.1 l -0.01,-0.09 v -0.1 l -0.01,-0.09 -0.01,-0.1 v -0.09 l -0.01,-0.1 v -0.09 l -0.01,-0.1 v -0.09 l -0.01,-0.09 V 284 l -0.01,-0.09 v -0.1 l -0.01,-0.09 v -0.1 -0.09 l -0.01,-0.1 v -0.09 l -0.01,-0.1 v -0.09 -0.1 l -0.01,-0.09 v -0.09 -0.1 l -0.01,-0.09 v -0.1 -0.09 l -0.01,-0.1 v -0.09 -0.1 -0.09 l -0.01,-0.1 v -0.09 -0.09 -0.1 l -0.01,-0.09 v -0.1 -0.09 -0.1 -0.09 l -0.01,-0.1 v -0.09 -0.1 -0.09 -0.1 -0.09 -0.09 l -0.01,-0.1 v -0.09 -0.1 -0.09 -0.1 -0.09 -0.1 -0.09 -0.1 l -0.01,-0.09 v -0.09 -0.1 -0.09 -0.1 -0.09 -0.1 -0.09 -0.1 -0.09 -0.1 -0.09 -0.1 -0.09 -0.09 -0.1 -0.09 -0.1 l -0.01,-0.09 v -0.1 -0.09 -0.1 -0.09 -0.1 -0.09 -0.09 -0.1 -0.09 -0.1 -0.09 -0.1 -0.09 -0.1 -0.09 -0.1 -0.09 -0.1 -0.09 -0.09 -0.1 -0.09 -0.1 -0.09 -0.1 -0.09 -0.1 -0.09 -0.1 -0.09 -0.09 -0.1 z"
           style="fill:#ffffff;fill-opacity:1;fill-rule:nonzero;stroke:#b79f00;stroke-width:2.23426;stroke-linecap:butt;stroke-linejoin:round;stroke-miterlimit:10;stroke-dasharray:none;stroke-opacity:1"
           id="path624"
           clip-path="url(#clipPath2074)"
           transform="matrix(0.49233273,0,0,-0.49233273,-15.291186,249.02357)" />
        <path
           d="m 218.97,273.11 v 0.05 0.05 0.05 0.04 0.05 0.05 0.05 0.05 0.05 0.04 0.05 0.05 0.05 0.05 0.05 0.04 0.05 0.05 0.05 0.05 0.05 0.04 l -0.01,0.05 v 0.05 0.05 0.05 0.05 0.04 0.05 0.05 0.05 0.05 0.05 0.05 0.04 l -0.01,0.05 v 0.05 0.05 0.05 0.05 0.04 0.05 0.05 l -0.01,0.05 v 0.05 0.05 0.04 0.05 0.05 l -0.01,0.05 v 0.05 0.05 0.04 0.05 l -0.01,0.05 v 0.05 0.05 0.05 l -0.01,0.04 v 0.05 0.05 0.05 l -0.01,0.05 v 0.05 0.05 0.04 l -0.01,0.05 v 0.05 0.05 l -0.01,0.05 v 0.05 0.04 l -0.01,0.05 v 0.05 0.05 l -0.01,0.05 v 0.05 l -0.01,0.04 v 0.05 l -0.01,0.05 v 0.05 l -0.01,0.05 v 0.05 l -0.01,0.04 v 0.05 l -0.01,0.05 -0.01,0.05 v 0.05 l -0.01,0.05 -0.01,0.04 v 0.05 l -0.01,0.05 -0.01,0.05 -0.01,0.05 -0.01,0.05 -0.01,0.04 -0.01,0.05 -0.01,0.05 -0.01,0.05 -0.01,0.05 -0.01,0.05 -0.01,0.05 -0.01,0.04 -0.01,0.05 -0.02,0.05 -0.01,0.05 -0.01,0.05 -0.02,0.05 -0.01,0.04 -0.02,0.05 -0.01,0.05 -0.02,0.05 -0.02,0.05 -0.01,0.05 -0.02,0.04 -0.02,0.05 -0.02,0.05 -0.02,0.05 -0.02,0.05 -0.02,0.05 -0.02,0.04 -0.02,0.05 -0.03,0.05 -0.02,0.05 -0.02,0.05 -0.03,0.05 -0.02,0.04 -0.03,0.05 -0.02,0.05 -0.03,0.05 -0.03,0.05 -0.03,0.05 -0.03,0.05 -0.02,0.04 -0.03,0.05 -0.04,0.05 -0.03,0.05 -0.03,0.05 -0.03,0.05 -0.03,0.04 -0.04,0.05 -0.03,0.05 -0.04,0.05 -0.03,0.05 -0.04,0.05 -0.04,0.04 -0.03,0.05 -0.04,0.05 -0.04,0.05 -0.04,0.05 -0.04,0.05 -0.04,0.04 -0.04,0.05 -0.04,0.05 -0.04,0.05 -0.05,0.05 -0.04,0.05 -0.04,0.04 -0.05,0.05 -0.04,0.05 -0.05,0.05 -0.04,0.05 -0.05,0.05 -0.04,0.05 -0.05,0.04 -0.05,0.05 -0.04,0.05 -0.05,0.05 -0.05,0.05 -0.05,0.05 -0.05,0.04 -0.04,0.05 -0.05,0.05 -0.05,0.05 -0.05,0.05 -0.05,0.05 -0.05,0.04 -0.05,0.05 -0.04,0.05 -0.05,0.05 -0.05,0.05 -0.05,0.05 -0.05,0.04 -0.05,0.05 -0.05,0.05 -0.04,0.05 -0.05,0.05 -0.05,0.05 -0.05,0.04 -0.05,0.05 -0.04,0.05 -0.05,0.05 -0.05,0.05 -0.05,0.05 -0.04,0.05 -0.05,0.04 -0.05,0.05 -0.04,0.05 -0.05,0.05 -0.05,0.05 -0.04,0.05 -0.05,0.04 -0.04,0.05 -0.05,0.05 -0.04,0.05 -0.05,0.05 -0.04,0.05 -0.05,0.04 -0.04,0.05 -0.04,0.05 -0.04,0.05 -0.04,0.05 -0.05,0.05 -0.04,0.04 -0.04,0.05 -0.04,0.05 -0.03,0.05 -0.04,0.05 -0.04,0.05 -0.03,0.04 -0.04,0.05 -0.03,0.05 -0.04,0.05 -0.03,0.05 -0.03,0.05 -0.04,0.04 -0.03,0.05 -0.03,0.05 -0.03,0.05 -0.02,0.05 -0.03,0.05 -0.03,0.05 -0.02,0.04 -0.03,0.05 -0.02,0.05 -0.02,0.05 -0.03,0.05 -0.02,0.05 -0.02,0.04 -0.02,0.05 -0.01,0.05 -0.02,0.05 -0.01,0.05 -0.02,0.05 -0.01,0.04 -0.01,0.05 -0.02,0.05 -0.01,0.05 v 0.05 l -0.01,0.05 -0.01,0.04 v 0.05 l -0.01,0.05 v 0.05 0.05 0.05 0.04 0.05 l 0.01,0.05 v 0.05 l 0.01,0.05 v 0.05 l 0.01,0.05 0.01,0.04 0.01,0.05 0.01,0.05 0.01,0.05 0.02,0.05 0.01,0.05 0.02,0.04 0.01,0.05 0.02,0.05 0.02,0.05 0.02,0.05 0.02,0.05 0.02,0.04 0.02,0.05 0.02,0.05 0.03,0.05 0.02,0.05 0.03,0.05 0.02,0.04 0.03,0.05 0.03,0.05 0.02,0.05 0.03,0.05 0.03,0.05 0.03,0.04 0.04,0.05 0.03,0.05 0.03,0.05 0.04,0.05 0.03,0.05 0.04,0.05 0.03,0.04 0.04,0.05 0.04,0.05 0.04,0.05 0.04,0.05 0.04,0.05 0.04,0.04 0.04,0.05 0.04,0.05 0.04,0.05 0.05,0.05 0.04,0.05 0.05,0.04 0.04,0.05 0.05,0.05 0.04,0.05 0.05,0.05 0.04,0.05 0.05,0.04 0.05,0.05 0.05,0.05 0.04,0.05 0.05,0.05 0.05,0.05 0.05,0.04 0.05,0.05 0.05,0.05 0.05,0.05 0.05,0.05 0.04,0.05 0.05,0.05 0.05,0.04 0.05,0.05 0.05,0.05 0.05,0.05 0.05,0.05 0.05,0.05 0.05,0.04 0.05,0.05 0.04,0.05 0.05,0.05 0.05,0.05 0.05,0.05 0.05,0.04 0.04,0.05 0.05,0.05 0.05,0.05 0.04,0.05 0.05,0.05 0.04,0.04 0.05,0.05 0.04,0.05 0.05,0.05 0.04,0.05 0.05,0.05 0.04,0.04 0.04,0.05 0.04,0.05 0.05,0.05 0.04,0.05 0.04,0.05 0.04,0.05 0.04,0.04 0.04,0.05 0.04,0.05 0.04,0.05 0.04,0.05 0.04,0.05 0.04,0.04 0.03,0.05 0.04,0.05 0.04,0.05 0.03,0.05 0.04,0.05 0.03,0.04 0.04,0.05 0.03,0.05 0.04,0.05 0.03,0.05 0.03,0.05 0.03,0.04 0.03,0.05 0.03,0.05 0.03,0.05 0.03,0.05 0.03,0.05 0.03,0.04 0.03,0.05 0.03,0.05 0.02,0.05 0.03,0.05 0.02,0.05 0.03,0.04 0.02,0.05 0.03,0.05 0.02,0.05 0.02,0.05 0.03,0.05 0.02,0.05 0.02,0.04 0.02,0.05 0.02,0.05 0.02,0.05 0.02,0.05 0.01,0.05 0.02,0.04 0.02,0.05 0.02,0.05 0.01,0.05 0.02,0.05 0.01,0.05 0.02,0.04 0.01,0.05 0.02,0.05 0.01,0.05 0.01,0.05 0.02,0.05 0.01,0.04 0.01,0.05 0.01,0.05 0.01,0.05 0.01,0.05 0.01,0.05 0.01,0.04 0.01,0.05 0.01,0.05 0.01,0.05 0.01,0.05 v 0.05 l 0.01,0.05 0.01,0.04 0.01,0.05 v 0.05 l 0.01,0.05 0.01,0.05 v 0.05 l 0.01,0.04 v 0.05 l 0.01,0.05 v 0.05 l 0.01,0.05 v 0.05 l 0.01,0.04 v 0.05 l 0.01,0.05 v 0.05 l 0.01,0.05 v 0.05 l 0.01,0.04 v 0.05 0.05 l 0.01,0.05 v 0.05 0.05 l 0.01,0.04 v 0.05 0.05 l 0.01,0.05 v 0.05 0.05 l 0.01,0.05 v 0.04 0.05 0.05 l 0.01,0.05 v 0.05 0.05 0.04 l 0.01,0.05 v 0.05 0.05 0.05 0.05 l 0.01,0.04 v 0.05 0.05 0.05 0.05 0.05 l 0.01,0.04 v 0.05 0.05 0.05 0.05 0.05 0.04 0.05 0.05 l 0.01,0.05 v 0.05 0.05 0.05 0.04 0.05 0.05 0.05 0.05 0.05 0.04 0.05 0.05 0.05 0.05 0.05 0.04 l 0.01,0.05 v 0.05 0.05 0.05 0.05 0.04 0.05 0.05 0.05 0.05 0.05 0.04 h 0.01 v -0.04 -0.05 -0.05 -0.05 -0.05 -0.05 -0.04 -0.05 -0.05 -0.05 -0.05 -0.05 -0.04 -0.05 -0.05 -0.05 -0.05 -0.05 -0.04 -0.05 -0.05 -0.05 -0.05 -0.05 -0.04 l 0.01,-0.05 v -0.05 -0.05 -0.05 -0.05 -0.05 -0.04 -0.05 -0.05 -0.05 l 0.01,-0.05 v -0.05 -0.04 -0.05 -0.05 -0.05 l 0.01,-0.05 v -0.05 -0.04 -0.05 -0.05 l 0.01,-0.05 v -0.05 -0.05 -0.04 -0.05 l 0.01,-0.05 v -0.05 -0.05 -0.05 l 0.01,-0.04 v -0.05 -0.05 l 0.01,-0.05 v -0.05 -0.05 l 0.01,-0.05 v -0.04 -0.05 l 0.01,-0.05 v -0.05 -0.05 l 0.01,-0.05 v -0.04 l 0.01,-0.05 v -0.05 -0.05 l 0.01,-0.05 v -0.05 l 0.01,-0.04 v -0.05 l 0.01,-0.05 v -0.05 l 0.01,-0.05 0.01,-0.05 v -0.04 l 0.01,-0.05 v -0.05 l 0.01,-0.05 0.01,-0.05 v -0.05 l 0.01,-0.04 0.01,-0.05 0.01,-0.05 0.01,-0.05 v -0.05 l 0.01,-0.05 0.01,-0.05 0.01,-0.04 0.01,-0.05 0.01,-0.05 0.01,-0.05 0.01,-0.05 0.02,-0.05 0.01,-0.04 0.01,-0.05 0.01,-0.05 0.02,-0.05 0.01,-0.05 0.01,-0.05 0.02,-0.04 0.01,-0.05 0.02,-0.05 0.02,-0.05 0.01,-0.05 0.02,-0.05 0.02,-0.04 0.02,-0.05 0.01,-0.05 0.02,-0.05 0.02,-0.05 0.02,-0.05 0.03,-0.04 0.02,-0.05 0.02,-0.05 0.02,-0.05 0.03,-0.05 0.02,-0.05 0.02,-0.05 0.03,-0.04 0.02,-0.05 0.03,-0.05 0.03,-0.05 0.02,-0.05 0.03,-0.05 0.03,-0.04 0.03,-0.05 0.03,-0.05 0.03,-0.05 0.03,-0.05 0.03,-0.05 0.03,-0.04 0.03,-0.05 0.04,-0.05 0.03,-0.05 0.03,-0.05 0.04,-0.05 0.03,-0.04 0.04,-0.05 0.04,-0.05 0.03,-0.05 0.04,-0.05 0.04,-0.05 0.04,-0.04 0.03,-0.05 0.04,-0.05 0.04,-0.05 0.04,-0.05 0.04,-0.05 0.04,-0.04 0.04,-0.05 0.04,-0.05 0.05,-0.05 0.04,-0.05 0.04,-0.05 0.04,-0.05 0.05,-0.04 0.04,-0.05 0.05,-0.05 0.04,-0.05 0.04,-0.05 0.05,-0.05 0.05,-0.04 0.04,-0.05 0.05,-0.05 0.04,-0.05 0.05,-0.05 0.05,-0.05 0.04,-0.04 0.05,-0.05 0.05,-0.05 0.05,-0.05 0.05,-0.05 0.05,-0.05 0.04,-0.04 0.05,-0.05 0.05,-0.05 0.05,-0.05 0.05,-0.05 0.05,-0.05 0.05,-0.04 0.05,-0.05 0.05,-0.05 0.05,-0.05 0.05,-0.05 0.04,-0.05 0.05,-0.05 0.05,-0.04 0.05,-0.05 0.05,-0.05 0.05,-0.05 0.04,-0.05 0.05,-0.05 0.05,-0.04 0.05,-0.05 0.04,-0.05 0.05,-0.05 0.04,-0.05 0.05,-0.05 0.04,-0.04 0.05,-0.05 0.04,-0.05 0.04,-0.05 0.04,-0.05 0.04,-0.05 0.05,-0.04 0.04,-0.05 0.04,-0.05 0.03,-0.05 0.04,-0.05 0.04,-0.05 0.04,-0.04 0.03,-0.05 0.04,-0.05 0.03,-0.05 0.03,-0.05 0.04,-0.05 0.03,-0.05 0.03,-0.04 0.03,-0.05 0.03,-0.05 0.03,-0.05 0.02,-0.05 0.03,-0.05 0.03,-0.04 0.02,-0.05 0.03,-0.05 0.02,-0.05 0.02,-0.05 0.02,-0.05 0.03,-0.04 0.02,-0.05 0.01,-0.05 0.02,-0.05 0.02,-0.05 0.02,-0.05 0.01,-0.04 0.02,-0.05 0.01,-0.05 0.01,-0.05 0.01,-0.05 0.01,-0.05 0.01,-0.04 0.01,-0.05 0.01,-0.05 v -0.05 l 0.01,-0.05 v -0.05 -0.05 -0.04 -0.05 -0.05 -0.05 -0.05 l -0.01,-0.05 -0.01,-0.04 v -0.05 l -0.01,-0.05 -0.01,-0.05 -0.01,-0.05 -0.01,-0.05 -0.02,-0.04 -0.01,-0.05 -0.02,-0.05 -0.01,-0.05 -0.02,-0.05 -0.02,-0.05 -0.02,-0.04 -0.02,-0.05 -0.02,-0.05 -0.03,-0.05 -0.02,-0.05 -0.02,-0.05 -0.03,-0.04 -0.03,-0.05 -0.02,-0.05 -0.03,-0.05 -0.03,-0.05 -0.03,-0.05 -0.03,-0.05 -0.03,-0.04 -0.03,-0.05 -0.04,-0.05 -0.03,-0.05 -0.04,-0.05 -0.03,-0.05 -0.04,-0.04 -0.04,-0.05 -0.03,-0.05 -0.04,-0.05 -0.04,-0.05 -0.04,-0.05 -0.04,-0.04 -0.04,-0.05 -0.04,-0.05 -0.05,-0.05 -0.04,-0.05 -0.04,-0.05 -0.04,-0.04 -0.05,-0.05 -0.04,-0.05 -0.05,-0.05 -0.04,-0.05 -0.05,-0.05 -0.04,-0.04 -0.05,-0.05 -0.05,-0.05 -0.04,-0.05 -0.05,-0.05 -0.05,-0.05 -0.04,-0.04 -0.05,-0.05 -0.05,-0.05 -0.04,-0.05 -0.05,-0.05 -0.05,-0.05 -0.05,-0.05 -0.05,-0.04 -0.04,-0.05 -0.05,-0.05 -0.05,-0.05 -0.05,-0.05 -0.05,-0.05 -0.05,-0.04 -0.05,-0.05 -0.04,-0.05 -0.05,-0.05 -0.05,-0.05 -0.05,-0.05 -0.05,-0.04 -0.05,-0.05 -0.05,-0.05 -0.05,-0.05 -0.04,-0.05 -0.05,-0.05 -0.05,-0.04 -0.05,-0.05 -0.05,-0.05 -0.04,-0.05 -0.05,-0.05 -0.05,-0.05 -0.04,-0.04 -0.05,-0.05 -0.04,-0.05 -0.05,-0.05 -0.05,-0.05 -0.04,-0.05 -0.04,-0.05 -0.05,-0.04 -0.04,-0.05 -0.04,-0.05 -0.05,-0.05 -0.04,-0.05 -0.04,-0.05 -0.04,-0.04 -0.04,-0.05 -0.04,-0.05 -0.04,-0.05 -0.03,-0.05 -0.04,-0.05 -0.04,-0.04 -0.03,-0.05 -0.04,-0.05 -0.03,-0.05 -0.04,-0.05 -0.03,-0.05 -0.04,-0.04 -0.03,-0.05 -0.03,-0.05 -0.03,-0.05 -0.03,-0.05 -0.03,-0.05 -0.03,-0.04 -0.03,-0.05 -0.03,-0.05 -0.03,-0.05 -0.02,-0.05 -0.03,-0.05 -0.02,-0.05 -0.03,-0.04 -0.02,-0.05 -0.03,-0.05 -0.02,-0.05 -0.02,-0.05 -0.03,-0.05 -0.02,-0.04 -0.02,-0.05 -0.02,-0.05 -0.02,-0.05 -0.02,-0.05 -0.02,-0.05 -0.01,-0.04 -0.02,-0.05 -0.02,-0.05 -0.01,-0.05 -0.02,-0.05 -0.01,-0.05 -0.02,-0.04 -0.01,-0.05 -0.02,-0.05 -0.01,-0.05 -0.01,-0.05 -0.02,-0.05 -0.01,-0.04 -0.01,-0.05 -0.01,-0.05 -0.01,-0.05 -0.01,-0.05 -0.01,-0.05 -0.01,-0.05 -0.01,-0.04 -0.01,-0.05 -0.01,-0.05 -0.01,-0.05 v -0.05 l -0.01,-0.05 -0.01,-0.04 -0.01,-0.05 v -0.05 l -0.01,-0.05 v -0.05 l -0.01,-0.05 -0.01,-0.04 v -0.05 l -0.01,-0.05 v -0.05 l -0.01,-0.05 v -0.05 -0.04 l -0.01,-0.05 v -0.05 l -0.01,-0.05 v -0.05 -0.05 l -0.01,-0.04 v -0.05 -0.05 l -0.01,-0.05 v -0.05 -0.05 l -0.01,-0.04 v -0.05 -0.05 -0.05 l -0.01,-0.05 v -0.05 -0.05 -0.04 l -0.01,-0.05 v -0.05 -0.05 -0.05 l -0.01,-0.05 v -0.04 -0.05 -0.05 -0.05 L 219,275.43 v -0.05 -0.04 -0.05 -0.05 -0.05 -0.05 l -0.01,-0.05 v -0.04 -0.05 -0.05 -0.05 -0.05 -0.05 -0.04 l -0.01,-0.05 v -0.05 -0.05 -0.05 -0.05 -0.05 -0.04 -0.05 -0.05 -0.05 -0.05 -0.05 -0.04 -0.05 -0.05 -0.05 -0.05 -0.05 -0.04 -0.05 -0.05 -0.05 -0.05 l -0.01,-0.05 v -0.04 -0.05 -0.05 -0.05 -0.05 -0.05 -0.04 -0.05 -0.05 z"
           style="fill:#ffffff;fill-opacity:1;fill-rule:nonzero;stroke:#39b600;stroke-width:2.23426;stroke-linecap:butt;stroke-linejoin:round;stroke-miterlimit:10;stroke-dasharray:none;stroke-opacity:1"
           id="path656"
           clip-path="url(#clipPath1978)"
           transform="matrix(0.49233273,0,0,-0.49233273,-41.028075,233.91713)" />
        <path
           d="m 311.76,252.71 v 0.08 0.09 0.08 0.08 0.08 0.09 0.08 0.08 l -0.01,0.09 v 0.08 0.08 0.08 0.09 0.08 0.08 0.08 0.09 0.08 0.08 0.08 0.09 0.08 0.08 0.08 0.09 0.08 l -0.01,0.08 v 0.09 0.08 0.08 0.08 0.09 0.08 0.08 0.08 0.09 l -0.01,0.08 v 0.08 0.08 0.09 0.08 0.08 0.08 l -0.01,0.09 v 0.08 0.08 0.09 0.08 0.08 l -0.01,0.08 v 0.09 0.08 0.08 0.08 l -0.01,0.09 v 0.08 0.08 0.08 l -0.01,0.09 v 0.08 0.08 l -0.01,0.08 v 0.09 0.08 l -0.01,0.08 v 0.09 0.08 l -0.01,0.08 v 0.08 0.09 l -0.01,0.08 v 0.08 l -0.01,0.08 v 0.09 l -0.01,0.08 v 0.08 l -0.01,0.08 v 0.09 l -0.01,0.08 v 0.08 l -0.01,0.08 v 0.09 l -0.01,0.08 -0.01,0.08 v 0.09 l -0.01,0.08 -0.01,0.08 v 0.08 l -0.01,0.09 -0.01,0.08 -0.01,0.08 v 0.08 l -0.01,0.09 -0.01,0.08 -0.01,0.08 v 0.08 l -0.01,0.09 -0.01,0.08 -0.01,0.08 -0.01,0.08 -0.01,0.09 -0.01,0.08 -0.01,0.08 -0.01,0.09 -0.01,0.08 -0.01,0.08 -0.01,0.08 -0.01,0.09 -0.01,0.08 -0.01,0.08 -0.01,0.08 -0.01,0.09 -0.02,0.08 -0.01,0.08 -0.01,0.08 -0.01,0.09 -0.01,0.08 -0.02,0.08 -0.01,0.09 -0.01,0.08 -0.02,0.08 -0.01,0.08 -0.01,0.09 -0.02,0.08 -0.01,0.08 -0.02,0.08 -0.01,0.09 -0.01,0.08 -0.02,0.08 -0.01,0.08 -0.02,0.09 -0.02,0.08 -0.01,0.08 -0.02,0.08 -0.01,0.09 -0.02,0.08 -0.02,0.08 -0.01,0.09 -0.02,0.08 -0.02,0.08 -0.01,0.08 -0.02,0.09 -0.02,0.08 -0.02,0.08 -0.01,0.08 -0.02,0.09 -0.02,0.08 -0.02,0.08 -0.02,0.08 -0.02,0.09 -0.02,0.08 -0.02,0.08 -0.01,0.08 -0.02,0.09 -0.02,0.08 -0.03,0.08 -0.02,0.09 -0.02,0.08 -0.02,0.08 -0.02,0.08 -0.02,0.09 -0.02,0.08 -0.03,0.08 -0.02,0.08 -0.02,0.09 -0.02,0.08 -0.03,0.08 -0.02,0.08 -0.03,0.09 -0.02,0.08 -0.03,0.08 -0.02,0.08 -0.03,0.09 -0.02,0.08 -0.03,0.08 -0.02,0.09 -0.03,0.08 -0.03,0.08 -0.02,0.08 -0.03,0.09 -0.03,0.08 -0.02,0.08 -0.03,0.08 -0.03,0.09 -0.03,0.08 -0.03,0.08 -0.02,0.08 -0.03,0.09 -0.03,0.08 -0.03,0.08 -0.03,0.08 -0.02,0.09 -0.03,0.08 -0.03,0.08 -0.03,0.09 -0.03,0.08 -0.02,0.08 -0.03,0.08 -0.03,0.09 -0.03,0.08 -0.02,0.08 -0.03,0.08 -0.03,0.09 -0.02,0.08 -0.03,0.08 -0.02,0.08 -0.03,0.09 -0.03,0.08 -0.02,0.08 -0.03,0.08 -0.02,0.09 -0.02,0.08 -0.03,0.08 -0.02,0.09 -0.02,0.08 -0.02,0.08 -0.03,0.08 -0.02,0.09 -0.02,0.08 -0.02,0.08 -0.02,0.08 -0.02,0.09 -0.02,0.08 -0.01,0.08 -0.02,0.08 -0.02,0.09 -0.01,0.08 -0.02,0.08 -0.01,0.08 -0.02,0.09 -0.01,0.08 -0.01,0.08 -0.02,0.09 -0.01,0.08 -0.01,0.08 -0.01,0.08 -0.01,0.09 v 0.08 l -0.01,0.08 -0.01,0.08 v 0.09 l -0.01,0.08 v 0.08 l -0.01,0.08 v 0.09 0.08 0.08 0.09 0.08 0.08 0.08 0.09 l 0.01,0.08 v 0.08 0.08 l 0.01,0.09 v 0.08 l 0.01,0.08 v 0.08 l 0.01,0.09 0.01,0.08 0.01,0.08 0.01,0.08 v 0.09 l 0.01,0.08 0.01,0.08 0.01,0.09 0.01,0.08 0.01,0.08 0.02,0.08 0.01,0.09 0.01,0.08 0.01,0.08 0.01,0.08 0.02,0.09 0.01,0.08 0.02,0.08 0.01,0.08 0.02,0.09 0.01,0.08 0.02,0.08 0.01,0.08 0.02,0.09 0.02,0.08 0.01,0.08 0.02,0.09 0.02,0.08 0.02,0.08 0.02,0.08 0.02,0.09 0.02,0.08 0.02,0.08 0.02,0.08 0.02,0.09 0.02,0.08 0.03,0.08 0.02,0.08 0.02,0.09 0.02,0.08 0.03,0.08 0.02,0.08 0.03,0.09 0.02,0.08 0.03,0.08 0.02,0.09 0.03,0.08 0.02,0.08 0.03,0.08 0.02,0.09 0.03,0.08 0.03,0.08 0.02,0.08 0.03,0.09 0.03,0.08 0.02,0.08 0.03,0.08 0.03,0.09 0.02,0.08 0.03,0.08 0.03,0.08 0.02,0.09 0.03,0.08 0.02,0.08 0.03,0.09 0.03,0.08 0.02,0.08 0.03,0.08 0.02,0.09 0.03,0.08 0.02,0.08 0.03,0.08 0.02,0.09 0.03,0.08 0.02,0.08 0.02,0.08 0.03,0.09 0.02,0.08 0.02,0.08 0.03,0.08 0.02,0.09 0.02,0.08 0.02,0.08 0.03,0.09 0.02,0.08 0.02,0.08 0.02,0.08 0.02,0.09 0.02,0.08 0.03,0.08 0.02,0.08 0.02,0.09 0.02,0.08 0.02,0.08 0.02,0.08 0.02,0.09 0.02,0.08 0.02,0.08 0.02,0.09 0.02,0.08 0.01,0.08 0.02,0.08 0.02,0.09 0.02,0.08 0.02,0.08 0.02,0.08 0.02,0.09 0.01,0.08 0.02,0.08 0.02,0.08 0.02,0.09 0.01,0.08 0.02,0.08 0.02,0.08 0.02,0.09 0.01,0.08 0.02,0.08 0.01,0.09 0.02,0.08 0.02,0.08 0.01,0.08 0.02,0.09 0.01,0.08 0.02,0.08 0.01,0.08 0.02,0.09 0.01,0.08 0.01,0.08 0.02,0.08 0.01,0.09 0.01,0.08 0.02,0.08 0.01,0.08 0.01,0.09 0.01,0.08 0.02,0.08 0.01,0.09 0.01,0.08 0.01,0.08 0.01,0.08 0.01,0.09 0.01,0.08 0.01,0.08 0.01,0.08 0.01,0.09 0.01,0.08 0.01,0.08 0.01,0.08 v 0.09 l 0.01,0.08 0.01,0.08 0.01,0.08 0.01,0.09 v 0.08 l 0.01,0.08 0.01,0.09 v 0.08 l 0.01,0.08 0.01,0.08 v 0.09 l 0.01,0.08 0.01,0.08 v 0.08 l 0.01,0.09 v 0.08 l 0.01,0.08 v 0.08 l 0.01,0.09 v 0.08 0.08 l 0.01,0.08 v 0.09 l 0.01,0.08 v 0.08 0.09 l 0.01,0.08 v 0.08 0.08 l 0.01,0.09 v 0.08 0.08 l 0.01,0.08 v 0.09 0.08 l 0.01,0.08 v 0.08 0.09 0.08 l 0.01,0.08 v 0.08 0.09 0.08 0.08 l 0.01,0.09 v 0.08 0.08 0.08 0.09 l 0.01,0.08 v 0.08 0.08 0.09 0.08 0.08 l 0.01,0.08 v 0.09 0.08 0.08 0.08 0.09 0.08 l 0.01,0.08 v 0.09 0.08 0.08 0.08 0.09 0.08 0.08 l 0.01,0.08 v 0.09 0.08 0.08 0.08 0.09 0.08 0.08 0.09 0.08 0.08 0.08 0.09 0.08 0.08 0.08 l 0.01,0.09 v 0.08 0.08 0.08 0.09 0.08 0.08 0.08 0.09 0.08 0.08 0.09 0.08 0.08 0.08 0.09 0.08 h 0.01 v -0.08 -0.09 -0.08 -0.08 -0.08 -0.09 -0.08 -0.08 -0.09 -0.08 -0.08 -0.08 -0.09 -0.08 -0.08 -0.08 -0.09 -0.08 -0.08 -0.08 -0.09 -0.08 -0.08 -0.08 -0.09 -0.08 l 0.01,-0.08 v -0.09 -0.08 -0.08 -0.08 -0.09 -0.08 -0.08 -0.08 -0.09 -0.08 l 0.01,-0.08 v -0.08 -0.09 -0.08 -0.08 -0.09 -0.08 l 0.01,-0.08 v -0.08 -0.09 -0.08 -0.08 -0.08 l 0.01,-0.09 v -0.08 -0.08 -0.08 -0.09 -0.08 l 0.01,-0.08 v -0.08 -0.09 -0.08 l 0.01,-0.08 v -0.09 -0.08 -0.08 -0.08 l 0.01,-0.09 v -0.08 -0.08 -0.08 l 0.01,-0.09 v -0.08 -0.08 l 0.01,-0.08 v -0.09 -0.08 l 0.01,-0.08 v -0.08 -0.09 l 0.01,-0.08 v -0.08 l 0.01,-0.09 v -0.08 -0.08 L 311.9,288 v -0.09 l 0.01,-0.08 v -0.08 l 0.01,-0.08 v -0.09 l 0.01,-0.08 0.01,-0.08 v -0.08 l 0.01,-0.09 v -0.08 l 0.01,-0.08 0.01,-0.08 v -0.09 l 0.01,-0.08 0.01,-0.08 0.01,-0.09 v -0.08 l 0.01,-0.08 0.01,-0.08 0.01,-0.09 0.01,-0.08 0.01,-0.08 0.01,-0.08 v -0.09 l 0.01,-0.08 0.01,-0.08 0.01,-0.08 0.02,-0.09 0.01,-0.08 0.01,-0.08 0.01,-0.08 0.01,-0.09 0.01,-0.08 0.01,-0.08 0.02,-0.09 0.01,-0.08 0.01,-0.08 0.01,-0.08 0.02,-0.09 0.01,-0.08 0.01,-0.08 0.02,-0.08 0.01,-0.09 0.02,-0.08 0.01,-0.08 0.02,-0.08 0.01,-0.09 0.02,-0.08 0.01,-0.08 0.02,-0.08 0.02,-0.09 0.01,-0.08 0.02,-0.08 0.02,-0.09 0.01,-0.08 0.02,-0.08 0.02,-0.08 0.02,-0.09 0.01,-0.08 0.02,-0.08 0.02,-0.08 0.02,-0.09 0.02,-0.08 0.01,-0.08 0.02,-0.08 0.02,-0.09 0.02,-0.08 0.02,-0.08 0.02,-0.08 0.02,-0.09 0.02,-0.08 0.02,-0.08 0.02,-0.09 0.02,-0.08 0.02,-0.08 0.02,-0.08 0.02,-0.09 0.02,-0.08 0.02,-0.08 0.02,-0.08 0.02,-0.09 0.02,-0.08 0.03,-0.08 0.02,-0.08 0.02,-0.09 0.02,-0.08 0.02,-0.08 0.03,-0.09 0.02,-0.08 0.02,-0.08 0.03,-0.08 0.02,-0.09 0.02,-0.08 0.03,-0.08 0.02,-0.08 0.03,-0.09 0.02,-0.08 0.03,-0.08 0.02,-0.08 0.03,-0.09 0.02,-0.08 0.03,-0.08 0.02,-0.08 0.03,-0.09 0.03,-0.08 0.02,-0.08 0.03,-0.09 0.03,-0.08 0.02,-0.08 0.03,-0.08 0.03,-0.09 0.02,-0.08 0.03,-0.08 0.03,-0.08 0.02,-0.09 0.03,-0.08 0.02,-0.08 0.03,-0.08 0.03,-0.09 0.02,-0.08 0.03,-0.08 0.02,-0.08 0.03,-0.09 0.02,-0.08 0.03,-0.08 0.02,-0.09 0.03,-0.08 0.02,-0.08 0.02,-0.08 0.03,-0.09 0.02,-0.08 0.02,-0.08 0.02,-0.08 0.02,-0.09 0.03,-0.08 0.02,-0.08 0.02,-0.08 0.02,-0.09 0.01,-0.08 0.02,-0.08 0.02,-0.08 0.02,-0.09 0.02,-0.08 0.01,-0.08 0.02,-0.09 0.02,-0.08 0.01,-0.08 0.02,-0.08 0.01,-0.09 0.02,-0.08 0.01,-0.08 0.02,-0.08 0.01,-0.09 0.01,-0.08 0.02,-0.08 0.01,-0.08 0.01,-0.09 0.01,-0.08 0.01,-0.08 0.01,-0.08 0.01,-0.09 0.01,-0.08 0.01,-0.08 0.01,-0.09 0.01,-0.08 0.01,-0.08 v -0.08 l 0.01,-0.09 0.01,-0.08 v -0.08 l 0.01,-0.08 v -0.09 l 0.01,-0.08 v -0.08 -0.08 -0.09 l 0.01,-0.08 v -0.08 -0.08 -0.09 -0.08 l -0.01,-0.08 v -0.09 -0.08 l -0.01,-0.08 v -0.08 l -0.01,-0.09 v -0.08 l -0.01,-0.08 -0.01,-0.08 -0.01,-0.09 -0.01,-0.08 -0.01,-0.08 -0.01,-0.08 -0.01,-0.09 -0.01,-0.08 -0.02,-0.08 -0.01,-0.09 -0.02,-0.08 -0.01,-0.08 -0.02,-0.08 -0.01,-0.09 -0.02,-0.08 -0.02,-0.08 -0.02,-0.08 -0.02,-0.09 -0.02,-0.08 -0.02,-0.08 -0.02,-0.08 -0.02,-0.09 -0.02,-0.08 -0.02,-0.08 -0.03,-0.08 -0.02,-0.09 -0.02,-0.08 -0.03,-0.08 -0.02,-0.09 -0.02,-0.08 -0.03,-0.08 -0.02,-0.08 -0.03,-0.09 -0.03,-0.08 -0.02,-0.08 -0.03,-0.08 -0.03,-0.09 -0.02,-0.08 -0.03,-0.08 -0.03,-0.08 -0.02,-0.09 -0.03,-0.08 -0.03,-0.08 -0.03,-0.08 -0.03,-0.09 -0.02,-0.08 -0.03,-0.08 -0.03,-0.09 -0.03,-0.08 -0.03,-0.08 -0.02,-0.08 -0.03,-0.09 -0.03,-0.08 -0.03,-0.08 -0.03,-0.08 -0.02,-0.09 -0.03,-0.08 -0.03,-0.08 -0.03,-0.08 -0.02,-0.09 -0.03,-0.08 -0.03,-0.08 -0.02,-0.08 -0.03,-0.09 -0.02,-0.08 -0.03,-0.08 -0.02,-0.09 -0.03,-0.08 -0.02,-0.08 -0.03,-0.08 -0.02,-0.09 -0.03,-0.08 -0.02,-0.08 -0.02,-0.08 -0.03,-0.09 -0.02,-0.08 -0.02,-0.08 -0.02,-0.08 -0.03,-0.09 -0.02,-0.08 -0.02,-0.08 -0.02,-0.08 -0.02,-0.09 -0.02,-0.08 -0.02,-0.08 -0.02,-0.09 -0.02,-0.08 -0.02,-0.08 -0.02,-0.08 -0.02,-0.09 -0.02,-0.08 -0.02,-0.08 -0.01,-0.08 -0.02,-0.09 -0.02,-0.08 -0.02,-0.08 -0.01,-0.08 -0.02,-0.09 -0.02,-0.08 -0.02,-0.08 -0.01,-0.08 -0.02,-0.09 -0.02,-0.08 -0.01,-0.08 -0.02,-0.09 -0.01,-0.08 -0.02,-0.08 -0.02,-0.08 -0.01,-0.09 -0.02,-0.08 -0.01,-0.08 -0.02,-0.08 -0.01,-0.09 -0.01,-0.08 -0.02,-0.08 -0.01,-0.08 -0.02,-0.09 -0.01,-0.08 -0.01,-0.08 -0.02,-0.08 -0.01,-0.09 -0.01,-0.08 -0.01,-0.08 -0.02,-0.09 -0.01,-0.08 -0.01,-0.08 -0.01,-0.08 -0.01,-0.09 -0.01,-0.08 -0.02,-0.08 -0.01,-0.08 -0.01,-0.09 -0.01,-0.08 -0.01,-0.08 -0.01,-0.08 -0.01,-0.09 -0.01,-0.08 -0.01,-0.08 -0.01,-0.09 v -0.08 l -0.01,-0.08 -0.01,-0.08 -0.01,-0.09 -0.01,-0.08 -0.01,-0.08 v -0.08 l -0.01,-0.09 -0.01,-0.08 -0.01,-0.08 v -0.08 l -0.01,-0.09 -0.01,-0.08 -0.01,-0.08 v -0.08 l -0.01,-0.09 v -0.08 l -0.01,-0.08 -0.01,-0.09 v -0.08 l -0.01,-0.08 v -0.08 l -0.01,-0.09 v -0.08 l -0.01,-0.08 v -0.08 l -0.01,-0.09 v -0.08 l -0.01,-0.08 v -0.08 -0.09 l -0.01,-0.08 v -0.08 l -0.01,-0.08 V 258.08 258 l -0.01,-0.08 v -0.09 -0.08 l -0.01,-0.08 v -0.08 -0.09 -0.08 l -0.01,-0.08 v -0.08 -0.09 -0.08 l -0.01,-0.08 v -0.08 -0.09 -0.08 -0.08 -0.08 l -0.01,-0.09 v -0.08 -0.08 -0.09 -0.08 -0.08 l -0.01,-0.08 v -0.09 -0.08 -0.08 -0.08 -0.09 -0.08 -0.08 -0.08 l -0.01,-0.09 v -0.08 -0.08 -0.08 -0.09 -0.08 -0.08 -0.09 -0.08 -0.08 -0.08 -0.09 l -0.01,-0.08 v -0.08 -0.08 -0.09 -0.08 -0.08 -0.08 -0.09 -0.08 -0.08 -0.08 -0.09 -0.08 -0.08 -0.09 -0.08 -0.08 -0.08 -0.09 -0.08 z"
           style="fill:#ffffff;fill-opacity:1;fill-rule:nonzero;stroke:#00c0af;stroke-width:2.23426;stroke-linecap:butt;stroke-linejoin:round;stroke-miterlimit:10;stroke-dasharray:none;stroke-opacity:1"
           id="path696"
           clip-path="url(#clipPath1858)"
           transform="matrix(0.49233273,0,0,-0.49233273,-75.716924,235.59563)" />
        <path
           d="m 404.55,246.82 v 0.07 0.06 0.07 0.06 l -0.01,0.07 v 0.06 0.07 0.07 0.06 0.07 0.06 0.07 0.06 0.07 0.06 0.07 0.06 0.07 0.07 0.06 l -0.01,0.07 v 0.06 0.07 0.06 0.07 0.06 0.07 0.06 0.07 l -0.01,0.07 v 0.06 0.07 0.06 0.07 0.06 l -0.01,0.07 v 0.06 0.07 0.06 0.07 l -0.01,0.07 v 0.06 0.07 0.06 0.07 l -0.01,0.06 v 0.07 0.06 l -0.01,0.07 v 0.07 0.06 0.07 l -0.01,0.06 v 0.07 0.06 l -0.01,0.07 v 0.06 0.07 l -0.01,0.06 v 0.07 0.07 l -0.01,0.06 v 0.07 l -0.01,0.06 v 0.07 0.06 l -0.01,0.07 v 0.06 l -0.01,0.07 v 0.06 l -0.01,0.07 v 0.07 l -0.01,0.06 v 0.07 l -0.01,0.06 v 0.07 l -0.01,0.06 v 0.07 l -0.01,0.06 -0.01,0.07 v 0.06 l -0.01,0.07 -0.01,0.07 v 0.06 l -0.01,0.07 -0.01,0.06 -0.01,0.07 v 0.06 l -0.01,0.07 -0.01,0.06 -0.01,0.07 -0.01,0.07 v 0.06 l -0.01,0.07 -0.01,0.06 -0.01,0.07 -0.01,0.06 -0.01,0.07 -0.01,0.06 -0.01,0.07 -0.01,0.06 -0.01,0.07 -0.01,0.07 -0.01,0.06 -0.01,0.07 -0.02,0.06 -0.01,0.07 -0.01,0.06 -0.01,0.07 -0.01,0.06 -0.02,0.07 -0.01,0.06 -0.01,0.07 -0.01,0.07 -0.02,0.06 -0.01,0.07 -0.01,0.06 -0.02,0.07 -0.01,0.06 -0.02,0.07 -0.01,0.06 -0.02,0.07 -0.01,0.07 -0.02,0.06 -0.01,0.07 -0.02,0.06 -0.02,0.07 -0.01,0.06 -0.02,0.07 -0.02,0.06 -0.01,0.07 -0.02,0.06 -0.02,0.07 -0.02,0.07 -0.02,0.06 -0.02,0.07 -0.02,0.06 -0.02,0.07 -0.02,0.06 -0.02,0.07 -0.02,0.06 -0.02,0.07 -0.02,0.06 -0.02,0.07 -0.02,0.07 -0.02,0.06 -0.03,0.07 -0.02,0.06 -0.02,0.07 -0.03,0.06 -0.02,0.07 -0.02,0.06 -0.03,0.07 -0.02,0.06 -0.03,0.07 -0.02,0.07 -0.03,0.06 -0.02,0.07 -0.03,0.06 -0.02,0.07 -0.03,0.06 -0.03,0.07 -0.02,0.06 -0.03,0.07 -0.03,0.07 -0.02,0.06 -0.03,0.07 -0.03,0.06 -0.02,0.07 -0.03,0.06 -0.03,0.07 -0.03,0.06 -0.03,0.07 -0.02,0.06 -0.03,0.07 -0.03,0.07 -0.03,0.06 -0.03,0.07 -0.03,0.06 -0.03,0.07 -0.03,0.06 -0.02,0.07 -0.03,0.06 -0.03,0.07 -0.03,0.06 -0.03,0.07 -0.03,0.07 -0.03,0.06 -0.03,0.07 -0.03,0.06 -0.03,0.07 -0.03,0.06 -0.02,0.07 -0.03,0.06 -0.03,0.07 -0.03,0.06 -0.03,0.07 -0.03,0.07 -0.03,0.06 -0.02,0.07 -0.03,0.06 -0.03,0.07 -0.03,0.06 -0.02,0.07 -0.03,0.06 -0.03,0.07 -0.02,0.07 -0.03,0.06 -0.02,0.07 -0.03,0.06 -0.02,0.07 -0.03,0.06 -0.02,0.07 -0.03,0.06 -0.02,0.07 -0.02,0.06 -0.02,0.07 -0.03,0.07 -0.02,0.06 -0.02,0.07 -0.02,0.06 -0.02,0.07 -0.02,0.06 -0.02,0.07 -0.02,0.06 -0.02,0.07 -0.02,0.06 -0.02,0.07 -0.02,0.07 -0.02,0.06 -0.01,0.07 -0.02,0.06 -0.02,0.07 -0.01,0.06 -0.02,0.07 -0.01,0.06 -0.02,0.07 -0.01,0.07 -0.02,0.06 -0.01,0.07 -0.01,0.06 -0.01,0.07 -0.02,0.06 -0.01,0.07 -0.01,0.06 -0.01,0.07 -0.01,0.06 -0.01,0.07 -0.01,0.07 v 0.06 l -0.01,0.07 -0.01,0.06 -0.01,0.07 v 0.06 l -0.01,0.07 v 0.06 l -0.01,0.07 v 0.06 0.07 l -0.01,0.07 v 0.06 0.07 0.06 0.07 0.06 0.07 0.06 l 0.01,0.07 v 0.06 0.07 l 0.01,0.07 v 0.06 l 0.01,0.07 v 0.06 l 0.01,0.07 0.01,0.06 v 0.07 l 0.01,0.06 0.01,0.07 0.01,0.07 0.01,0.06 0.01,0.07 0.01,0.06 0.02,0.07 0.01,0.06 0.01,0.07 0.02,0.06 0.01,0.07 0.02,0.06 0.01,0.07 0.02,0.07 0.02,0.06 0.02,0.07 0.02,0.06 0.01,0.07 0.02,0.06 0.03,0.07 0.02,0.06 0.02,0.07 0.02,0.06 0.02,0.07 0.03,0.07 0.02,0.06 0.02,0.07 0.03,0.06 0.02,0.07 0.03,0.06 0.03,0.07 0.02,0.06 0.03,0.07 0.03,0.07 0.02,0.06 0.03,0.07 0.03,0.06 0.03,0.07 0.03,0.06 0.03,0.07 0.03,0.06 0.03,0.07 0.03,0.06 0.02,0.07 0.03,0.07 0.03,0.06 0.03,0.07 0.04,0.06 0.03,0.07 0.03,0.06 0.03,0.07 0.03,0.06 0.03,0.07 0.03,0.06 0.03,0.07 0.03,0.07 0.03,0.06 0.03,0.07 0.03,0.06 0.03,0.07 0.03,0.06 0.03,0.07 0.03,0.06 0.03,0.07 0.03,0.06 0.03,0.07 0.03,0.07 0.03,0.06 0.03,0.07 0.03,0.06 0.03,0.07 0.03,0.06 0.03,0.07 0.02,0.06 0.03,0.07 0.03,0.07 0.03,0.06 0.03,0.07 0.02,0.06 0.03,0.07 0.03,0.06 0.02,0.07 0.03,0.06 0.03,0.07 0.02,0.06 0.03,0.07 0.02,0.07 0.03,0.06 0.02,0.07 0.03,0.06 0.02,0.07 0.03,0.06 0.02,0.07 0.03,0.06 0.02,0.07 0.02,0.06 0.03,0.07 0.02,0.07 0.02,0.06 0.02,0.07 0.02,0.06 0.03,0.07 0.02,0.06 0.02,0.07 0.02,0.06 0.02,0.07 0.02,0.06 0.02,0.07 0.02,0.07 0.02,0.06 0.02,0.07 0.01,0.06 0.02,0.07 0.02,0.06 0.02,0.07 0.02,0.06 0.01,0.07 0.02,0.07 0.02,0.06 0.01,0.07 0.02,0.06 0.01,0.07 0.02,0.06 0.01,0.07 0.02,0.06 0.01,0.07 0.02,0.06 0.01,0.07 0.02,0.07 0.01,0.06 0.01,0.07 0.02,0.06 0.01,0.07 0.01,0.06 0.01,0.07 0.02,0.06 0.01,0.07 0.01,0.06 0.01,0.07 0.01,0.07 0.01,0.06 0.01,0.07 0.01,0.06 0.01,0.07 0.01,0.06 0.01,0.07 0.01,0.06 0.01,0.07 0.01,0.07 0.01,0.06 0.01,0.07 0.01,0.06 0.01,0.07 v 0.06 l 0.01,0.07 0.01,0.06 0.01,0.07 0.01,0.06 v 0.07 l 0.01,0.07 0.01,0.06 v 0.07 l 0.01,0.06 0.01,0.07 v 0.06 l 0.01,0.07 0.01,0.06 v 0.07 l 0.01,0.06 v 0.07 l 0.01,0.07 v 0.06 l 0.01,0.07 v 0.06 l 0.01,0.07 v 0.06 0.07 l 0.01,0.06 v 0.07 l 0.01,0.06 v 0.07 0.07 l 0.01,0.06 v 0.07 0.06 l 0.01,0.07 v 0.06 0.07 0.06 l 0.01,0.07 v 0.07 0.06 0.07 l 0.01,0.06 v 0.07 0.06 0.07 0.06 0.07 l 0.01,0.06 v 0.07 0.07 0.06 0.07 0.06 0.07 l 0.01,0.06 v 0.07 0.06 0.07 0.06 0.07 0.07 0.06 0.07 0.06 0.07 l 0.01,0.06 v 0.07 0.06 0.07 0.07 0.06 0.07 0.06 0.07 0.06 0.07 0.06 0.07 0.06 l 0.01,0.07 v 0.07 0.06 h 0.03 v -0.06 -0.07 -0.07 -0.06 -0.07 -0.06 -0.07 l 0.01,-0.06 v -0.07 -0.06 -0.07 -0.06 -0.07 -0.07 -0.06 -0.07 -0.06 -0.07 -0.06 -0.07 l 0.01,-0.06 v -0.07 -0.07 -0.06 -0.07 -0.06 -0.07 -0.06 -0.07 l 0.01,-0.06 v -0.07 -0.06 -0.07 -0.07 -0.06 -0.07 l 0.01,-0.06 v -0.07 -0.06 -0.07 -0.06 l 0.01,-0.07 v -0.06 -0.07 -0.07 l 0.01,-0.06 v -0.07 -0.06 -0.07 l 0.01,-0.06 v -0.07 -0.06 l 0.01,-0.07 v -0.07 -0.06 l 0.01,-0.07 v -0.06 l 0.01,-0.07 v -0.06 -0.07 l 0.01,-0.06 v -0.07 l 0.01,-0.06 v -0.07 l 0.01,-0.07 0.01,-0.06 v -0.07 l 0.01,-0.06 v -0.07 l 0.01,-0.06 0.01,-0.07 v -0.06 l 0.01,-0.07 0.01,-0.06 v -0.07 l 0.01,-0.07 0.01,-0.06 0.01,-0.07 v -0.06 l 0.01,-0.07 0.01,-0.06 0.01,-0.07 0.01,-0.06 0.01,-0.07 0.01,-0.06 v -0.07 l 0.01,-0.07 0.01,-0.06 0.01,-0.07 0.01,-0.06 0.01,-0.07 0.01,-0.06 0.01,-0.07 0.02,-0.06 0.01,-0.07 0.01,-0.07 0.01,-0.06 0.01,-0.07 0.01,-0.06 0.02,-0.07 0.01,-0.06 0.01,-0.07 0.01,-0.06 0.02,-0.07 0.01,-0.06 0.01,-0.07 0.02,-0.07 0.01,-0.06 0.02,-0.07 0.01,-0.06 0.02,-0.07 0.01,-0.06 0.02,-0.07 0.01,-0.06 0.02,-0.07 0.02,-0.06 0.01,-0.07 0.02,-0.07 0.02,-0.06 0.02,-0.07 0.01,-0.06 0.02,-0.07 0.02,-0.06 0.02,-0.07 0.02,-0.06 0.02,-0.07 0.02,-0.07 0.02,-0.06 0.02,-0.07 0.02,-0.06 0.02,-0.07 0.02,-0.06 0.02,-0.07 0.02,-0.06 0.03,-0.07 0.02,-0.06 0.02,-0.07 0.02,-0.07 0.03,-0.06 0.02,-0.07 0.02,-0.06 0.03,-0.07 0.02,-0.06 0.03,-0.07 0.02,-0.06 0.03,-0.07 0.02,-0.06 0.03,-0.07 0.02,-0.07 0.03,-0.06 0.03,-0.07 0.02,-0.06 0.03,-0.07 0.03,-0.06 0.02,-0.07 0.03,-0.06 0.03,-0.07 0.03,-0.06 0.02,-0.07 0.03,-0.07 0.03,-0.06 0.03,-0.07 0.03,-0.06 0.03,-0.07 0.03,-0.06 0.03,-0.07 0.03,-0.06 0.03,-0.07 0.03,-0.07 0.03,-0.06 0.03,-0.07 0.03,-0.06 0.03,-0.07 0.03,-0.06 0.03,-0.07 0.03,-0.06 0.03,-0.07 0.03,-0.06 0.03,-0.07 0.03,-0.07 0.03,-0.06 0.03,-0.07 0.03,-0.06 0.03,-0.07 0.03,-0.06 0.03,-0.07 0.03,-0.06 0.03,-0.07 0.03,-0.06 0.03,-0.07 0.03,-0.07 0.03,-0.06 0.03,-0.07 0.03,-0.06 0.03,-0.07 0.03,-0.06 0.03,-0.07 0.02,-0.06 0.03,-0.07 0.03,-0.06 0.03,-0.07 0.02,-0.07 0.03,-0.06 0.03,-0.07 0.02,-0.06 0.03,-0.07 0.02,-0.06 0.03,-0.07 0.02,-0.06 0.02,-0.07 0.03,-0.07 0.02,-0.06 0.02,-0.07 0.02,-0.06 0.02,-0.07 0.02,-0.06 0.02,-0.07 0.02,-0.06 0.02,-0.07 0.02,-0.06 0.01,-0.07 0.02,-0.07 0.01,-0.06 0.02,-0.07 0.01,-0.06 0.02,-0.07 0.01,-0.06 0.01,-0.07 0.01,-0.06 0.02,-0.07 0.01,-0.06 0.01,-0.07 v -0.07 l 0.01,-0.06 0.01,-0.07 0.01,-0.06 v -0.07 l 0.01,-0.06 0.01,-0.07 v -0.06 -0.07 l 0.01,-0.07 v -0.06 -0.07 -0.06 l 0.01,-0.07 v -0.06 -0.07 -0.06 l -0.01,-0.07 v -0.06 -0.07 -0.07 l -0.01,-0.06 v -0.07 l -0.01,-0.06 v -0.07 l -0.01,-0.06 v -0.07 l -0.01,-0.06 -0.01,-0.07 -0.01,-0.06 -0.01,-0.07 v -0.07 l -0.01,-0.06 -0.01,-0.07 -0.02,-0.06 -0.01,-0.07 -0.01,-0.06 -0.01,-0.07 -0.01,-0.06 -0.02,-0.07 -0.01,-0.06 -0.02,-0.07 -0.01,-0.07 -0.02,-0.06 -0.01,-0.07 -0.02,-0.06 -0.01,-0.07 -0.02,-0.06 -0.02,-0.07 -0.02,-0.06 -0.01,-0.07 -0.02,-0.07 -0.02,-0.06 -0.02,-0.07 -0.02,-0.06 -0.02,-0.07 -0.02,-0.06 -0.02,-0.07 -0.02,-0.06 -0.02,-0.07 -0.03,-0.06 -0.02,-0.07 -0.02,-0.07 -0.02,-0.06 -0.03,-0.07 -0.02,-0.06 -0.03,-0.07 -0.02,-0.06 -0.02,-0.07 -0.03,-0.06 -0.03,-0.07 -0.02,-0.06 -0.03,-0.07 -0.02,-0.07 -0.03,-0.06 -0.03,-0.07 -0.02,-0.06 -0.03,-0.07 -0.03,-0.06 -0.03,-0.07 -0.03,-0.06 -0.02,-0.07 -0.03,-0.07 -0.03,-0.06 -0.03,-0.07 -0.03,-0.06 -0.03,-0.07 -0.03,-0.06 -0.03,-0.07 -0.02,-0.06 -0.03,-0.07 -0.03,-0.06 -0.03,-0.07 -0.03,-0.07 -0.03,-0.06 -0.03,-0.07 -0.03,-0.06 -0.03,-0.07 -0.03,-0.06 -0.03,-0.07 -0.02,-0.06 -0.03,-0.07 -0.03,-0.06 -0.03,-0.07 -0.03,-0.07 -0.03,-0.06 -0.03,-0.07 -0.02,-0.06 -0.03,-0.07 -0.03,-0.06 -0.03,-0.07 -0.02,-0.06 -0.03,-0.07 -0.03,-0.06 -0.02,-0.07 -0.03,-0.07 -0.03,-0.06 -0.02,-0.07 -0.03,-0.06 -0.03,-0.07 -0.02,-0.06 -0.03,-0.07 -0.02,-0.06 -0.03,-0.07 -0.02,-0.07 -0.03,-0.06 -0.02,-0.07 -0.02,-0.06 -0.03,-0.07 -0.02,-0.06 -0.02,-0.07 -0.03,-0.06 -0.02,-0.07 -0.02,-0.06 -0.02,-0.07 -0.02,-0.07 -0.03,-0.06 -0.02,-0.07 -0.02,-0.06 -0.02,-0.07 -0.02,-0.06 -0.02,-0.07 -0.02,-0.06 -0.02,-0.07 -0.01,-0.06 -0.02,-0.07 -0.02,-0.07 -0.02,-0.06 -0.02,-0.07 -0.01,-0.06 -0.02,-0.07 -0.02,-0.06 -0.01,-0.07 -0.02,-0.06 -0.02,-0.07 -0.01,-0.06 -0.02,-0.07 -0.01,-0.07 -0.02,-0.06 -0.01,-0.07 -0.01,-0.06 -0.02,-0.07 -0.01,-0.06 -0.02,-0.07 -0.01,-0.06 -0.01,-0.07 -0.01,-0.07 -0.02,-0.06 -0.01,-0.07 -0.01,-0.06 -0.01,-0.07 -0.02,-0.06 -0.01,-0.07 -0.01,-0.06 -0.01,-0.07 -0.01,-0.06 -0.01,-0.07 -0.01,-0.07 -0.01,-0.06 -0.01,-0.07 -0.01,-0.06 -0.01,-0.07 -0.01,-0.06 -0.01,-0.07 -0.01,-0.06 -0.01,-0.07 -0.01,-0.06 -0.01,-0.07 v -0.07 l -0.01,-0.06 -0.01,-0.07 -0.01,-0.06 -0.01,-0.07 v -0.06 l -0.01,-0.07 -0.01,-0.06 v -0.07 l -0.01,-0.07 -0.01,-0.06 v -0.07 l -0.01,-0.06 v -0.07 l -0.01,-0.06 -0.01,-0.07 v -0.06 l -0.01,-0.07 v -0.06 l -0.01,-0.07 v -0.07 l -0.01,-0.06 v -0.07 l -0.01,-0.06 v -0.07 -0.06 l -0.01,-0.07 v -0.06 l -0.01,-0.07 v -0.06 -0.07 l -0.01,-0.07 v -0.06 -0.07 l -0.01,-0.06 v -0.07 -0.06 l -0.01,-0.07 v -0.06 -0.07 l -0.01,-0.06 v -0.07 -0.07 -0.06 l -0.01,-0.07 v -0.06 -0.07 -0.06 l -0.01,-0.07 v -0.06 -0.07 -0.07 -0.06 l -0.01,-0.07 v -0.06 -0.07 -0.06 -0.07 -0.06 l -0.01,-0.07 v -0.06 -0.07 -0.07 -0.06 -0.07 -0.06 -0.07 l -0.01,-0.06 v -0.07 -0.06 -0.07 -0.06 -0.07 -0.07 -0.06 -0.07 -0.06 -0.07 -0.06 l -0.01,-0.07 v -0.06 -0.07 -0.06 -0.07 -0.07 -0.06 -0.07 -0.06 -0.07 -0.06 -0.07 z"
           style="fill:#ffffff;fill-opacity:1;fill-rule:nonzero;stroke:#00a7ff;stroke-width:2.23426;stroke-linecap:butt;stroke-linejoin:round;stroke-miterlimit:10;stroke-dasharray:none;stroke-opacity:1"
           id="path736"
           clip-path="url(#clipPath1738)"
           transform="matrix(0.49233273,0,0,-0.49233273,-111.52476,226.27067)" />
        <path
           d="m 515.89,231.17 v 0.05 0.05 0.05 0.05 0.05 0.05 0.05 0.05 0.05 0.05 0.05 0.05 0.06 0.05 0.05 0.05 0.05 l -0.01,0.05 v 0.05 0.05 0.05 0.05 0.05 0.05 0.05 0.05 0.05 0.05 l -0.01,0.06 v 0.05 0.05 0.05 0.05 0.05 0.05 l -0.01,0.05 v 0.05 0.05 0.05 0.05 l -0.01,0.05 v 0.05 0.05 0.05 l -0.01,0.06 v 0.05 0.05 l -0.01,0.05 v 0.05 0.05 l -0.01,0.05 v 0.05 0.05 l -0.01,0.05 v 0.05 0.05 l -0.01,0.05 v 0.05 l -0.01,0.05 v 0.05 0.06 l -0.01,0.05 v 0.05 l -0.01,0.05 v 0.05 l -0.01,0.05 v 0.05 l -0.01,0.05 v 0.05 l -0.01,0.05 -0.01,0.05 v 0.05 l -0.01,0.05 v 0.05 l -0.01,0.05 -0.01,0.05 v 0.06 l -0.01,0.05 -0.01,0.05 v 0.05 l -0.01,0.05 -0.01,0.05 -0.01,0.05 -0.01,0.05 v 0.05 l -0.01,0.05 -0.01,0.05 -0.01,0.05 -0.01,0.05 -0.01,0.05 -0.01,0.05 -0.01,0.05 -0.01,0.06 -0.01,0.05 -0.01,0.05 -0.02,0.05 -0.01,0.05 -0.01,0.05 -0.01,0.05 -0.02,0.05 -0.01,0.05 -0.01,0.05 -0.02,0.05 -0.01,0.05 -0.02,0.05 -0.01,0.05 -0.02,0.05 -0.02,0.05 -0.01,0.06 -0.02,0.05 -0.02,0.05 -0.02,0.05 -0.01,0.05 -0.02,0.05 -0.02,0.05 -0.02,0.05 -0.02,0.05 -0.02,0.05 -0.02,0.05 -0.02,0.05 -0.02,0.05 -0.03,0.05 -0.02,0.05 -0.02,0.06 -0.02,0.05 -0.03,0.05 -0.02,0.05 -0.02,0.05 -0.03,0.05 -0.02,0.05 -0.03,0.05 -0.02,0.05 -0.03,0.05 -0.02,0.05 -0.03,0.05 -0.03,0.05 -0.03,0.05 -0.02,0.05 -0.03,0.05 -0.03,0.06 -0.03,0.05 -0.03,0.05 -0.03,0.05 -0.03,0.05 -0.03,0.05 -0.04,0.05 -0.03,0.05 -0.03,0.05 -0.04,0.05 -0.03,0.05 -0.04,0.05 -0.03,0.05 -0.04,0.05 -0.03,0.05 -0.04,0.05 -0.04,0.06 -0.04,0.05 -0.04,0.05 -0.03,0.05 -0.04,0.05 -0.04,0.05 -0.04,0.05 -0.05,0.05 -0.04,0.05 -0.04,0.05 -0.04,0.05 -0.04,0.05 -0.05,0.05 -0.04,0.05 -0.04,0.05 -0.05,0.05 -0.04,0.06 -0.05,0.05 -0.04,0.05 -0.04,0.05 -0.05,0.05 -0.04,0.05 -0.05,0.05 -0.04,0.05 -0.05,0.05 -0.04,0.05 -0.04,0.05 -0.05,0.05 -0.04,0.05 -0.05,0.05 -0.04,0.05 -0.04,0.05 -0.05,0.06 -0.04,0.05 -0.04,0.05 -0.04,0.05 -0.04,0.05 -0.04,0.05 -0.04,0.05 -0.04,0.05 -0.04,0.05 -0.04,0.05 -0.04,0.05 -0.04,0.05 -0.04,0.05 -0.03,0.05 -0.04,0.05 -0.03,0.05 -0.04,0.06 -0.04,0.05 -0.03,0.05 -0.03,0.05 -0.04,0.05 -0.03,0.05 -0.03,0.05 -0.03,0.05 -0.04,0.05 -0.03,0.05 -0.03,0.05 -0.03,0.05 -0.03,0.05 -0.03,0.05 -0.03,0.05 -0.02,0.05 -0.03,0.06 -0.03,0.05 -0.03,0.05 -0.02,0.05 -0.03,0.05 -0.02,0.05 -0.03,0.05 -0.02,0.05 -0.02,0.05 -0.03,0.05 -0.02,0.05 -0.02,0.05 -0.02,0.05 -0.02,0.05 -0.02,0.05 -0.02,0.05 -0.01,0.06 -0.02,0.05 -0.02,0.05 -0.01,0.05 -0.01,0.05 -0.02,0.05 -0.01,0.05 -0.01,0.05 -0.01,0.05 -0.01,0.05 -0.01,0.05 -0.01,0.05 v 0.05 l -0.01,0.05 -0.01,0.05 v 0.06 0.05 0.05 l -0.01,0.05 v 0.05 0.05 l 0.01,0.05 v 0.05 0.05 l 0.01,0.05 v 0.05 l 0.01,0.05 v 0.05 l 0.01,0.05 0.01,0.05 0.01,0.05 0.01,0.06 0.01,0.05 0.01,0.05 0.01,0.05 0.02,0.05 0.01,0.05 0.02,0.05 0.01,0.05 0.02,0.05 0.01,0.05 0.02,0.05 0.02,0.05 0.02,0.05 0.02,0.05 0.02,0.05 0.02,0.05 0.02,0.06 0.02,0.05 0.03,0.05 0.02,0.05 0.02,0.05 0.03,0.05 0.03,0.05 0.02,0.05 0.03,0.05 0.03,0.05 0.03,0.05 0.03,0.05 0.03,0.05 0.03,0.05 0.03,0.05 0.03,0.05 0.04,0.06 0.03,0.05 0.04,0.05 0.03,0.05 0.04,0.05 0.03,0.05 0.04,0.05 0.04,0.05 0.04,0.05 0.04,0.05 0.04,0.05 0.04,0.05 0.04,0.05 0.05,0.05 0.04,0.05 0.04,0.05 0.04,0.06 0.05,0.05 0.04,0.05 0.05,0.05 0.04,0.05 0.05,0.05 0.04,0.05 0.05,0.05 0.04,0.05 0.05,0.05 0.05,0.05 0.04,0.05 0.05,0.05 0.04,0.05 0.05,0.05 0.04,0.05 0.05,0.06 0.04,0.05 0.05,0.05 0.04,0.05 0.04,0.05 0.05,0.05 0.04,0.05 0.04,0.05 0.05,0.05 0.04,0.05 0.04,0.05 0.04,0.05 0.04,0.05 0.04,0.05 0.04,0.05 0.04,0.05 0.04,0.06 0.04,0.05 0.04,0.05 0.03,0.05 0.04,0.05 0.04,0.05 0.03,0.05 0.04,0.05 0.03,0.05 0.04,0.05 0.03,0.05 0.03,0.05 0.04,0.05 0.03,0.05 0.03,0.05 0.03,0.05 0.04,0.06 0.03,0.05 0.03,0.05 0.03,0.05 0.03,0.05 0.03,0.05 0.03,0.05 0.03,0.05 0.03,0.05 0.02,0.05 0.03,0.05 0.03,0.05 0.03,0.05 0.03,0.05 0.02,0.05 0.03,0.05 0.02,0.06 0.03,0.05 0.03,0.05 0.02,0.05 0.03,0.05 0.02,0.05 0.02,0.05 0.03,0.05 0.02,0.05 0.02,0.05 0.03,0.05 0.02,0.05 0.02,0.05 0.02,0.05 0.02,0.05 0.02,0.06 0.02,0.05 0.02,0.05 0.02,0.05 0.02,0.05 0.02,0.05 0.01,0.05 0.02,0.05 0.02,0.05 0.01,0.05 0.02,0.05 0.01,0.05 0.02,0.05 0.01,0.05 0.02,0.05 0.01,0.05 0.02,0.06 0.01,0.05 0.01,0.05 0.01,0.05 0.01,0.05 0.02,0.05 0.01,0.05 0.01,0.05 0.01,0.05 0.01,0.05 0.01,0.05 0.01,0.05 0.01,0.05 v 0.05 l 0.01,0.05 0.01,0.05 0.01,0.06 0.01,0.05 v 0.05 l 0.01,0.05 0.01,0.05 v 0.05 l 0.01,0.05 0.01,0.05 v 0.05 l 0.01,0.05 0.01,0.05 v 0.05 l 0.01,0.05 v 0.05 l 0.01,0.05 v 0.05 l 0.01,0.06 v 0.05 l 0.01,0.05 v 0.05 l 0.01,0.05 v 0.05 0.05 l 0.01,0.05 v 0.05 0.05 l 0.01,0.05 v 0.05 0.05 l 0.01,0.05 v 0.05 0.05 l 0.01,0.06 v 0.05 0.05 l 0.01,0.05 v 0.05 0.05 0.05 0.05 l 0.01,0.05 v 0.05 0.05 0.05 l 0.01,0.05 v 0.05 0.05 0.05 0.06 0.05 l 0.01,0.05 v 0.05 0.05 0.05 0.05 0.05 l 0.01,0.05 v 0.05 0.05 0.05 0.05 0.05 0.05 0.05 l 0.01,0.06 v 0.05 0.05 0.05 0.05 0.05 0.05 0.05 0.05 0.05 l 0.01,0.05 v 0.05 0.05 0.05 0.05 0.05 0.06 0.05 0.05 0.05 0.05 0.05 h 0.02 v -0.05 -0.05 -0.05 l 0.01,-0.05 v -0.05 -0.06 -0.05 -0.05 -0.05 -0.05 -0.05 -0.05 -0.05 -0.05 -0.05 -0.05 l 0.01,-0.05 v -0.05 -0.05 -0.05 -0.05 -0.06 -0.05 -0.05 -0.05 l 0.01,-0.05 v -0.05 -0.05 -0.05 -0.05 -0.05 -0.05 l 0.01,-0.05 v -0.05 -0.05 -0.05 -0.05 -0.06 l 0.01,-0.05 v -0.05 -0.05 -0.05 -0.05 l 0.01,-0.05 v -0.05 -0.05 -0.05 l 0.01,-0.05 v -0.05 -0.05 -0.05 l 0.01,-0.05 v -0.05 -0.06 -0.05 L 516,254.2 v -0.05 -0.05 l 0.01,-0.05 V 254 253.95 l 0.01,-0.05 v -0.05 l 0.01,-0.05 v -0.05 -0.05 l 0.01,-0.05 v -0.05 l 0.01,-0.05 v -0.06 l 0.01,-0.05 v -0.05 l 0.01,-0.05 v -0.05 l 0.01,-0.05 0.01,-0.05 v -0.05 l 0.01,-0.05 v -0.05 l 0.01,-0.05 0.01,-0.05 v -0.05 l 0.01,-0.05 0.01,-0.05 0.01,-0.05 v -0.06 l 0.01,-0.05 0.01,-0.05 0.01,-0.05 0.01,-0.05 0.01,-0.05 0.01,-0.05 0.01,-0.05 0.01,-0.05 0.01,-0.05 0.01,-0.05 0.01,-0.05 0.01,-0.05 0.01,-0.05 0.02,-0.05 0.01,-0.05 0.01,-0.06 0.02,-0.05 0.01,-0.05 0.02,-0.05 0.01,-0.05 0.02,-0.05 0.01,-0.05 0.02,-0.05 0.01,-0.05 0.02,-0.05 0.02,-0.05 0.02,-0.05 0.02,-0.05 0.01,-0.05 0.02,-0.05 0.02,-0.05 0.02,-0.06 0.03,-0.05 0.02,-0.05 0.02,-0.05 0.02,-0.05 0.02,-0.05 0.02,-0.05 0.03,-0.05 0.02,-0.05 0.03,-0.05 0.02,-0.05 0.02,-0.05 0.03,-0.05 0.02,-0.05 0.03,-0.05 0.03,-0.06 0.02,-0.05 0.03,-0.05 0.03,-0.05 0.02,-0.05 0.03,-0.05 0.03,-0.05 0.03,-0.05 0.03,-0.05 0.03,-0.05 0.03,-0.05 0.03,-0.05 0.03,-0.05 0.03,-0.05 0.03,-0.05 0.03,-0.05 0.03,-0.06 0.03,-0.05 0.04,-0.05 0.03,-0.05 0.03,-0.05 0.03,-0.05 0.04,-0.05 0.03,-0.05 0.04,-0.05 0.03,-0.05 0.04,-0.05 0.04,-0.05 0.03,-0.05 0.04,-0.05 0.04,-0.05 0.04,-0.05 0.03,-0.06 0.04,-0.05 0.04,-0.05 0.04,-0.05 0.04,-0.05 0.05,-0.05 0.04,-0.05 0.04,-0.05 0.04,-0.05 0.04,-0.05 0.05,-0.05 0.04,-0.05 0.04,-0.05 0.05,-0.05 0.04,-0.05 0.05,-0.05 0.04,-0.06 0.05,-0.05 0.04,-0.05 0.05,-0.05 0.04,-0.05 0.05,-0.05 0.05,-0.05 0.04,-0.05 0.05,-0.05 0.04,-0.05 0.05,-0.05 0.04,-0.05 0.05,-0.05 0.04,-0.05 0.05,-0.05 0.04,-0.05 0.04,-0.06 0.05,-0.05 0.04,-0.05 0.04,-0.05 0.04,-0.05 0.04,-0.05 0.05,-0.05 0.03,-0.05 0.04,-0.05 0.04,-0.05 0.04,-0.05 0.04,-0.05 0.03,-0.05 0.04,-0.05 0.03,-0.05 0.04,-0.05 0.03,-0.06 0.04,-0.05 0.03,-0.05 0.03,-0.05 0.03,-0.05 0.03,-0.05 0.03,-0.05 0.03,-0.05 0.02,-0.05 0.03,-0.05 0.03,-0.05 0.02,-0.05 0.03,-0.05 0.02,-0.05 0.02,-0.05 0.02,-0.05 0.03,-0.06 0.02,-0.05 0.02,-0.05 0.02,-0.05 0.02,-0.05 0.01,-0.05 0.02,-0.05 0.02,-0.05 0.01,-0.05 0.02,-0.05 0.01,-0.05 0.02,-0.05 0.01,-0.05 0.01,-0.05 0.02,-0.05 0.01,-0.05 0.01,-0.06 0.01,-0.05 v -0.05 l 0.01,-0.05 0.01,-0.05 v -0.05 l 0.01,-0.05 v -0.05 l 0.01,-0.05 v -0.05 -0.05 -0.05 -0.05 -0.05 -0.05 l -0.01,-0.05 v -0.06 -0.05 l -0.01,-0.05 -0.01,-0.05 v -0.05 l -0.01,-0.05 -0.01,-0.05 -0.01,-0.05 -0.01,-0.05 -0.02,-0.05 -0.01,-0.05 -0.01,-0.05 -0.02,-0.05 -0.02,-0.05 -0.01,-0.05 -0.02,-0.06 -0.02,-0.05 -0.02,-0.05 -0.02,-0.05 -0.02,-0.05 -0.02,-0.05 -0.02,-0.05 -0.02,-0.05 -0.02,-0.05 -0.03,-0.05 -0.02,-0.05 -0.03,-0.05 -0.02,-0.05 -0.03,-0.05 -0.03,-0.05 -0.02,-0.05 -0.03,-0.06 -0.03,-0.05 -0.03,-0.05 -0.03,-0.05 -0.03,-0.05 -0.03,-0.05 -0.03,-0.05 -0.03,-0.05 -0.03,-0.05 -0.03,-0.05 -0.03,-0.05 -0.04,-0.05 -0.03,-0.05 -0.03,-0.05 -0.04,-0.05 -0.03,-0.05 -0.04,-0.06 -0.04,-0.05 -0.03,-0.05 -0.04,-0.05 -0.04,-0.05 -0.03,-0.05 -0.04,-0.05 -0.04,-0.05 -0.04,-0.05 -0.04,-0.05 -0.04,-0.05 -0.04,-0.05 -0.04,-0.05 -0.05,-0.05 -0.04,-0.05 -0.04,-0.05 -0.04,-0.06 -0.05,-0.05 -0.04,-0.05 -0.04,-0.05 -0.05,-0.05 -0.04,-0.05 -0.04,-0.05 -0.05,-0.05 -0.04,-0.05 -0.05,-0.05 -0.04,-0.05 -0.05,-0.05 -0.04,-0.05 -0.04,-0.05 -0.05,-0.05 -0.04,-0.05 -0.05,-0.06 -0.04,-0.05 -0.04,-0.05 -0.05,-0.05 -0.04,-0.05 -0.04,-0.05 -0.05,-0.05 -0.04,-0.05 -0.04,-0.05 -0.04,-0.05 -0.04,-0.05 -0.04,-0.05 -0.04,-0.05 -0.04,-0.05 -0.04,-0.05 -0.04,-0.05 -0.03,-0.06 -0.04,-0.05 -0.04,-0.05 -0.03,-0.05 -0.04,-0.05 -0.03,-0.05 -0.04,-0.05 -0.03,-0.05 -0.04,-0.05 -0.03,-0.05 -0.03,-0.05 -0.03,-0.05 -0.03,-0.05 -0.03,-0.05 -0.03,-0.05 -0.03,-0.05 -0.03,-0.06 -0.03,-0.05 -0.03,-0.05 -0.03,-0.05 -0.02,-0.05 -0.03,-0.05 -0.03,-0.05 -0.02,-0.05 -0.03,-0.05 -0.02,-0.05 -0.03,-0.05 -0.02,-0.05 -0.03,-0.05 -0.02,-0.05 -0.02,-0.05 -0.03,-0.05 -0.02,-0.06 -0.02,-0.05 -0.02,-0.05 -0.02,-0.05 -0.02,-0.05 -0.02,-0.05 -0.02,-0.05 -0.02,-0.05 -0.02,-0.05 -0.02,-0.05 -0.02,-0.05 -0.02,-0.05 -0.02,-0.05 -0.01,-0.05 -0.02,-0.05 -0.02,-0.06 -0.01,-0.05 -0.02,-0.05 -0.02,-0.05 -0.01,-0.05 -0.02,-0.05 -0.01,-0.05 -0.01,-0.05 -0.02,-0.05 -0.01,-0.05 -0.01,-0.05 -0.02,-0.05 -0.01,-0.05 -0.01,-0.05 -0.01,-0.05 -0.01,-0.05 -0.01,-0.06 -0.01,-0.05 -0.01,-0.05 -0.01,-0.05 -0.01,-0.05 -0.01,-0.05 -0.01,-0.05 -0.01,-0.05 -0.01,-0.05 -0.01,-0.05 v -0.05 l -0.01,-0.05 -0.01,-0.05 -0.01,-0.05 v -0.05 l -0.01,-0.05 -0.01,-0.06 v -0.05 l -0.01,-0.05 -0.01,-0.05 v -0.05 l -0.01,-0.05 v -0.05 l -0.01,-0.05 -0.01,-0.05 v -0.05 l -0.01,-0.05 v -0.05 l -0.01,-0.05 v -0.05 l -0.01,-0.05 v -0.05 -0.06 l -0.01,-0.05 V 234.1 L 516,234.05 V 234 233.95 l -0.01,-0.05 v -0.05 l -0.01,-0.05 v -0.05 -0.05 l -0.01,-0.05 v -0.05 -0.05 -0.05 l -0.01,-0.05 v -0.06 -0.05 l -0.01,-0.05 v -0.05 -0.05 -0.05 -0.05 l -0.01,-0.05 v -0.05 -0.05 -0.05 -0.05 l -0.01,-0.05 v -0.05 -0.05 -0.05 -0.06 -0.05 -0.05 -0.05 l -0.01,-0.05 v -0.05 -0.05 -0.05 -0.05 -0.05 -0.05 -0.05 -0.05 -0.05 -0.05 -0.05 -0.06 -0.05 -0.05 -0.05 -0.05 l -0.01,-0.05 v -0.05 -0.05 -0.05 -0.05 -0.05 -0.05 -0.05 z"
           style="fill:#ffffff;fill-opacity:1;fill-rule:nonzero;stroke:#f564e3;stroke-width:2.23426;stroke-linecap:butt;stroke-linejoin:round;stroke-miterlimit:10;stroke-dasharray:none;stroke-opacity:1"
           id="path784"
           clip-path="url(#clipPath1594)"
           transform="matrix(0.49233273,0,0,-0.49233273,-156.28458,221.0487)" />
        <path
           d="m 590.13,190.08 v 0.13 0.12 0.12 0.12 0.13 0.12 0.12 0.12 0.13 0.12 l -0.01,0.12 v 0.12 0.13 0.12 0.12 0.12 0.13 0.12 0.12 0.12 0.13 0.12 0.12 0.13 l -0.01,0.12 v 0.12 0.12 0.13 0.12 0.12 0.12 0.13 0.12 l -0.01,0.12 v 0.12 0.13 0.12 0.12 0.12 0.13 l -0.01,0.12 v 0.12 0.12 0.13 0.12 l -0.01,0.12 v 0.12 0.13 0.12 0.12 l -0.01,0.12 v 0.13 0.12 l -0.01,0.12 v 0.12 0.13 l -0.01,0.12 v 0.12 0.13 l -0.01,0.12 v 0.12 0.12 l -0.01,0.13 v 0.12 l -0.01,0.12 v 0.12 0.13 l -0.01,0.12 v 0.12 l -0.01,0.12 v 0.13 l -0.01,0.12 v 0.12 l -0.01,0.12 -0.01,0.13 v 0.12 l -0.01,0.12 v 0.12 l -0.01,0.13 -0.01,0.12 v 0.12 l -0.01,0.12 -0.01,0.13 v 0.12 l -0.01,0.12 -0.01,0.12 v 0.13 l -0.01,0.12 -0.01,0.12 -0.01,0.12 -0.01,0.13 v 0.12 l -0.01,0.12 -0.01,0.13 -0.01,0.12 -0.01,0.12 -0.01,0.12 -0.01,0.13 -0.01,0.12 -0.01,0.12 -0.01,0.12 -0.01,0.13 -0.01,0.12 -0.01,0.12 -0.01,0.12 -0.01,0.13 -0.01,0.12 -0.01,0.12 -0.01,0.12 -0.01,0.13 -0.01,0.12 -0.02,0.12 -0.01,0.12 -0.01,0.13 -0.01,0.12 -0.02,0.12 -0.01,0.12 -0.02,0.13 -0.01,0.12 -0.01,0.12 -0.02,0.12 -0.01,0.13 -0.02,0.12 -0.01,0.12 -0.02,0.12 -0.02,0.13 -0.01,0.12 -0.02,0.12 -0.02,0.13 -0.01,0.12 -0.02,0.12 -0.02,0.12 -0.02,0.13 -0.02,0.12 -0.01,0.12 -0.02,0.12 -0.02,0.13 -0.02,0.12 -0.02,0.12 -0.02,0.12 -0.02,0.13 -0.02,0.12 -0.03,0.12 -0.02,0.12 -0.02,0.13 -0.02,0.12 -0.02,0.12 -0.02,0.12 -0.03,0.13 -0.02,0.12 -0.02,0.12 -0.02,0.12 -0.03,0.13 -0.02,0.12 -0.02,0.12 -0.02,0.12 -0.02,0.13 -0.03,0.12 -0.02,0.12 -0.02,0.12 -0.02,0.13 -0.02,0.12 -0.02,0.12 -0.02,0.13 -0.02,0.12 -0.02,0.12 -0.02,0.12 -0.02,0.13 -0.02,0.12 -0.02,0.12 -0.02,0.12 -0.01,0.13 -0.02,0.12 -0.02,0.12 -0.01,0.12 -0.02,0.13 -0.02,0.12 -0.01,0.12 -0.02,0.12 -0.01,0.13 -0.02,0.12 -0.01,0.12 -0.01,0.12 -0.02,0.13 -0.01,0.12 -0.01,0.12 -0.02,0.12 -0.01,0.13 -0.01,0.12 -0.02,0.12 -0.01,0.12 -0.01,0.13 -0.01,0.12 -0.02,0.12 -0.01,0.12 -0.01,0.13 -0.01,0.12 -0.02,0.12 -0.01,0.13 -0.01,0.12 -0.01,0.12 -0.01,0.12 -0.02,0.13 -0.01,0.12 -0.01,0.12 -0.01,0.12 -0.01,0.13 -0.01,0.12 -0.01,0.12 -0.01,0.12 -0.01,0.13 -0.01,0.12 -0.01,0.12 -0.01,0.12 v 0.13 l -0.01,0.12 -0.01,0.12 v 0.12 l -0.01,0.13 v 0.12 l -0.01,0.12 v 0.12 0.13 0.12 0.12 0.12 0.13 0.12 0.12 l 0.01,0.12 v 0.13 0.12 l 0.01,0.12 v 0.13 l 0.01,0.12 0.01,0.12 0.01,0.12 0.01,0.13 0.01,0.12 0.01,0.12 0.01,0.12 0.01,0.13 0.01,0.12 0.01,0.12 0.01,0.12 0.02,0.13 0.01,0.12 0.01,0.12 0.02,0.12 0.01,0.13 0.02,0.12 0.01,0.12 0.02,0.12 0.01,0.13 0.02,0.12 0.01,0.12 0.02,0.12 0.02,0.13 0.01,0.12 0.02,0.12 0.01,0.12 0.02,0.13 0.02,0.12 0.01,0.12 0.02,0.12 0.02,0.13 0.01,0.12 0.02,0.12 0.02,0.13 0.01,0.12 0.02,0.12 0.02,0.12 0.02,0.13 0.01,0.12 0.02,0.12 0.02,0.12 0.01,0.13 0.02,0.12 0.02,0.12 0.02,0.12 0.02,0.13 0.01,0.12 0.02,0.12 0.02,0.12 0.02,0.13 0.02,0.12 0.02,0.12 0.02,0.12 0.01,0.13 0.02,0.12 0.02,0.12 0.02,0.12 0.02,0.13 0.02,0.12 0.02,0.12 0.02,0.12 0.02,0.13 0.02,0.12 0.02,0.12 0.02,0.12 0.01,0.13 0.02,0.12 0.02,0.12 0.02,0.12 0.02,0.13 0.02,0.12 0.02,0.12 0.02,0.13 0.01,0.12 0.02,0.12 0.02,0.12 0.02,0.13 0.01,0.12 0.02,0.12 0.02,0.12 0.02,0.13 0.01,0.12 0.02,0.12 0.02,0.12 0.01,0.13 0.02,0.12 0.01,0.12 0.02,0.12 0.02,0.13 0.01,0.12 0.02,0.12 0.01,0.12 0.02,0.13 0.01,0.12 0.01,0.12 0.02,0.12 0.01,0.13 0.02,0.12 0.01,0.12 0.01,0.12 0.02,0.13 0.01,0.12 0.01,0.12 0.02,0.12 0.01,0.13 0.01,0.12 0.01,0.12 0.01,0.13 0.02,0.12 0.01,0.12 0.01,0.12 0.01,0.13 0.01,0.12 0.01,0.12 0.01,0.12 0.01,0.13 0.01,0.12 0.01,0.12 0.01,0.12 0.01,0.13 0.01,0.12 0.01,0.12 0.01,0.12 0.01,0.13 0.01,0.12 0.01,0.12 0.01,0.12 v 0.13 l 0.01,0.12 0.01,0.12 0.01,0.12 v 0.13 l 0.01,0.12 0.01,0.12 v 0.12 l 0.01,0.13 v 0.12 l 0.01,0.12 0.01,0.12 v 0.13 l 0.01,0.12 v 0.12 l 0.01,0.13 v 0.12 l 0.01,0.12 v 0.12 0.13 l 0.01,0.12 v 0.12 l 0.01,0.12 v 0.13 0.12 l 0.01,0.12 v 0.12 0.13 l 0.01,0.12 v 0.12 0.12 0.13 l 0.01,0.12 v 0.12 0.12 0.13 l 0.01,0.12 v 0.12 0.12 0.13 0.12 l 0.01,0.12 v 0.12 0.13 0.12 0.12 l 0.01,0.12 v 0.13 0.12 0.12 0.13 0.12 0.12 l 0.01,0.12 v 0.13 0.12 0.12 0.12 0.13 0.12 l 0.01,0.12 v 0.12 0.13 0.12 0.12 0.12 0.13 0.12 0.12 0.12 l 0.01,0.13 v 0.12 0.12 0.12 0.13 0.12 0.12 0.12 0.13 0.12 0.12 0.12 0.13 0.12 0.12 l 0.01,0.13 v 0.12 0.12 0.12 0.13 0.12 0.12 0.12 0.13 0.12 0.12 0.12 0.13 0.12 0.12 0.12 0.13 0.12 0.12 0.12 0.13 0.12 0.12 0.12 0.13 0.12 0.12 0.12 0.13 0.12 0.12 0.12 0.13 0.12 0.12 0.13 0.12 0.12 0.12 0.13 0.12 0.12 0.12 0.13 0.12 0.12 0.12 0.13 0.12 0.12 0.12 0.13 0.12 0.12 0.12 0.13 0.12 0.12 0.12 0.13 0.12 0.12 0.12 0.13 h 0.01 v -0.13 -0.12 -0.12 -0.12 -0.13 -0.12 -0.12 -0.12 -0.13 -0.12 -0.12 -0.12 -0.13 -0.12 -0.12 -0.12 -0.13 -0.12 -0.12 -0.12 -0.13 -0.12 -0.12 -0.12 -0.13 -0.12 -0.12 -0.12 -0.13 -0.12 -0.12 -0.13 -0.12 -0.12 -0.12 -0.13 -0.12 -0.12 -0.12 -0.13 -0.12 -0.12 -0.12 -0.13 -0.12 -0.12 -0.12 -0.13 -0.12 -0.12 -0.12 -0.13 -0.12 -0.12 -0.12 -0.13 -0.12 -0.12 -0.12 -0.13 -0.12 -0.12 l 0.01,-0.12 v -0.13 -0.12 -0.12 -0.13 -0.12 -0.12 -0.12 -0.13 -0.12 -0.12 -0.12 -0.13 -0.12 -0.12 l 0.01,-0.12 v -0.13 -0.12 -0.12 -0.12 -0.13 -0.12 -0.12 -0.12 -0.13 l 0.01,-0.12 v -0.12 -0.12 -0.13 -0.12 -0.12 -0.12 -0.13 l 0.01,-0.12 v -0.12 -0.12 -0.13 -0.12 -0.12 l 0.01,-0.13 v -0.12 -0.12 -0.12 -0.13 -0.12 l 0.01,-0.12 v -0.12 -0.13 -0.12 -0.12 l 0.01,-0.12 v -0.13 -0.12 -0.12 l 0.01,-0.12 v -0.13 -0.12 l 0.01,-0.12 v -0.12 -0.13 l 0.01,-0.12 v -0.12 -0.12 l 0.01,-0.13 v -0.12 -0.12 l 0.01,-0.12 v -0.13 l 0.01,-0.12 v -0.12 -0.12 l 0.01,-0.13 v -0.12 l 0.01,-0.12 v -0.13 l 0.01,-0.12 0.01,-0.12 v -0.12 l 0.01,-0.13 v -0.12 l 0.01,-0.12 0.01,-0.12 0.01,-0.13 v -0.12 l 0.01,-0.12 0.01,-0.12 0.01,-0.13 v -0.12 l 0.01,-0.12 0.01,-0.12 0.01,-0.13 0.01,-0.12 0.01,-0.12 0.01,-0.12 0.01,-0.13 0.01,-0.12 0.01,-0.12 0.01,-0.12 0.01,-0.13 0.01,-0.12 0.01,-0.12 0.01,-0.12 0.01,-0.13 0.01,-0.12 0.01,-0.12 0.02,-0.12 0.01,-0.13 0.01,-0.12 0.01,-0.12 0.01,-0.13 0.02,-0.12 0.01,-0.12 0.01,-0.12 0.02,-0.13 0.01,-0.12 0.01,-0.12 0.02,-0.12 0.01,-0.13 0.02,-0.12 0.01,-0.12 0.01,-0.12 0.02,-0.13 0.01,-0.12 0.02,-0.12 0.01,-0.12 0.02,-0.13 0.02,-0.12 0.01,-0.12 0.02,-0.12 0.01,-0.13 0.02,-0.12 0.02,-0.12 0.01,-0.12 0.02,-0.13 0.02,-0.12 0.02,-0.12 0.01,-0.12 0.02,-0.13 0.02,-0.12 0.02,-0.12 0.02,-0.12 0.01,-0.13 0.02,-0.12 0.02,-0.12 0.02,-0.13 0.02,-0.12 0.02,-0.12 0.02,-0.12 0.02,-0.13 0.01,-0.12 0.02,-0.12 0.02,-0.12 0.02,-0.13 0.02,-0.12 0.02,-0.12 0.02,-0.12 0.02,-0.13 0.02,-0.12 0.02,-0.12 0.02,-0.12 0.02,-0.13 0.01,-0.12 0.02,-0.12 0.02,-0.12 0.02,-0.13 0.02,-0.12 0.02,-0.12 0.01,-0.12 0.02,-0.13 0.02,-0.12 0.02,-0.12 0.02,-0.12 0.01,-0.13 0.02,-0.12 0.02,-0.12 0.02,-0.12 0.01,-0.13 0.02,-0.12 0.02,-0.12 0.01,-0.12 0.02,-0.13 0.02,-0.12 0.01,-0.12 0.02,-0.13 0.02,-0.12 0.01,-0.12 0.02,-0.12 0.02,-0.13 0.01,-0.12 0.02,-0.12 0.02,-0.12 0.01,-0.13 0.02,-0.12 0.01,-0.12 0.02,-0.12 0.01,-0.13 0.02,-0.12 0.01,-0.12 0.02,-0.12 0.01,-0.13 0.02,-0.12 0.01,-0.12 0.01,-0.12 0.02,-0.13 0.01,-0.12 0.01,-0.12 0.01,-0.12 0.01,-0.13 0.02,-0.12 0.01,-0.12 0.01,-0.12 v -0.13 l 0.01,-0.12 0.01,-0.12 0.01,-0.12 v -0.13 l 0.01,-0.12 v -0.12 l 0.01,-0.13 v -0.12 -0.12 -0.12 -0.13 -0.12 -0.12 -0.12 -0.13 -0.12 l -0.01,-0.12 v -0.12 l -0.01,-0.13 v -0.12 l -0.01,-0.12 -0.01,-0.12 v -0.13 l -0.01,-0.12 -0.01,-0.12 -0.01,-0.12 -0.01,-0.13 -0.01,-0.12 -0.01,-0.12 -0.01,-0.12 -0.01,-0.13 -0.01,-0.12 -0.01,-0.12 -0.01,-0.12 -0.01,-0.13 -0.02,-0.12 -0.01,-0.12 -0.01,-0.12 -0.01,-0.13 -0.02,-0.12 -0.01,-0.12 -0.01,-0.13 -0.01,-0.12 -0.01,-0.12 -0.02,-0.12 -0.01,-0.13 -0.01,-0.12 -0.02,-0.12 -0.01,-0.12 -0.01,-0.13 -0.02,-0.12 -0.01,-0.12 -0.01,-0.12 -0.02,-0.13 -0.01,-0.12 -0.01,-0.12 -0.02,-0.12 -0.01,-0.13 -0.02,-0.12 -0.01,-0.12 -0.02,-0.12 -0.02,-0.13 -0.01,-0.12 -0.02,-0.12 -0.02,-0.12 -0.01,-0.13 -0.02,-0.12 -0.02,-0.12 -0.02,-0.12 -0.02,-0.13 -0.02,-0.12 -0.02,-0.12 -0.02,-0.12 -0.02,-0.13 -0.02,-0.12 -0.02,-0.12 -0.02,-0.13 -0.02,-0.12 -0.02,-0.12 -0.02,-0.12 -0.03,-0.13 -0.02,-0.12 -0.02,-0.12 -0.02,-0.12 -0.03,-0.13 -0.02,-0.12 -0.02,-0.12 -0.02,-0.12 -0.02,-0.13 -0.03,-0.12 -0.02,-0.12 -0.02,-0.12 -0.02,-0.13 -0.02,-0.12 -0.02,-0.12 -0.03,-0.12 -0.02,-0.13 -0.02,-0.12 -0.02,-0.12 -0.02,-0.12 -0.02,-0.13 -0.02,-0.12 -0.01,-0.12 -0.02,-0.12 -0.02,-0.13 -0.02,-0.12 -0.02,-0.12 -0.01,-0.12 -0.02,-0.13 -0.02,-0.12 -0.01,-0.12 -0.02,-0.13 -0.02,-0.12 -0.01,-0.12 -0.02,-0.12 -0.01,-0.13 -0.02,-0.12 -0.01,-0.12 -0.01,-0.12 -0.02,-0.13 -0.01,-0.12 -0.01,-0.12 -0.02,-0.12 -0.01,-0.13 -0.01,-0.12 -0.01,-0.12 -0.02,-0.12 -0.01,-0.13 -0.01,-0.12 -0.01,-0.12 -0.01,-0.12 -0.01,-0.13 -0.01,-0.12 -0.01,-0.12 -0.01,-0.12 -0.01,-0.13 -0.01,-0.12 -0.01,-0.12 -0.01,-0.12 -0.01,-0.13 -0.01,-0.12 -0.01,-0.12 -0.01,-0.12 -0.01,-0.13 -0.01,-0.12 v -0.12 l -0.01,-0.13 -0.01,-0.12 -0.01,-0.12 v -0.12 l -0.01,-0.13 -0.01,-0.12 -0.01,-0.12 v -0.12 l -0.01,-0.13 -0.01,-0.12 v -0.12 l -0.01,-0.12 -0.01,-0.13 v -0.12 l -0.01,-0.12 v -0.12 l -0.01,-0.13 v -0.12 l -0.01,-0.12 -0.01,-0.12 v -0.13 l -0.01,-0.12 v -0.12 -0.12 l -0.01,-0.13 v -0.12 l -0.01,-0.12 v -0.12 l -0.01,-0.13 v -0.12 -0.12 l -0.01,-0.12 v -0.13 -0.12 l -0.01,-0.12 v -0.13 -0.12 l -0.01,-0.12 v -0.12 -0.13 -0.12 l -0.01,-0.12 v -0.12 -0.13 -0.12 l -0.01,-0.12 v -0.12 -0.13 -0.12 -0.12 l -0.01,-0.12 v -0.13 -0.12 -0.12 -0.12 -0.13 -0.12 l -0.01,-0.12 v -0.12 -0.13 -0.12 -0.12 -0.12 -0.13 -0.12 -0.12 -0.12 l -0.01,-0.13 v -0.12 -0.12 -0.13 -0.12 -0.12 -0.12 -0.13 -0.12 -0.12 -0.12 -0.13 -0.12 -0.12 -0.12 l -0.01,-0.13 v -0.12 -0.12 -0.12 -0.13 -0.12 -0.12 -0.12 -0.13 z"
           style="fill:#ffffff;fill-opacity:1;fill-rule:nonzero;stroke:#fe6e8a;stroke-width:2.23426;stroke-linecap:butt;stroke-linejoin:round;stroke-miterlimit:10;stroke-dasharray:none;stroke-opacity:1"
           id="path816"
           clip-path="url(#clipPath1498)"
           transform="matrix(0.49233273,0,0,-0.49233273,-183.57411,206.9249)" />
      </g>
    </g>
  </g>
</svg>
